<?xml version="1.0" encoding="UTF-8"?>
<svg version="1.1" xmlns="http://www.w3.org/2000/svg" width="512" height="86">
<path d="M0 0 C8.085 -0.165 16.17 -0.33 24.5 -0.5 C27.03751953 -0.57283203 29.57503906 -0.64566406 32.18945312 -0.72070312 C34.22001774 -0.74408653 36.25062009 -0.76446793 38.28125 -0.78125 C39.31991211 -0.82217773 40.35857422 -0.86310547 41.42871094 -0.90527344 C46.80011589 -0.91039394 50.44826363 -0.34879472 54.66601562 3.12890625 C59.60140563 8.88627806 59.15932048 15.49194414 59.0625 22.71875 C59.06789996 24.14547785 59.0756732 25.57219849 59.08569336 26.99890137 C59.09743847 29.97833851 59.08051623 32.95584717 59.04296875 35.93505859 C58.99737653 39.73580147 59.02364917 43.53202606 59.07154846 47.33260345 C59.10059571 50.27562918 59.0911961 53.21760058 59.07052612 56.16065979 C59.06522695 57.560761 59.07160637 58.96096106 59.09036255 60.36094666 C59.16022351 67.03950421 59.16153277 72.62685497 54.66601562 77.87109375 C49.56787892 82.07470624 44.65882988 82.03255395 38.28125 81.78125 C37.30639648 81.77319336 36.33154297 81.76513672 35.32714844 81.75683594 C31.71732302 81.71526621 28.10857868 81.60357363 24.5 81.5 C12.3725 81.2525 12.3725 81.2525 0 81 C0 54.27 0 27.54 0 0 Z M20 20 C20 33.53 20 47.06 20 61 C25.94 61 31.88 61 38 61 C38 47.47 38 33.94 38 20 C32.06 20 26.12 20 20 20 Z " fill="#221E1F" transform="translate(2,0)"/>
<path d="M0 0 C6.93 0 13.86 0 21 0 C21 9.9 21 19.8 21 30 C25.95 30 30.9 30 36 30 C36 20.1 36 10.2 36 0 C42.6 0 49.2 0 56 0 C56 26.73 56 53.46 56 81 C49.4 81 42.8 81 36 81 C36 71.1 36 61.2 36 51 C31.05 51 26.1 51 21 51 C21 60.9 21 70.8 21 81 C14.07 81 7.14 81 0 81 C0 54.27 0 27.54 0 0 Z " fill="#221E1F" transform="translate(181,0)"/>
<path d="M0 0 C6.93 0 13.86 0 21 0 C21.00410889 1.51352051 21.00821777 3.02704102 21.01245117 4.58642578 C21.03425163 10.21128212 21.08855232 15.83543988 21.15258789 21.45996094 C21.17575965 23.89250993 21.19016164 26.32515913 21.19555664 28.7578125 C21.20485163 32.25844718 21.24585813 35.7575074 21.29296875 39.2578125 C21.2890361 40.34240753 21.28510345 41.42700256 21.28105164 42.54446411 C21.37600989 49.14231916 21.37600989 49.14231916 24.54418945 54.73388672 C25.35460693 55.4817041 26.16502441 56.22952148 27 57 C27.804375 56.195625 28.60875 55.39125 29.4375 54.5625 C30.625 53.375 31.8125 52.1875 33 51 C33.12272849 49.40486107 33.17781043 47.80445068 33.20532227 46.20483398 C33.22526749 45.18385117 33.24521271 44.16286835 33.26576233 43.11094666 C33.28247482 42.0005452 33.29918732 40.89014374 33.31640625 39.74609375 C33.33718735 38.61551041 33.35796844 37.48492706 33.37937927 36.32008362 C33.44499797 32.69262015 33.50381677 29.06508167 33.5625 25.4375 C33.60567351 22.98501814 33.6492874 20.532544 33.69335938 18.08007812 C33.80069188 12.05346316 33.90192422 6.02677243 34 0 C40.6 0 47.2 0 54 0 C54.2502146 7.46759349 54.45126622 14.93358803 54.56993389 22.40437603 C54.62694371 25.87511137 54.70400604 29.34279122 54.82983398 32.81176758 C55.73172126 58.33080742 55.73172126 58.33080742 50.16841125 65.45857239 C47.93544946 67.8209402 45.46908546 69.88960153 43 72 C41.1955358 74.73184722 41.1955358 74.73184722 39.875 77.3125 C37.46031536 80.43292581 36.07504241 80.98028027 32.1796875 82.00390625 C27.04667744 82.6254073 21.71908606 82.81939413 17.27490234 79.84570312 C14.15712294 76.97139242 11.75186741 73.642652 9.47941589 70.07888794 C8.01562002 67.91881662 8.01562002 67.91881662 6.02455139 65.9197998 C-0.43588933 58.95470417 -1.0961235 53.6171028 -0.78125 44.3359375 C-0.76993042 43.06271637 -0.75861084 41.78949524 -0.74694824 40.47769165 C-0.70997947 37.12545298 -0.6384086 33.77774814 -0.54931641 30.42675781 C-0.4668189 26.99453485 -0.43080251 23.56183923 -0.390625 20.12890625 C-0.30278636 13.4178795 -0.16490074 6.70955756 0 0 Z " fill="#221E1F" transform="translate(279,0)"/>
<path d="M0 0 C1.34807739 0.01697937 1.34807739 0.01697937 2.72338867 0.03430176 C5.56784792 0.07875804 8.40708973 0.179046 11.25 0.28125 C13.18872879 0.32141748 15.12753735 0.35791252 17.06640625 0.390625 C21.79785094 0.47157358 26.51815558 0.62806079 31.25 0.78125 C31.25 7.05125 31.25 13.32125 31.25 19.78125 C21.68 19.78125 12.11 19.78125 2.25 19.78125 C2.25 23.41125 2.25 27.04125 2.25 30.78125 C9.18 30.78125 16.11 30.78125 23.25 30.78125 C23.25 37.71125 23.25 44.64125 23.25 51.78125 C16.32 51.78125 9.39 51.78125 2.25 51.78125 C2.25 55.08125 2.25 58.38125 2.25 61.78125 C11.82 61.78125 21.39 61.78125 31.25 61.78125 C31.25 68.38125 31.25 74.98125 31.25 81.78125 C25.71388628 81.98895042 20.19146145 82.16763242 14.65454102 82.27563477 C12.77549271 82.32066994 10.89675584 82.38192268 9.01879883 82.46020508 C6.304719 82.5704398 3.59482945 82.62063424 0.87890625 82.66015625 C-0.36384315 82.7298336 -0.36384315 82.7298336 -1.63169861 82.80091858 C-6.80139951 82.80531057 -9.81991808 81.49327776 -13.77929688 78.13867188 C-19.18516999 72.11315249 -19.04670169 65.92753444 -18.91015625 58.18359375 C-18.91368779 56.78071641 -18.9200417 55.37784364 -18.92906189 53.97499084 C-18.93777238 51.04837203 -18.91479895 48.12424775 -18.8684082 45.19799805 C-18.81146562 41.46555973 -18.83071674 37.73815701 -18.87336063 34.00568295 C-18.89850404 31.11321038 -18.88477545 28.22190202 -18.85946465 25.32946968 C-18.8516715 23.95451062 -18.85525548 22.57943399 -18.87092781 21.20454216 C-18.92576754 14.50725861 -18.86738894 9.11689328 -14.29077148 3.92602539 C-9.69726357 0.11851595 -5.8050267 -0.28016538 0 0 Z " fill="#221E1F" transform="translate(363.75,-0.78125)"/>
<path d="M0 0 C1.34807739 0.01697937 1.34807739 0.01697937 2.72338867 0.03430176 C5.56784792 0.07875804 8.40708973 0.179046 11.25 0.28125 C13.18872879 0.32141748 15.12753735 0.35791252 17.06640625 0.390625 C21.79785094 0.47157358 26.51815558 0.62806079 31.25 0.78125 C31.25 7.05125 31.25 13.32125 31.25 19.78125 C21.68 19.78125 12.11 19.78125 2.25 19.78125 C2.25 23.41125 2.25 27.04125 2.25 30.78125 C8.85 30.78125 15.45 30.78125 22.25 30.78125 C22.25 37.71125 22.25 44.64125 22.25 51.78125 C15.65 51.78125 9.05 51.78125 2.25 51.78125 C2.25 55.08125 2.25 58.38125 2.25 61.78125 C11.82 61.78125 21.39 61.78125 31.25 61.78125 C31.25 68.38125 31.25 74.98125 31.25 81.78125 C25.71388628 81.98895042 20.19146145 82.16763242 14.65454102 82.27563477 C12.77549271 82.32066994 10.89675584 82.38192268 9.01879883 82.46020508 C6.304719 82.5704398 3.59482945 82.62063424 0.87890625 82.66015625 C-0.36384315 82.7298336 -0.36384315 82.7298336 -1.63169861 82.80091858 C-6.80139951 82.80531057 -9.81991808 81.49327776 -13.77929688 78.13867188 C-19.18516999 72.11315249 -19.04670169 65.92753444 -18.91015625 58.18359375 C-18.91368779 56.78071641 -18.9200417 55.37784364 -18.92906189 53.97499084 C-18.93777238 51.04837203 -18.91479895 48.12424775 -18.8684082 45.19799805 C-18.81146562 41.46555973 -18.83071674 37.73815701 -18.87336063 34.00568295 C-18.89850404 31.11321038 -18.88477545 28.22190202 -18.85946465 25.32946968 C-18.8516715 23.95451062 -18.85525548 22.57943399 -18.87092781 21.20454216 C-18.92576754 14.50725861 -18.86738894 9.11689328 -14.29077148 3.92602539 C-9.69726357 0.11851595 -5.8050267 -0.28016538 0 0 Z " fill="#221E1F" transform="translate(88.75,-0.78125)"/>
<path d="M0 0 C6.6 0 13.2 0 20 0 C20.01417969 2.16820313 20.02835937 4.33640625 20.04296875 6.5703125 C20.07364044 8.68537632 20.11271513 10.80013102 20.15258789 12.91503906 C20.17569115 14.37749182 20.19014558 15.84010915 20.19555664 17.30273438 C20.20490398 19.41379424 20.24600821 21.52229366 20.29296875 23.6328125 C20.3086792 24.90012207 20.32438965 26.16743164 20.34057617 27.47314453 C21.19293072 32.03186863 22.89565366 33.63178885 26 37 C26 37.66 26 38.32 26 39 C26.66 39 27.32 39 28 39 C28.268125 38.4225 28.53625 37.845 28.8125 37.25 C30 35 30 35 31.54223633 33.30761719 C33.56754385 30.10158693 33.43440119 27.60122173 33.51171875 23.828125 C33.52966995 23.1457074 33.54762115 22.46328979 33.56611633 21.76019287 C33.62010383 19.5901906 33.65407583 17.42040675 33.6875 15.25 C33.72068352 13.77470926 33.75517415 12.29944731 33.79101562 10.82421875 C33.87827569 7.2161165 33.93843475 3.60899751 34 0 C40.27 0 46.54 0 53 0 C53.20806374 5.4995612 53.38662806 10.98521472 53.49438477 16.4855957 C53.53933179 18.35097768 53.60051645 20.21604826 53.67895508 22.08032227 C54.39484215 39.5470309 54.39484215 39.5470309 48.83984375 46.29296875 C47.26081079 47.89644154 45.64943766 49.46904426 44 51 C38.14360043 57.24456941 37.10269943 62.00348105 37.125 70.5 C37.104375 71.51320313 37.08375 72.52640625 37.0625 73.5703125 C37.01577907 76.0465219 37.00427008 78.52335356 37 81 C30.4 81 23.8 81 17 81 C17.03222656 79.53949219 17.06445312 78.07898438 17.09765625 76.57421875 C17.44165238 63.7317154 17.44165238 63.7317154 11.875 52.6875 C8.57289852 49.48470364 8.57289852 49.48470364 5.14916992 46.41479492 C-0.65481126 40.5284356 -0.71437105 34.83087964 -0.66833496 26.99143982 C-0.61443099 24.3056746 -0.52687276 21.62229625 -0.4375 18.9375 C-0.40234093 17.09966881 -0.37041002 15.26177288 -0.34179688 13.42382812 C-0.27110971 8.94630095 -0.13414404 4.47785568 0 0 Z " fill="#221E1F" transform="translate(459,0)"/>
<path d="M0 0 C6.93 0 13.86 0 21 0 C21 20.13 21 40.26 21 61 C29.25 61 37.5 61 46 61 C46 67.6 46 74.2 46 81 C40.89075982 81.2078596 35.7963974 81.38645493 30.6862793 81.49438477 C28.95269878 81.53938979 27.219455 81.60062043 25.48706055 81.67895508 C22.98141341 81.78933919 20.48030737 81.83940966 17.97265625 81.87890625 C17.20977798 81.92535782 16.44689972 81.97180939 15.66090393 82.01966858 C10.75536213 82.02417437 7.78388331 80.60123667 3.99414062 77.484375 C-1.90175949 70.96139038 -1.13441072 63.61043401 -0.87890625 55.37109375 C-0.86209261 53.7697357 -0.84929446 52.16833094 -0.84031677 50.56690979 C-0.80616597 46.37846084 -0.71795797 42.19287992 -0.61798096 38.0055542 C-0.5254421 33.72219638 -0.48470939 29.43836898 -0.43945312 25.15429688 C-0.34330678 16.76807669 -0.18518765 8.38472695 0 0 Z " fill="#221E1F" transform="translate(128,0)"/>
<path d="M0 0 C0.80993408 0.01131958 1.61986816 0.02263916 2.4543457 0.03430176 C5.01375104 0.07870238 7.56732159 0.17896216 10.125 0.28125 C11.87101218 0.32142545 13.61711318 0.3579191 15.36328125 0.390625 C19.62118177 0.4714968 23.86665284 0.6279495 28.125 0.78125 C28.125 7.05125 28.125 13.32125 28.125 19.78125 C19.875 19.78125 11.625 19.78125 3.125 19.78125 C3.125 40.24125 3.125 60.70125 3.125 81.78125 C-3.475 81.78125 -10.075 81.78125 -16.875 81.78125 C-17.05613083 72.40145955 -17.20272734 63.02284044 -17.28949738 53.64169312 C-17.33115461 49.28504182 -17.38760298 44.92965439 -17.47851562 40.57373047 C-17.56578968 36.36554659 -17.61334527 32.15857382 -17.63401794 27.94955444 C-17.6487386 26.34830669 -17.67748701 24.74712127 -17.72084045 23.14639282 C-18.08698695 9.06004408 -18.08698695 9.06004408 -13.38085938 3.78320312 C-9.03267539 0.31497146 -5.43713879 -0.29230396 0 0 Z " fill="#221E1F" transform="translate(422.875,-0.78125)"/>
<path d="M0 0 C6.6 0 13.2 0 20 0 C20 26.73 20 53.46 20 81 C13.4 81 6.8 81 0 81 C0 54.27 0 27.54 0 0 Z " fill="#221E1F" transform="translate(248,0)"/>
<path d="M0 0 C6.6 0 13.2 0 20 0 C20 6.27 20 12.54 20 19 C13.4 19 6.8 19 0 19 C0 12.73 0 6.46 0 0 Z " fill="#E63F34" transform="translate(2,62)"/>
<path d="M0 0 C6.27 0 12.54 0 19 0 C19 6.27 19 12.54 19 19 C12.73 19 6.46 19 0 19 C0 12.73 0 6.46 0 0 Z " fill="#E83F35" transform="translate(493,0)"/>
</svg>
