<?xml version="1.0" encoding="UTF-8" standalone="no"?>
<svg
   xmlns:dc="http://purl.org/dc/elements/1.1/"
   xmlns:cc="http://creativecommons.org/ns#"
   xmlns:rdf="http://www.w3.org/1999/02/22-rdf-syntax-ns#"
   xmlns:svg="http://www.w3.org/2000/svg"
   xmlns="http://www.w3.org/2000/svg"
   xmlns:sodipodi="http://sodipodi.sourceforge.net/DTD/sodipodi-0.dtd"
   xmlns:inkscape="http://www.inkscape.org/namespaces/inkscape"
   width="250"
   height="60.398834"
   viewBox="0 0 200.00001 48.319065"
   version="1.1"
   id="svg2"
   inkscape:version="0.91 r13725"
   sodipodi:docname="DMG Mori logo.svg">
  <metadata
     id="metadata1609">
    <rdf:RDF>
      <cc:Work
         rdf:about="">
        <dc:format>image/svg+xml</dc:format>
        <dc:type
           rdf:resource="http://purl.org/dc/dcmitype/StillImage" />
        <dc:title />
      </cc:Work>
    </rdf:RDF>
  </metadata>
  <sodipodi:namedview
     pagecolor="#ffffff"
     bordercolor="#666666"
     borderopacity="1"
     objecttolerance="10"
     gridtolerance="10"
     guidetolerance="10"
     inkscape:pageopacity="0"
     inkscape:pageshadow="2"
     inkscape:window-width="1280"
     inkscape:window-height="738"
     id="namedview1607"
     showgrid="false"
     units="px"
     fit-margin-top="1"
     fit-margin-right="1"
     fit-margin-left="1"
     fit-margin-bottom="1"
     inkscape:zoom="4"
     inkscape:cx="129.22668"
     inkscape:cy="-41.889201"
     inkscape:window-x="-8"
     inkscape:window-y="-8"
     inkscape:window-maximized="1"
     inkscape:current-layer="svg2"
     showguides="true"
     inkscape:guide-bbox="true">
    <sodipodi:guide
       position="100.00001,36.774998"
       orientation="1,0"
       id="guide4134" />
  </sodipodi:namedview>
  <defs
     id="defs4" />
  <path
     style="clip-rule:nonzero;fill:#211e1e;fill-opacity:1;fill-rule:nonzero;stroke:none"
     d="m 103.2514,43.388044 3.92351,0 0,-0.959811 -3.92351,0 0,-2.574608 4.24778,0 0,-0.992231 -5.49942,0 0,8.443667 5.64209,0 0,-0.992216 -4.39045,0 z m -18.320543,0 3.923523,0 0,-0.959811 -3.923523,0 0,-2.574608 4.247771,0 0,-0.992231 -5.49941,0 0,8.443667 5.648577,0 0,-0.992216 -4.396938,0 z m 27.574843,-4.52665 -1.25162,0 0,8.443667 5.55128,0 0,-1.005196 -4.29966,0 z m -16.102608,3.664115 -1.271094,-0.408575 c -0.635547,-0.213991 -1.465646,-0.505835 -1.465646,-1.303498 0,-0.830099 0.732807,-1.381351 1.822314,-1.381351 1.108962,0 1.952038,0.745804 2.230888,1.108962 l 0.58369,-0.94683 c -0.38912,-0.42154 -1.26462,-1.108962 -2.814578,-1.108962 -1.562906,0 -3.093408,0.94683 -3.093408,2.360601 0,1.498066 0.979266,1.971497 2.068773,2.295745 l 1.381335,0.42154 c 0.869009,0.265882 1.465628,0.667967 1.465628,1.562906 0,0.667983 -0.583654,1.43321 -1.952024,1.43321 -1.186767,0 -2.341146,-0.778208 -2.782125,-1.219187 l -0.570691,0.907904 c 0.343719,0.311283 0.700387,0.590146 1.108962,0.784714 0.505835,0.259408 1.219203,0.48638 2.243854,0.48638 2.360584,0 3.242574,-1.368354 3.242574,-2.393021 0,-1.627778 -1.03114,-2.211434 -2.198452,-2.600538 m 63.042078,1.705599 1.42025,-4.260752 1.44619,4.260752 z m 0.68743,-5.369714 -3.06099,8.443667 1.34891,0 0.71337,-2.114158 3.46956,0 0.71336,2.114158 1.46566,0 -3.07399,-8.443667 z m 15.40223,1.011686 2.91182,0 0,7.431981 1.25813,0 0,-7.431981 2.91182,0 0,-1.011686 -7.08177,0 z m -43.53478,2.652429 -1.27108,-0.408575 c -0.63556,-0.213991 -1.46566,-0.505835 -1.46566,-1.303498 0,-0.830099 0.73282,-1.381351 1.82882,-1.381351 1.10247,0 1.95202,0.745804 2.2244,1.108962 l 0.58365,-0.94683 c -0.38909,-0.42154 -1.2646,-1.108962 -2.80805,-1.108962 -1.56292,0 -3.09341,0.94683 -3.09341,2.360601 0,1.498066 0.97276,1.971497 2.06227,2.295745 l 1.38782,0.42154 c 0.86252,0.265882 1.45916,0.667967 1.45916,1.562906 0,0.667983 -0.58367,1.43321 -1.95203,1.43321 -1.18678,0 -2.34113,-0.778208 -2.78214,-1.219187 l -0.57069,0.907904 c 0.34373,0.311283 0.7004,0.590146 1.10896,0.784714 0.50585,0.259408 1.21922,0.48638 2.24387,0.48638 2.36059,0 3.24258,-1.368354 3.24258,-2.393021 0,-1.627778 -1.02467,-2.211434 -2.19847,-2.600538 m 35.90825,4.779552 1.25162,0 0,-3.754901 3.85867,0 0,-0.97925 -3.85867,0 0,-2.717285 4.11807,0 0,-0.992231 -5.36969,0 z m -90.688271,-3.527929 1.705583,0 0,2.276306 c -0.635531,0.376139 -1.199732,0.505819 -2.049302,0.505819 -1.498066,0 -2.587573,-1.40079 -2.587573,-3.547368 0,-2.101177 0.992231,-3.566823 2.639464,-3.566823 1.199732,0 1.900135,0.700387 2.295729,1.193273 l 0.564201,-0.91441 c -0.402069,-0.440995 -1.297024,-1.238674 -2.85993,-1.238674 -1.887186,0 -3.936503,1.582393 -3.936503,4.526634 0,2.76916 1.595357,4.507179 3.884612,4.507179 1.38781,0 2.444896,-0.376123 3.242575,-0.817134 l 0,-3.871616 -2.898856,0 z m 63.710061,2.782125 c -1.49808,0 -2.58108,-1.511015 -2.58108,-3.644644 0,-2.068757 1.05058,-3.469547 2.56812,-3.469547 1.2192,0 1.85473,0.784698 2.19198,1.225693 l 0.57069,-0.927391 c -0.3567,-0.460434 -1.21922,-1.258113 -2.78213,-1.258113 -2.25683,0 -3.85219,2.003917 -3.85219,4.429358 0,2.470842 1.25164,4.604455 3.87165,4.604455 1.38133,0 2.09469,-0.42154 2.92479,-1.251639 l -0.55124,-0.894939 c -0.58366,0.713368 -1.27108,1.186767 -2.36059,1.186767 m 11.75109,-4.150479 -4.40991,0 0,-3.547384 -1.25162,0 0,8.443667 1.25162,0 0,-3.871632 4.40991,0 0,3.871632 1.2646,0 0,-8.443667 -1.2646,0 z m -31.53077,-3.547384 -1.25813,0 0,8.443667 5.55129,0 0,-1.005196 -4.29316,0 z m -86.408091,0 -1.582362,0 -3.64466,3.936488 4.020799,4.507179 1.660198,0 -4.234806,-4.572019 z m -6.524061,8.443667 1.251639,0 0,-8.443667 -1.251639,0 z m -8.463091,-3.073953 1.413755,-4.260752 1.452666,4.260752 z m 0.680917,-5.369714 -3.054483,8.443667 1.3489,0 0.713367,-2.114158 3.469548,0 0.713368,2.114158 1.465645,0 -3.073953,-8.443667 z m 16.627925,1.011686 2.911821,0 0,7.431981 1.258129,0 0,-7.431981 2.911822,0 0,-1.011686 -7.081772,0 z m 10.395693,7.431981 1.271078,0 0,-8.443667 -1.271078,0 z m 20.681129,-1.199748 -3.904052,-7.243919 -1.770455,0 0,8.443667 1.147873,0 0,-7.256868 3.910527,7.256868 1.770454,0 0,-8.443667 -1.154347,0 z m -13.683669,-2.717269 3.923508,0 0,-0.959811 -3.923508,0 0,-2.574608 4.247771,0 0,-0.992231 -5.499409,0 0,8.443667 5.642086,0 0,-0.992216 -4.390448,0 z"
     id="path577"
     inkscape:connector-curvature="0" />
  <path
     style="clip-rule:nonzero;fill:#8c969b;fill-opacity:1;fill-rule:nonzero;stroke:none"
     d="m 190.71096,21.974107 8.48905,0 0,-21.17399949 -8.48905,0 z m -71.21337,-19.9288505 -3.57979,9.6174695 -0.35021,0 -3.81326,-9.6174695 c -0.3502,-0.94034 -0.7847,-1.24514899 -1.99743,-1.24514899 l -10.53188,0 0,21.17399949 7.74326,0 0,-12.8211337 0.38912,0 4.94816,11.6084057 c 0.35669,0.875499 0.74579,1.212728 1.77044,1.212728 l 2.82754,0 c 1.01816,0 1.37483,-0.304793 1.76395,-1.212728 l 4.94816,-11.6084057 0.39561,0 0,12.8211337 7.97023,0 0,-21.17399949 -10.48647,0 c -1.21273,0 -1.64724,0.30480899 -1.99743,1.24514899 m -43.165118,12.4255395 5.888499,0 0,0.155548 c 0,1.511031 -0.551236,2.081722 -0.823609,2.295729 -0.233463,0.181603 -0.667983,0.239953 -1.770439,0.239953 l -3.728955,0 c -1.219219,0 -1.569428,-0.05835 -1.809365,-0.239953 -0.350194,-0.272373 -0.862535,-1.271078 -0.862535,-5.531814 0,-4.2672262 0.512341,-5.2010915 0.862535,-5.4734795 0.239937,-0.181572 0.590146,-0.246428 1.809365,-0.246428 l 3.534387,0 c 1.180309,0 1.530502,0.0908 1.731544,0.246428 0.272373,0.207532 0.784699,0.45396 0.823625,2.1465933 l 8.086967,0 C 89.957791,4.4641135 89.134136,2.9206625 87.759291,1.8895055 86.702204,1.1048225 85.048512,0.79999851 82.104239,0.79999851 l -9.150528,0 c -2.866436,0 -4.364518,0.39559399 -5.421589,1.21272899 -1.608323,1.212728 -2.983168,3.540893 -2.983168,9.3775315 0,5.836607 1.374845,8.164788 2.983168,9.371026 1.057071,0.817134 2.555153,1.212728 5.421589,1.212728 l 9.111618,0 c 2.555137,0 4.358012,-0.363174 5.49941,-1.238658 1.530502,-1.180308 2.749689,-2.963728 2.749689,-8.074018 l 0,-2.574608 -13.981956,0 z M 178.55132,9.9052515 c -0.23348,0.1815715 -0.66798,0.2399525 -2.19847,0.2399525 l -4.55258,0 0,-4.5331245 4.55258,0 c 1.53049,0 1.9261,0.05851 2.19847,0.239953 0.39559,0.272373 0.62904,0.758753 0.62904,1.9974267 0,1.2386582 -0.19454,1.7509837 -0.62904,2.0557923 m 9.50721,-3.0869336 c 0,-2.9312764 -0.59014,-3.9883634 -1.80935,-4.9287184 -1.05707,-0.817103 -2.59405,-1.08949199 -5.33728,-1.08949199 l -17.56176,0 0,21.17399949 8.45013,0 0,-7.256868 4.12457,0 c 1.72503,0 2.07524,0.1167 2.47084,0.389104 0.4345,0.304793 0.66796,0.609601 0.74579,2.178998 0.0779,1.81584 0.0195,3.145299 0.0195,4.688766 l 8.67713,0 c 0,0 0.0259,-3.203665 -0.0585,-5.265947 -0.1167,-3.054498 -1.68613,-3.748411 -4.43583,-4.2283 l 0,-0.0649 c 3.18421,-0.479921 4.71469,-1.660198 4.71469,-5.5966862 m -36.83562,9.9806272 c -0.23346,0.181603 -0.62907,0.246443 -1.80935,0.246443 l -3.49549,0 c -1.17382,0 -1.5694,-0.0649 -1.80288,-0.246443 -0.27886,-0.207517 -0.74579,-0.752262 -0.74579,-5.408592 0,-4.6304005 0.46693,-5.2010915 0.74579,-5.4150985 0.23348,-0.181587 0.62906,-0.239953 1.80288,-0.239953 l 3.49549,0 c 1.18028,0 1.57589,0.05851 1.80935,0.239953 0.27237,0.214007 0.74579,0.784698 0.74579,5.4150985 0,4.623909 -0.47342,5.201075 -0.74579,5.408592 M 157.66259,2.0127735 C 156.60552,1.1956395 155.11393,0.80004551 152.241,0.80004551 l -9.15053,0 c -2.86643,0 -4.35803,0.39559399 -5.4151,1.21272799 -1.61479,1.212729 -2.98965,3.540894 -2.98965,9.3775325 0,5.836622 1.37486,8.164787 2.98965,9.371025 1.05707,0.817135 2.54867,1.212729 5.4151,1.212729 l 9.15053,0 c 2.87293,0 4.36452,-0.395594 5.42159,-1.212729 1.6148,-1.206238 2.98966,-3.534403 2.98966,-9.371025 0,-5.8366385 -1.37486,-8.1648035 -2.98966,-9.3775325 m -108.314894,0.03245 -3.573298,9.6174685 -0.356699,0 -3.806776,-9.6174685 C 41.254229,1.1048855 40.826215,0.80007651 39.606996,0.80007651 l -10.525373,0 0,21.17401449 7.736758,0 0,-12.8211489 0.389119,0 4.954649,11.6084209 c 0.350193,0.875484 0.745788,1.212728 1.763948,1.212728 l 2.827542,0 c 1.024651,0 1.374844,-0.304808 1.770439,-1.212728 l 4.948158,-11.6084209 0.38912,0 0,12.8211489 7.976726,0 0,-21.17401449 -10.486479,0 c -1.219203,0 -1.647233,0.30480899 -2.003917,1.24514899 M 16.746962,16.682245 c -0.466925,0.363159 -1.180292,0.51231 -3.060988,0.51231 l -4.4423229,0 0,-11.6148795 4.4423229,0 c 1.926096,0 2.594063,0.123096 3.060988,0.48638 0.512326,0.421524 0.745804,1.3294594 0.745804,5.3243125 0,3.988348 -0.272373,4.928703 -0.745804,5.291877 M 23.387754,2.5900175 C 21.734047,1.3189235 19.341026,0.80010751 14.983014,0.80010751 l -14.18301395,0 0,21.17401549 14.18301395,0 c 4.358012,0 6.751033,-0.486396 8.40474,-1.757474 1.887186,-1.446191 2.788616,-3.534404 2.788616,-8.826281 0,-5.2918925 -0.90143,-7.3541595 -2.788616,-8.8003505"
     id="path579"
     inkscape:connector-curvature="0"
     sodipodi:nodetypes="cccccccccsccccccssccccccscccscsscscssccccsscscsscsccccsccscscccsccccscccccccccsscscsscsccsscscsscscccccsccccccssccccccsccsccscsccsccscsc" />
</svg>
