<?xml version="1.0" encoding="UTF-8"?>
<svg version="1.1" xmlns="http://www.w3.org/2000/svg" width="324" height="156">
<path d="M0 0 C106.92 0 213.84 0 324 0 C324 51.48 324 102.96 324 156 C217.08 156 110.16 156 0 156 C0 104.52 0 53.04 0 0 Z " fill="#FCFBFB" transform="translate(0,0)"/>
<path d="M0 0 C0.94037109 0.00410889 1.88074219 0.00821777 2.84960938 0.01245117 C3.87183594 0.01438477 4.8940625 0.01631836 5.94726562 0.01831055 C7.01847656 0.03055664 8.0896875 0.04280273 9.19335938 0.05541992 C10.26457031 0.05606445 11.33578125 0.05670898 12.43945312 0.05737305 C20.4127571 0.10261878 20.4127571 0.10261878 22.69335938 1.24291992 C21.94335938 5.99291992 21.94335938 5.99291992 19.69335938 8.24291992 C17.81396484 8.4699707 17.81396484 8.4699707 15.56054688 8.43823242 C14.35205078 8.42856445 14.35205078 8.42856445 13.11914062 8.41870117 C12.27738281 8.40194336 11.435625 8.38518555 10.56835938 8.36791992 C9.29412109 8.35438477 9.29412109 8.35438477 7.99414062 8.34057617 C5.89376054 8.3169764 3.79352493 8.28110475 1.69335938 8.24291992 C1.56058594 8.98928711 1.4278125 9.7356543 1.29101562 10.50463867 C0.52179323 14.02898441 -0.8256331 16.95894671 -2.30664062 20.24291992 C-0.60507813 20.21198242 -0.60507813 20.21198242 1.13085938 20.18041992 C4.69335938 20.24291992 4.69335938 20.24291992 5.69335938 21.24291992 C5.94335938 23.68041992 5.94335938 23.68041992 5.69335938 26.24291992 C2.4895592 28.3787867 1.6739597 28.47424167 -1.99414062 28.36791992 C-2.80238281 28.34987305 -3.610625 28.33182617 -4.44335938 28.31323242 C-5.05824219 28.2900293 -5.673125 28.26682617 -6.30664062 28.24291992 C-6.48839844 28.88358398 -6.67015625 29.52424805 -6.85742188 30.18432617 C-7.23447266 31.48176758 -7.23447266 31.48176758 -7.61914062 32.80541992 C-7.86277344 33.65233398 -8.10640625 34.49924805 -8.35742188 35.37182617 C-9.48040162 38.76849329 -10.86247581 41.97028873 -12.30664062 45.24291992 C-11.17850952 45.28050415 -11.17850952 45.28050415 -10.02758789 45.31884766 C-6.64124867 45.43442506 -3.25521449 45.55732337 0.13085938 45.68041992 C1.90686523 45.73939453 1.90686523 45.73939453 3.71875 45.79956055 C5.40581055 45.86240234 5.40581055 45.86240234 7.12695312 45.92651367 C8.69014282 45.98150024 8.69014282 45.98150024 10.28491211 46.03759766 C12.69335938 46.24291992 12.69335938 46.24291992 13.69335938 47.24291992 C13.88085938 49.68041992 13.88085938 49.68041992 13.69335938 52.24291992 C11.69335938 54.24291992 11.69335938 54.24291992 8.9753418 54.41894531 C7.84459229 54.3930835 6.71384277 54.36722168 5.54882812 54.34057617 C4.31455078 54.33864258 3.08027344 54.33670898 1.80859375 54.3347168 C-0.79852598 54.31527035 -3.40559214 54.26862728 -6.01171875 54.1940918 C-9.64513234 54.21489739 -12.79149449 54.3121028 -16.30664062 55.24291992 C-18.39263853 57.40224739 -19.35686617 59.22581157 -20.41870117 62.02026367 C-22.13362995 66.31300814 -25.68881955 68.32469715 -29.61914062 70.55541992 C-35.15031702 71.97037202 -39.63613635 72.12373127 -44.74414062 69.43041992 C-47.42052989 67.14569738 -49.09835752 65.51673553 -49.67773438 61.97338867 C-49.8791539 54.2602057 -49.8791539 54.2602057 -47.05664062 50.74291992 C-43.44625886 47.46075468 -40.85119269 46.03768644 -35.97851562 45.82885742 C-35.25760742 45.79324707 -34.53669922 45.75763672 -33.79394531 45.72094727 C-32.89063477 45.68694824 -31.98732422 45.65294922 -31.05664062 45.61791992 C-28.16914063 45.49416992 -25.28164063 45.37041992 -22.30664062 45.24291992 C-19.99664062 39.63291992 -17.68664062 34.02291992 -15.30664062 28.24291992 C-16.62664063 27.91291992 -17.94664063 27.58291992 -19.30664062 27.24291992 C-19.43164062 24.86791992 -19.43164062 24.86791992 -19.30664062 22.24291992 C-17.30664062 20.24291992 -17.30664062 20.24291992 -14.18164062 20.11791992 C-13.23289063 20.15916992 -12.28414062 20.20041992 -11.30664062 20.24291992 C-11.13648438 19.61385742 -10.96632812 18.98479492 -10.79101562 18.33666992 C-5.7713972 0.60780485 -5.7713972 0.60780485 0 0 Z " fill="#8A1C28" transform="translate(55.306640625,43.757080078125)"/>
<path d="M0 0 C0.66 1.98 1.32 3.96 2 6 C2.9075 5.87625 3.815 5.7525 4.75 5.625 C8 6 8 6 10.375 8.375 C12.48841681 13.08954519 12.70109636 16.91086524 12 22 C9.84782609 27.57608696 9.84782609 27.57608696 7 29 C5.00039988 29.039992 2.99952758 29.04346799 1 29 C0.87625 29.804375 0.7525 30.60875 0.625 31.4375 C0.315625 32.7059375 0.315625 32.7059375 0 34 C-2.98997825 35.49498913 -5.70042775 35.11577446 -9 35 C-9.99 34.67 -10.98 34.34 -12 34 C-12 33.34 -12 32.68 -12 32 C-12.86625 31.9071875 -12.86625 31.9071875 -13.75 31.8125 C-16.95743327 30.65426021 -18.11932004 28.78859442 -20 26 C-20.875 23.875 -20.875 23.875 -21 22 C-20.01 20.515 -20.01 20.515 -19 19 C-19.34333565 16.87131895 -19.95610172 15.10130373 -20.8125 13.125 C-21.06074438 10.3115637 -20.01294818 8.80718619 -18.3515625 6.59765625 C-17.90554687 6.07042969 -17.45953125 5.54320312 -17 5 C-16.51273437 4.42121094 -16.02546875 3.84242187 -15.5234375 3.24609375 C-10.6233509 -1.75849707 -6.60967353 -1.46290561 0 0 Z " fill="#F8F6F5" transform="translate(133,58)"/>
<path d="M0 0 C1.57833155 1.18757956 3.1417532 2.39530796 4.6875 3.625 C5.39648438 4.17027344 6.10546875 4.71554688 6.8359375 5.27734375 C13.87060382 11.00480196 20.11440263 18.8461972 22.6875 27.625 C23.68673016 38.40542678 23.68673016 38.40542678 21.1640625 41.484375 C20.67679687 41.86078125 20.18953125 42.2371875 19.6875 42.625 C19.43097656 41.89796875 19.17445313 41.1709375 18.91015625 40.421875 C11.96100829 22.17158743 -1.18089576 10.14251688 -18.3125 1.625 C-24.48385335 -1.03112526 -30.76825214 -2.8932835 -37.3125 -4.375 C-28.50188854 -15.04047703 -8.88245165 -6.0351627 0 0 Z " fill="#851D28" transform="translate(263.3125,18.375)"/>
<path d="M0 0 C3.75108765 3.99051877 3.52814298 7.73898143 3.48266602 13.00854492 C2.96910695 27.41759453 -6.43203834 39.09455241 -16.375 48.734375 C-22.96824317 54.42497178 -30.66112336 59.29952087 -39.5625 59.25 C-40.49191406 59.25515625 -41.42132813 59.2603125 -42.37890625 59.265625 C-45.0554462 58.99438101 -46.70438282 58.36116595 -49 57 C-49 56.34 -49 55.68 -49 55 C-48.32195312 54.78085938 -47.64390625 54.56171875 -46.9453125 54.3359375 C-27.82304081 47.82059285 -15.89502486 35.58911174 -6.6875 17.9375 C-3.90642313 12.13519756 -1.85492459 6.1539851 0 0 Z " fill="#C1283D" transform="translate(310,59)"/>
<path d="M0 0 C1.08216797 -0.02900391 2.16433594 -0.05800781 3.27929688 -0.08789062 C13.38564525 -0.16670438 21.92718691 1.98067608 29.6953125 8.65234375 C31.29545209 10.79089509 31.57449021 12.69617333 31.9375 15.3125 C31.01130859 15.02246094 31.01130859 15.02246094 30.06640625 14.7265625 C27.36393816 13.89566668 24.65295173 13.09986578 21.9375 12.3125 C21.24269531 12.09980469 20.54789063 11.88710938 19.83203125 11.66796875 C2.60748275 7.0369973 -17.17927528 10.89129561 -32.546875 19.1953125 C-35.41488328 20.85821871 -38.25163391 22.55507562 -41.0625 24.3125 C-42.0625 21.3125 -42.0625 21.3125 -41.3828125 19.515625 C-35.11647181 9.27650622 -25.55454472 4.14032246 -14.23583984 0.76831055 C-9.57515012 -0.20916729 -4.74360377 0.0413446 0 0 Z " fill="#851D28" transform="translate(228.0625,22.6875)"/>
<path d="M0 0 C-1.93121695 7.37373745 -5.51458244 11.26944069 -11.8125 15.1875 C-21.61610912 20.75210428 -30.60301603 22.18974603 -41.75 22.25 C-43.15765625 22.2809375 -43.15765625 22.2809375 -44.59375 22.3125 C-54.93408686 22.36962893 -64.0980099 19.91840905 -72 13 C-75 8.27272727 -75 8.27272727 -75 5 C-74.14664063 5.28746094 -73.29328125 5.57492188 -72.4140625 5.87109375 C-69.07855537 6.9740246 -65.73247214 8.02852439 -62.375 9.0625 C-61.26898438 9.40410156 -60.16296875 9.74570313 -59.0234375 10.09765625 C-57.52683594 10.54431641 -57.52683594 10.54431641 -56 11 C-55.05833984 11.29970703 -55.05833984 11.29970703 -54.09765625 11.60546875 C-33.30974232 15.51529986 -17.74389134 0 0 0 Z " fill="#C1273C" transform="translate(305,110)"/>
<path d="M0 0 C4.79895108 0.42343686 7.7720826 2.59275386 11 6 C21.22285108 18.49787863 21.25386018 34.68779235 20 50 C18.824676 59.44952337 15.37473576 66.83518182 8 73 C5.2990687 74.61646646 4.21463613 75 1 75 C2.02192374 72.39787935 3.07777627 69.82600051 4.21875 67.2734375 C12.49477979 48.55144327 11.60658324 29.91220926 4.9140625 10.91796875 C3.45667574 7.1758817 1.82136743 3.57826168 0 0 Z " fill="#841C27" transform="translate(280,20)"/>
<path d="M0 0 C0.66 0 1.32 0 2 0 C2.20753906 0.66644531 2.41507813 1.33289063 2.62890625 2.01953125 C8.69686722 20.17263623 20.77207607 32.90874181 37.41015625 41.828125 C43.53198315 44.77805796 49.30074654 46.86453331 56 48 C56 48.66 56 49.32 56 50 C48.20508321 53.28207023 40.38733709 52.69322627 32.5 50.03125 C17.45205247 43.82397164 5.48468143 31.77783975 -1 17 C-2.66550691 12.00347926 -2.63421165 6.94227317 -1 1.9375 C-0.67 1.298125 -0.34 0.65875 0 0 Z " fill="#C1283D" transform="translate(207,93)"/>
<path d="M0 0 C0.53625 0.33 1.0725 0.66 1.625 1 C1.955 0.67 2.285 0.34 2.625 0 C4.29117115 -0.04063832 5.95888095 -0.042721 7.625 0 C9.08633311 4.64651427 8.01760421 7.39346788 6.1875 11.8125 C5.71441406 12.97394531 5.24132812 14.13539062 4.75390625 15.33203125 C4.38136719 16.21246094 4.00882813 17.09289062 3.625 18 C5.605 18 7.585 18 9.625 18 C10.25 20.375 10.25 20.375 10.625 23 C8.625 25 8.625 25 6.3125 25.23046875 C5.425625 25.21628906 4.53875 25.20210937 3.625 25.1875 C2.2946875 25.17783203 2.2946875 25.17783203 0.9375 25.16796875 C-1.375 25 -1.375 25 -3.375 24 C-4.035 24.33 -4.695 24.66 -5.375 25 C-8.4578553 25.47847852 -11.29847221 25.5463489 -14.375 25 C-18.35859192 21.74808823 -19.15301426 20.23101186 -20.0625 15.1875 C-19.71587567 9.88618671 -16.74006211 5.93256665 -13.375 2 C-9.17313743 -1.46653662 -5.08461248 -2.14088947 0 0 Z " fill="#8B1D29" transform="translate(165.375,64)"/>
<path d="M0 0 C0.78375 0.04125 1.5675 0.0825 2.375 0.125 C3.95094735 4.89294249 2.5197708 8.21036251 0.62890625 12.61328125 C0.33894272 13.31647995 0.04897919 14.01967865 -0.24977112 14.7441864 C-1.17521597 16.98056543 -2.11850978 19.20889462 -3.0625 21.4375 C-3.69455299 22.9558839 -4.32542616 24.47475949 -4.95507812 25.99414062 C-6.49810567 29.71026335 -8.05718017 33.41927282 -9.625 37.125 C-7.315 37.785 -5.005 38.445 -2.625 39.125 C-3 41.5625 -3 41.5625 -3.625 44.125 C-6.20508592 45.41504296 -8.18241574 45.32910224 -11.0625 45.375 C-12.03058594 45.40078125 -12.99867187 45.4265625 -13.99609375 45.453125 C-16.625 45.125 -16.625 45.125 -18.53515625 43.984375 C-20.20138364 41.1416358 -19.34082961 39.30422014 -18.625 36.125 C-17.7080096 33.42545282 -16.6328307 30.80239384 -15.53515625 28.171875 C-15.23056992 27.4304425 -14.92598358 26.68901001 -14.61216736 25.92510986 C-13.97048477 24.36743433 -13.32569902 22.81103389 -12.67797852 21.25585938 C-11.6862276 18.87194147 -10.7067294 16.48324987 -9.72851562 14.09375 C-9.10228419 12.57782667 -8.47535533 11.06219121 -7.84765625 9.546875 C-7.55488297 8.8323114 -7.26210968 8.1177478 -6.96046448 7.38153076 C-3.94774239 0.18798773 -3.94774239 0.18798773 0 0 Z " fill="#8A1C29" transform="translate(87.625,43.875)"/>
<path d="M0 0 C0.20086443 3.71599191 0.1519437 4.77208445 -2 8 C0.475 8.495 0.475 8.495 3 9 C2.125 13.875 2.125 13.875 1 15 C-0.99958364 15.04080783 -3.00045254 15.04254356 -5 15 C-5.20496094 15.62648438 -5.40992188 16.25296875 -5.62109375 16.8984375 C-5.89050781 17.71570313 -6.15992188 18.53296875 -6.4375 19.375 C-6.70433594 20.18710938 -6.97117188 20.99921875 -7.24609375 21.8359375 C-8 24 -8 24 -9 26 C-6.69 26 -4.38 26 -2 26 C-1.67 27.65 -1.34 29.3 -1 31 C-4.35197843 33.23465229 -5.57791246 33.27108649 -9.5 33.25 C-10.93859375 33.25773437 -10.93859375 33.25773437 -12.40625 33.265625 C-15 33 -15 33 -18 31 C-17.49228528 25.03435204 -15.61407872 20.36190101 -13 15 C-14.32 14.67 -15.64 14.34 -17 14 C-16.67 12.35 -16.34 10.7 -16 9 C-15.071875 8.814375 -14.14375 8.62875 -13.1875 8.4375 C-9.65391504 7.25111631 -9.65391504 7.25111631 -8.25 3.4375 C-7.8375 2.303125 -7.425 1.16875 -7 0 C-4.3333581 -1.33332095 -2.83319697 -0.67102033 0 0 Z " fill="#8A1D29" transform="translate(196,56)"/>
<path d="M0 0 C2.12397945 1.57524534 2.89857183 2.37935618 3.328125 5.0078125 C3.11111111 10.88888889 3.11111111 10.88888889 2 12 C0.33382885 12.04063832 -1.33388095 12.042721 -3 12 C-3.66 10.35 -4.32 8.7 -5 7 C-6.94074861 7.27617533 -6.94074861 7.27617533 -9 8 C-11.5547002 11.23112508 -11.5547002 11.23112508 -11 17 C-6.05 17.33 -1.1 17.66 4 18 C5 22 5 22 4.0234375 23.72265625 C0.93187225 25.67428142 -1.75678634 25.43394576 -5.375 25.4375 C-6.68210937 25.45683594 -7.98921875 25.47617188 -9.3359375 25.49609375 C-13.47695611 24.93542279 -15.08806593 23.92829325 -18 21 C-19.857304 17.285392 -19.44282906 13.05406882 -19 9 C-15.05726174 0.81123592 -8.74522994 -2.781816 0 0 Z " fill="#8A1C29" transform="translate(106,64)"/>
<path d="M0 0 C2.125 0.375 2.125 0.375 4 1 C4.14695313 1.87011719 4.14695313 1.87011719 4.296875 2.7578125 C5.0775556 6.83619561 5.72045253 9.59712276 8.125 13.0625 C10.75252273 17.17895227 10.69059386 19.16584296 10 24 C7.46546343 27.21954645 5.88702695 28.70432435 2 30 C-0.03992808 30.09398043 -2.08291414 30.12992069 -4.125 30.125 C-5.20007813 30.12757812 -6.27515625 30.13015625 -7.3828125 30.1328125 C-10 30 -10 30 -11 29 C-11.04063832 27.33382885 -11.042721 25.66611905 -11 24 C-8.43106162 22.71553081 -6.23423663 22.67022856 -3.375 22.4375 C-1.87066406 22.31181641 -1.87066406 22.31181641 -0.3359375 22.18359375 C0.82035156 22.09271484 0.82035156 22.09271484 2 22 C1.67 19.36 1.34 16.72 1 14 C0.34 14 -0.32 14 -1 14 C-1.33 15.32 -1.66 16.64 -2 18 C-3.65 18 -5.3 18 -7 18 C-8.01228554 14.78760254 -8.14045262 13.34657762 -6.85546875 10.17578125 C-6.02982422 8.75845703 -6.02982422 8.75845703 -5.1875 7.3125 C-4.64480469 6.35988281 -4.10210937 5.40726562 -3.54296875 4.42578125 C-2 2 -2 2 0 0 Z " fill="#8A1C28" transform="translate(209,59)"/>
<path d="M0 0 C0.66 0 1.32 0 2 0 C2 2.31 2 4.62 2 7 C2.66 7 3.32 7 4 7 C4.33 5.68 4.66 4.36 5 3 C5 4.32 5 5.64 5 7 C8.76300374 8.25433458 12.27210909 8.10695422 16.1875 8.0625 C16.93708984 8.05798828 17.68667969 8.05347656 18.45898438 8.04882812 C20.30602383 8.03706354 22.15302213 8.01912865 24 8 C24 6.02 24 4.04 24 2 C25.32 2 26.64 2 28 2 C28.33 1.34 28.66 0.68 29 0 C29.66 0 30.32 0 31 0 C31 2.64 31 5.28 31 8 C36.61 8.33 42.22 8.66 48 9 C48 9.33 48 9.66 48 10 C7.08 10 -33.84 10 -76 10 C-76 9.67 -76 9.34 -76 9 C-55.21 9 -34.42 9 -13 9 C-13 6.69 -13 4.38 -13 2 C-8.66666667 2 -4.33333333 2 0 2 C0 1.34 0 0.68 0 0 Z " fill="#A6A5A5" transform="translate(151,99)"/>
<path d="M0 0 C3.75102891 3.99045628 3.51405883 7.72429147 3.49145508 12.9909668 C3.27849315 19.54370239 1.40384078 25.37167736 -2 31 C-5.35327639 33.23551759 -5.90743657 33.17283528 -9.6875 32.625 C-10.49574219 32.51414063 -11.30398438 32.40328125 -12.13671875 32.2890625 C-12.75160156 32.19367188 -13.36648438 32.09828125 -14 32 C-12.73914223 28.598063 -11.26304744 25.75874832 -9.25 22.75 C-4.89683267 15.69486674 -2.5630155 7.83446581 0 0 Z " fill="#851B26" transform="translate(310,59)"/>
<path d="M0 0 C0.33 0 0.66 0 1 0 C1.33 2.97 1.66 5.94 2 9 C2.66 9 3.32 9 4 9 C4.28875 9.78375 4.5775 10.5675 4.875 11.375 C5.84912254 14.09671632 5.84912254 14.09671632 8 16 C3.84600938 27.26370535 -2.02097778 37.0236 -10 46 C-10.66 45.34 -11.32 44.68 -12 44 C-12 40.26089864 -10.70157482 38.58293957 -8.1875 36.0625 C0.25158407 26.60910294 -0.27101154 11.95160883 0 0 Z " fill="#DFD6D7" transform="translate(300,52)"/>
<path d="M0 0 C6.02957181 0.35468069 7.87908275 1.78096568 12 6 C19.60580168 10.22080203 26.76330416 11.15089704 35.3125 11.5625 C36.14845703 11.60568359 36.98441406 11.64886719 37.84570312 11.69335938 C39.89696935 11.79885307 41.9484648 11.89987315 44 12 C44 12.33 44 12.66 44 13 C41.69 13 39.38 13 37 13 C37 13.66 37 14.32 37 15 C28.29160305 19.1648855 28.29160305 19.1648855 24.0625 18.625 C23.051875 18.08875 22.04125 17.5525 21 17 C20.20078125 16.61457031 19.4015625 16.22914063 18.578125 15.83203125 C11.25342816 12.13864598 5.16998532 7.37039341 -1 2 C-0.67 1.34 -0.34 0.68 0 0 Z " fill="#E6DDDE" transform="translate(226,120)"/>
<path d="M0 0 C0.66 0.33 1.32 0.66 2 1 C1.690625 2.175625 1.690625 2.175625 1.375 3.375 C1.25125 4.24125 1.1275 5.1075 1 6 C1.66 6.66 2.32 7.32 3 8 C2.63723355 10.82957829 1.90305236 13.29084291 1 16 C1.38932856 18.14255793 1.38932856 18.14255793 2 20 C1.34 20 0.68 20 0 20 C0 19.01 0 18.02 0 17 C-1.04800781 16.96261719 -2.09601563 16.92523438 -3.17578125 16.88671875 C-4.55472305 16.82105485 -5.93362771 16.75460765 -7.3125 16.6875 C-8.00279297 16.66494141 -8.69308594 16.64238281 -9.40429688 16.61914062 C-12.35102801 16.46255105 -14.5150247 16.33062167 -16.98828125 14.64453125 C-18 13 -18 13 -17.875 10 C-16.60302457 5.6389414 -16.60302457 5.6389414 -14 4 C-11.8125 4.3125 -11.8125 4.3125 -10 5 C-9.67 6.32 -9.34 7.64 -9 9 C-7.35 9 -5.7 9 -4 9 C-3.896875 7.88625 -3.79375 6.7725 -3.6875 5.625 C-3.460625 4.42875 -3.23375 3.2325 -3 2 C-2.01 1.34 -1.02 0.68 0 0 Z " fill="#F3EFEF" transform="translate(112,66)"/>
<path d="M0 0 C0.66 0.66 1.32 1.32 2 2 C1.625 5.125 1.625 5.125 1 8 C1.66 8.33 2.32 8.66 3 9 C-12.08555634 15.0190802 -24.76064592 17.34268274 -41 17 C-41 16.67 -41 16.34 -41 16 C-38.36 16 -35.72 16 -33 16 C-33 15.34 -33 14.68 -33 14 C-32.01 14 -31.02 14 -30 14 C-29.67 13.01 -29.34 12.02 -29 11 C-28.34515625 11.06960937 -27.6903125 11.13921875 -27.015625 11.2109375 C-17.31848904 11.78619133 -9.69585493 8.23936087 -2.25 2.125 C-1.5075 1.42375 -0.765 0.7225 0 0 Z " fill="#E6DBDC" transform="translate(294,106)"/>
<path d="M0 0 C6.29643588 3.28509698 11.83815858 7.15723558 17.28515625 11.703125 C16.95515625 12.363125 16.62515625 13.023125 16.28515625 13.703125 C9.87532018 12.19492828 9.87532018 12.19492828 7.03515625 9.828125 C-2.73234323 2.28051176 -14.95066816 2.93356918 -26.71484375 2.703125 C-26.71484375 2.373125 -26.71484375 2.043125 -26.71484375 1.703125 C-26.08835938 1.66574219 -25.461875 1.62835937 -24.81640625 1.58984375 C-23.59050781 1.49123047 -23.59050781 1.49123047 -22.33984375 1.390625 C-21.12167969 1.30361328 -21.12167969 1.30361328 -19.87890625 1.21484375 C-17.33563037 0.87321972 -17.33563037 0.87321972 -15.71484375 -2.296875 C-10.30575899 -5.91045981 -5.32457443 -2.54353771 0 0 Z " fill="#DED4D5" transform="translate(247.71484375,20.296875)"/>
<path d="M0 0 C2.00720923 0.28674418 4.0085944 0.61866701 6 1 C6.65077296 3.04009755 7.29539824 5.08215669 7.9375 7.125 C8.29714844 8.26195312 8.65679687 9.39890625 9.02734375 10.5703125 C10.78648812 16.77323922 11.1329596 22.4794364 11.0625 28.875 C11.05798828 29.65875 11.05347656 30.4425 11.04882812 31.25 C11.03714093 33.16670014 11.01920908 35.08336048 11 37 C10.67 37 10.34 37 10 37 C9.79503906 36.36191406 9.59007812 35.72382812 9.37890625 35.06640625 C9.10949219 34.24011719 8.84007812 33.41382813 8.5625 32.5625 C8.29566406 31.73878906 8.02882813 30.91507813 7.75390625 30.06640625 C7.17844506 28.03780412 7.17844506 28.03780412 6 27 C5.91878076 25.39667209 5.86070866 23.79215974 5.8125 22.1875 C5.35475312 16.14997647 3.20479684 11.76622493 0.27734375 6.53125 C-1 4 -1 4 -1 1 C-0.67 0.67 -0.34 0.34 0 0 Z " fill="#E0D8D9" transform="translate(280,30)"/>
<path d="M0 0 C3.75 -0.375 3.75 -0.375 7 0 C6.69029053 3.40680413 6.31233339 5.56041967 4.3125 8.375 C1.37550387 10.43883512 -0.48612204 10.31944345 -4 10 C-4.12375 10.804375 -4.2475 11.60875 -4.375 12.4375 C-4.58125 13.283125 -4.7875 14.12875 -5 15 C-7.95664519 16.4783226 -10.74229737 16.06032783 -14 16 C-14.66 14.68 -15.32 13.36 -16 12 C-15.0625 10.125 -15.0625 10.125 -13 8 C-10.9375 7.5 -10.9375 7.5 -8.5625 7.125 C-6.15716015 6.76715973 -6.15716015 6.76715973 -4 6 C-2.64837492 4.01231606 -1.31306433 2.0133653 0 0 Z " fill="#8A0B0C" transform="translate(138,77)"/>
<path d="M0 0 C0.66 0 1.32 0 2 0 C3.37494222 2.26461071 4.07991957 3.45654694 3.6875 6.125 C3 8 3 8 2 10 C1.51232706 14.90437189 1.51232706 14.90437189 3.625 19.125 C4.07875 19.74375 4.5325 20.3625 5 21 C4.1875 23.75 4.1875 23.75 3 26 C1.68 26 0.36 26 -1 26 C-3.375 23.3125 -3.375 23.3125 -5 20 C-4.1875 17.375 -4.1875 17.375 -3 15 C-3.32789834 12.83587093 -3.94410597 11.12898622 -4.8125 9.125 C-5.11973018 5.64305799 -3.02736104 3.68327196 -1 1 C-0.67 0.67 -0.34 0.34 0 0 Z " fill="#CE740C" transform="translate(117,62)"/>
<path d="M0 0 C1.6875 2.5 1.6875 2.5 3 5 C3.969375 4.979375 4.93875 4.95875 5.9375 4.9375 C7.4534375 4.9684375 7.4534375 4.9684375 9 5 C12.09739568 8.58645816 13 10.21087115 13 15 C9.75 15.375 9.75 15.375 6 15 C5.1028125 13.576875 5.1028125 13.576875 4.1875 12.125 C2.38058251 8.83116495 2.38058251 8.83116495 -0.359375 8.3671875 C-1.69742188 8.18542969 -1.69742188 8.18542969 -3.0625 8 C-5.71484375 7.6328125 -5.71484375 7.6328125 -8 7 C-10.125 3.875 -10.125 3.875 -11 1 C-7.56165565 -0.71917218 -3.75032894 -0.65283504 0 0 Z " fill="#C2440B" transform="translate(132,59)"/>
<path d="M0 0 C1.09054688 0.02320312 2.18109375 0.04640625 3.3046875 0.0703125 C4.40039062 0.08835937 5.49609375 0.10640625 6.625 0.125 C7.46804687 0.14820312 8.31109375 0.17140625 9.1796875 0.1953125 C8.56108864 3.64179186 8.09148971 4.28351029 5.4296875 6.9453125 C2.1796875 9.1953125 2.1796875 9.1953125 -0.5703125 9.6328125 C-2.8203125 9.1953125 -2.8203125 9.1953125 -4.8203125 7.1953125 C-5.0703125 4.6953125 -5.0703125 4.6953125 -4.8203125 2.1953125 C-2.8203125 0.1953125 -2.8203125 0.1953125 0 0 Z " fill="#F6F4F4" transform="translate(19.8203125,97.8046875)"/>
<path d="M0 0 C1.11375 0.1546875 1.11375 0.1546875 2.25 0.3125 C3.5983286 3.37688317 3.14091528 4.69108816 2.1875 8 C0.25 11.3125 0.25 11.3125 -2.875 12.3125 C-3.82375 12.3125 -4.7725 12.3125 -5.75 12.3125 C-6.75 11.3125 -6.75 11.3125 -7.0625 8.5625 C-6.60883171 3.84434979 -4.98163731 0.56609515 0 0 Z " fill="#F0ECEC" transform="translate(160.75,69.6875)"/>
<path d="M0 0 C0.33 0.99 0.66 1.98 1 3 C-0.9375 6.1875 -0.9375 6.1875 -3 9 C-6.3 8.67 -9.6 8.34 -13 8 C-12.06601394 4.85841051 -11.33205059 3.2674852 -8.75 1.1875 C-5.62298529 -0.16280181 -3.3717092 -0.23523553 0 0 Z " fill="#9A2230" transform="translate(309,83)"/>
<path d="M0 0 C3.71599191 -0.20086443 4.77208445 -0.1519437 8 2 C8.33 2.99 8.66 3.98 9 5 C10.65 5.33 12.3 5.66 14 6 C14 6.33 14 6.66 14 7 C9.38 7 4.76 7 0 7 C0 4.69 0 2.38 0 0 Z " fill="#C3C3C3" transform="translate(138,101)"/>
<path d="M0 0 C0.66 0 1.32 0 2 0 C2.09765625 6.15234375 2.09765625 6.15234375 2 8 C1 9 1 9 -1.5 9.125 C-4 9 -4 9 -5 8 C-5.04080783 6.00041636 -5.04254356 3.99954746 -5 2 C-3.68 2 -2.36 2 -1 2 C-0.67 1.34 -0.34 0.68 0 0 Z " fill="#B9B8B8" transform="translate(180,99)"/>
<path d="M0 0 C7.1826087 -0.48695652 7.1826087 -0.48695652 10.9375 1.75 C12.9610478 3.95750669 13.6858889 5.06829636 14 8 C15.98 8 17.96 8 20 8 C20 8.99 20 9.98 20 11 C17.1875 11.3125 17.1875 11.3125 14 11 C12.11400657 8.61107499 11 7.08148442 11 4 C10.28972656 3.87882812 9.57945312 3.75765625 8.84765625 3.6328125 C7.92855469 3.46523437 7.00945312 3.29765625 6.0625 3.125 C4.68771484 2.88136719 4.68771484 2.88136719 3.28515625 2.6328125 C2.53105469 2.42398438 1.77695313 2.21515625 1 2 C0.67 1.34 0.34 0.68 0 0 Z " fill="#E2DEDD" transform="translate(124,66)"/>
<path d="M0 0 C0.66 0.33 1.32 0.66 2 1 C1.79375 1.78375 1.5875 2.5675 1.375 3.375 C1.25125 4.24125 1.1275 5.1075 1 6 C1.66 6.66 2.32 7.32 3 8 C2.63723355 10.82957829 1.90305236 13.29084291 1 16 C1.38932856 18.14255793 1.38932856 18.14255793 2 20 C1.34 20 0.68 20 0 20 C0 19.01 0 18.02 0 17 C-0.66 16.67 -1.32 16.34 -2 16 C-1.67 14.88625 -1.34 13.7725 -1 12.625 C0.088643 9.30540283 0.088643 9.30540283 0 7 C-0.99 7 -1.98 7 -3 7 C-3.1875 4.625 -3.1875 4.625 -3 2 C-2.01 1.34 -1.02 0.68 0 0 Z " fill="#E3DAD5" transform="translate(112,66)"/>
<path d="M0 0 C1.65 0.33 3.3 0.66 5 1 C4.34 2.32 3.68 3.64 3 5 C3.99 4.67 4.98 4.34 6 4 C6.33 5.32 6.66 6.64 7 8 C4.36 8 1.72 8 -1 8 C-1 4.88742431 -0.82638376 2.89234315 0 0 Z " fill="#898888" transform="translate(77,99)"/>
<path d="M0 0 C0.66 0 1.32 0 2 0 C2 2.64 2 5.28 2 8 C0.02 8 -1.96 8 -4 8 C-4.33 6.35 -4.66 4.7 -5 3 C-3.35 2.67 -1.7 2.34 0 2 C0 1.34 0 0.68 0 0 Z " fill="#9C9C9C" transform="translate(151,99)"/>
<path d="M0 0 C-0.33 1.32 -0.66 2.64 -1 4 C-1 3.01 -1 2.02 -1 1 C-5.455 1.495 -5.455 1.495 -10 2 C-10.15811388 5.05270463 -10.15811388 5.05270463 -9 8 C-9.9375 10.1875 -9.9375 10.1875 -11 12 C-11.66 11.67 -12.32 11.34 -13 11 C-13.39171753 9.34608154 -13.72057545 7.67654729 -14 6 C-14.33 5.01 -14.66 4.02 -15 3 C-10.36448354 -2.0990681 -6.24233323 -1.11513526 0 0 Z " fill="#E8DCD9" transform="translate(133,58)"/>
<path d="M0 0 C0.99 0 1.98 0 3 0 C3 1.32 3 2.64 3 4 C3.99 4 4.98 4 6 4 C5.34 3.67 4.68 3.34 4 3 C4.33 2.01 4.66 1.02 5 0 C6.65 0.33 8.3 0.66 10 1 C10 2.65 10 4.3 10 6 C7.03 6 4.06 6 1 6 C0.67 4.02 0.34 2.04 0 0 Z " fill="#878787" transform="translate(159,101)"/>
<path d="M0 0 C2.31 0 4.62 0 7 0 C5.54875366 3.82601307 3.64225296 5.22329124 0 7 C-0.99 7 -1.98 7 -3 7 C-1.125 2.25 -1.125 2.25 0 0 Z " fill="#A12030" transform="translate(284,88)"/>
<path d="M0 0 C-0.375 2.4375 -0.375 2.4375 -1 5 C-3.86177057 6.43088528 -5.93375773 5.59991697 -9 5 C-8.625 3.0625 -8.625 3.0625 -8 1 C-5.29120665 -0.35439668 -2.99066732 -0.06501451 0 0 Z " fill="#931F2C" transform="translate(294,83)"/>
<path d="M0 0 C2.625 0.375 2.625 0.375 5 1 C5 2.65 5 4.3 5 6 C3.02 6 1.04 6 -1 6 C-1.625 4.125 -1.625 4.125 -2 2 C-1.34 1.34 -0.68 0.68 0 0 Z " fill="#979797" transform="translate(185,101)"/>
<path d="M0 0 C0.66 0 1.32 0 2 0 C3.32 2.64 4.64 5.28 6 8 C5.34 8 4.68 8 4 8 C4 7.34 4 6.68 4 6 C2.02 6 0.04 6 -2 6 C-2 6.66 -2 7.32 -2 8 C-2.66 7.67 -3.32 7.34 -4 7 C-2.68 4.69 -1.36 2.38 0 0 Z " fill="#767575" transform="translate(94,99)"/>
<path d="M0 0 C3.3 0 6.6 0 10 0 C10.33 0.66 10.66 1.32 11 2 C10.67 2.66 10.34 3.32 10 4 C6.7 3.67 3.4 3.34 0 3 C0 2.01 0 1.02 0 0 Z " fill="#B22537" transform="translate(295,91)"/>
<path d="M0 0 C0.33 0.99 0.66 1.98 1 3 C1.66 3.33 2.32 3.66 3 4 C-1.66804118 7.62011357 -5.2392897 9.70677932 -11 11 C-10.67 9.68 -10.34 8.36 -10 7 C-8.906875 6.95875 -7.81375 6.9175 -6.6875 6.875 C-2.75003667 6.39434602 -2.75003667 6.39434602 -1.0625 2.9375 C-0.711875 1.968125 -0.36125 0.99875 0 0 Z " fill="#DCD3D3" transform="translate(144,80)"/>
<path d="M0 0 C1.32 0.66 2.64 1.32 4 2 C3.2575 2.8971875 3.2575 2.8971875 2.5 3.8125 C0.71723582 5.97029994 0.71723582 5.97029994 1 9 C0.34 9 -0.32 9 -1 9 C-1 8.34 -1 7.68 -1 7 C-1.99 6.67 -2.98 6.34 -4 6 C-2.68 4.02 -1.36 2.04 0 0 Z " fill="#DDD3D1" transform="translate(122,83)"/>
<path d="M0 0 C0 0.66 0 1.32 0 2 C-1.32 2 -2.64 2 -4 2 C-4.33 2.66 -4.66 3.32 -5 4 C-3.35 3.67 -1.7 3.34 0 3 C-0.33 3.66 -0.66 4.32 -1 5 C-2.65 5 -4.3 5 -6 5 C-6.33 3.35 -6.66 1.7 -7 0 C-4.3333581 -1.33332095 -2.83319697 -0.67102033 0 0 Z " fill="#7C7B7B" transform="translate(118,102)"/>
<path d="M0 0 C1.65 0.33 3.3 0.66 5 1 C4.01 2.32 3.02 3.64 2 5 C1.01 4.67 0.02 4.34 -1 4 C-0.67 2.68 -0.34 1.36 0 0 Z " fill="#747474" transform="translate(77,99)"/>
<path d="M0 0 C1.625 1.6875 1.625 1.6875 3 4 C2.1875 6.75 2.1875 6.75 1 9 C0.34 8.67 -0.32 8.34 -1 8 C-1.75 5.0625 -1.75 5.0625 -2 2 C-1.34 1.34 -0.68 0.68 0 0 Z " fill="#E1D7D1" transform="translate(121,61)"/>
<path d="M0 0 C0 0.66 0 1.32 0 2 C-2.64738916 3.4606285 -3.89448334 4 -7 4 C-6.67 3.01 -6.34 2.02 -6 1 C-4 0 -4 0 0 0 Z " fill="#BF394B" transform="translate(288,91)"/>
<path d="M0 0 C1.9078584 3.1749094 2.1609041 5.10585211 1.625 8.75 C1.51414063 9.54921875 1.40328125 10.3484375 1.2890625 11.171875 C1.19367188 11.77515625 1.09828125 12.3784375 1 13 C0.67 13 0.34 13 0 13 C-0.19658808 11.58456585 -0.38187546 10.16755969 -0.5625 8.75 C-0.66691406 7.96109375 -0.77132812 7.1721875 -0.87890625 6.359375 C-1.00027349 3.99467126 -0.69633257 2.2488963 0 0 Z " fill="#F2F0F0" transform="translate(145,70)"/>
</svg>
