<?xml version="1.0" encoding="UTF-8"?>
<svg version="1.1" xmlns="http://www.w3.org/2000/svg" width="1165" height="501">
<path d="M0 0 C0.64759277 0.31227539 1.29518555 0.62455078 1.96240234 0.94628906 C17.66687968 8.58229771 32.76983762 18.62862077 46 30 C47.06816127 30.88644089 48.13724602 31.77176964 49.20703125 32.65625 C61.64622317 43.02571887 73.06433077 54.18389822 83 67 C83.77472656 67.95777344 84.54945313 68.91554688 85.34765625 69.90234375 C126.40912185 121.50573872 143.94525761 188.77062322 136.8125 254 C131.21995695 300.65457057 113.02082234 344.13571216 84 381 C83.58234375 381.53625 83.1646875 382.0725 82.734375 382.625 C70.47419375 398.22886705 55.88425617 413.15948393 39.74414062 424.74316406 C37.85675137 426.10322564 35.99971589 427.49998189 34.140625 428.8984375 C4.44587004 450.89692 -30.81295544 465.14392694 -67 472 C-67.80937012 472.16371094 -68.61874023 472.32742188 -69.45263672 472.49609375 C-99.13175535 478.29649489 -133.51690759 477.41509909 -163 471 C-164.52343018 470.67854004 -164.52343018 470.67854004 -166.07763672 470.35058594 C-208.63389907 461.15827271 -249.77612989 440.90327612 -281.2890625 410.59375 C-283.49082848 408.48716122 -285.72310599 406.51040358 -288.0625 404.5625 C-328.79371343 369.02920293 -352.26619897 314.19528817 -361 262 C-361.13277344 261.21866699 -361.26554687 260.43733398 -361.40234375 259.63232422 C-371.12972875 198.98645063 -354.87734014 131.52764711 -319.22509766 81.68798828 C-315.60051363 76.69389224 -311.88527723 71.7947199 -308 67 C-307.55462891 66.45021484 -307.10925781 65.90042969 -306.65039062 65.33398438 C-295.45387143 51.64233114 -283.08566496 38.73556086 -269 28 C-267.76554735 27.03655781 -266.53117819 26.07300866 -265.296875 25.109375 C-256.56920973 18.36143354 -247.65223385 12.33867207 -238 7 C-237.15550293 6.53062012 -236.31100586 6.06124023 -235.44091797 5.57763672 C-222.02143801 -1.81531567 -208.51875786 -8.09497634 -194 -13 C-193.19030762 -13.27537598 -192.38061523 -13.55075195 -191.54638672 -13.83447266 C-128.67700972 -34.83312304 -59.30355227 -29.17275995 0 0 Z M-175 -9 C-175.72767578 -8.81743652 -176.45535156 -8.63487305 -177.20507812 -8.44677734 C-215.57794727 1.25392697 -250.6460733 22.72090626 -279 50 C-279.62696777 50.59973633 -280.25393555 51.19947266 -280.89990234 51.81738281 C-290.08623191 60.65030653 -298.52329641 69.67354603 -306 80 C-306.66177246 80.90322998 -306.66177246 80.90322998 -307.33691406 81.82470703 C-345.20296145 133.85989723 -361.09931071 198.24088352 -351.49609375 261.93164062 C-347.66340825 285.63695131 -340.54242924 308.41609162 -330 330 C-329.44771729 331.14130371 -329.44771729 331.14130371 -328.88427734 332.30566406 C-317.92268454 354.71128964 -303.13448659 374.35052829 -286.1875 392.5625 C-285.58953613 393.20533936 -284.99157227 393.84817871 -284.37548828 394.51049805 C-280.15298591 398.96771331 -275.67111147 403.01981995 -271 407 C-270.0615625 407.81984375 -269.123125 408.6396875 -268.15625 409.484375 C-218.99982066 451.41191767 -155.11376811 470.00538458 -91.0925293 465.58862305 C-27.90425639 460.11818288 30.10955024 428.64907108 71.62353516 381.14208984 C74.45542018 377.74586981 77.13817729 374.24917322 79.75732422 370.68701172 C80.97864961 369.02898451 82.22377916 367.39123502 83.47265625 365.75390625 C108.62036302 332.25682227 123.78318263 290.53074782 128 249 C128.11085938 248.00097656 128.22171875 247.00195312 128.3359375 245.97265625 C133.75743356 189.04694757 117.37920807 128.7936487 83 83 C82.5477002 82.39365723 82.09540039 81.78731445 81.62939453 81.16259766 C75.23868922 72.65753759 68.37872574 64.66371032 61 57 C60.44908691 56.42717285 59.89817383 55.8543457 59.33056641 55.26416016 C51.95555986 47.64201572 44.46627752 40.41972189 36 34 C35.37706055 33.52240234 34.75412109 33.04480469 34.11230469 32.55273438 C-1.14880974 5.67596657 -42.86073033 -11.17051248 -87 -16 C-87.93070312 -16.11085938 -88.86140625 -16.22171875 -89.8203125 -16.3359375 C-118.43696016 -19.15944674 -147.26223774 -16.26970763 -175 -9 Z " fill="#000000" transform="translate(363,26)"/>
<path d="M0 0 C0.80870544 0.00054382 1.61741089 0.00108765 2.45062256 0.00164795 C50.93689767 0.15089527 94.47329144 19.6351924 128.57275391 53.82666016 C140.65879727 66.14616969 150.22190359 80.06821871 158.125 95.375 C158.65287109 96.39182861 158.65287109 96.39182861 159.19140625 97.42919922 C178.05840074 134.26683192 182.84938993 179.16595167 173.125 219.375 C172.81151611 220.67147461 172.81151611 220.67147461 172.49169922 221.99414062 C165.12032787 251.21458795 149.94872885 277.68500403 129.125 299.375 C128.64401855 299.89239746 128.16303711 300.40979492 127.66748047 300.94287109 C97.61291885 333.21129395 54.18316263 352.62532393 10.16308594 354.5012207 C-40.82648086 355.79693816 -86.65511871 339.0638909 -123.96801758 304.21191406 C-129.09883075 299.30133554 -133.55306372 294.00852938 -137.875 288.375 C-138.67292969 287.40433594 -139.47085938 286.43367188 -140.29296875 285.43359375 C-147.37787124 276.73854887 -152.73828577 267.3217907 -157.875 257.375 C-158.20628906 256.74368164 -158.53757812 256.11236328 -158.87890625 255.46191406 C-179.88966273 215.00082339 -181.96011285 165.56227859 -168.50146484 122.44287109 C-159.58317845 95.0421193 -144.6477783 72.13791743 -124.875 51.375 C-124.22144531 50.66859375 -123.56789062 49.9621875 -122.89453125 49.234375 C-91.64375795 16.45104778 -44.48401665 -0.11308625 0 0 Z M-80.875 30.375 C-82.46634766 31.22384766 -82.46634766 31.22384766 -84.08984375 32.08984375 C-95.82839429 38.64553886 -106.13620758 47.1463348 -115.875 56.375 C-117.21691406 57.63763672 -117.21691406 57.63763672 -118.5859375 58.92578125 C-147.37643612 86.78885484 -166.12185837 127.60409726 -167.11328125 167.78515625 C-167.61002411 199.78874964 -162.6364094 229.0427499 -146.875 257.375 C-146.30007812 258.4371875 -145.72515625 259.499375 -145.1328125 260.59375 C-123.76328002 298.80286799 -87.13223142 326.48401815 -45.375 338.6875 C-41.8885177 339.64394059 -38.39046936 340.53169772 -34.875 341.375 C-34.13443359 341.55434082 -33.39386719 341.73368164 -32.63085938 341.91845703 C-11.18319765 346.8315133 14.76977435 346.55790356 36.125 341.375 C36.9691748 341.17100586 37.81334961 340.96701172 38.68310547 340.75683594 C50.69431279 337.75894332 62.01365367 333.82033209 73.125 328.375 C73.81013672 328.04661133 74.49527344 327.71822266 75.20117188 327.37988281 C90.5255265 319.97100062 103.85492091 310.16200511 116.125 298.375 C116.61532715 297.91577148 117.1056543 297.45654297 117.61083984 296.98339844 C131.17362064 284.25031128 141.65584533 269.91852538 150.125 253.375 C150.44307617 252.75802246 150.76115234 252.14104492 151.08886719 251.50537109 C171.13340592 212.09701203 173.61082732 165.78124641 160.00488281 123.94335938 C151.36689633 98.72925899 137.53975125 77.51133241 119.125 58.375 C118.50882812 57.69566406 117.89265625 57.01632813 117.2578125 56.31640625 C93.15236974 30.55036632 56.75003806 14.76049819 22.125 10.375 C21.32191406 10.26414062 20.51882813 10.15328125 19.69140625 10.0390625 C-15.57298335 5.96797852 -49.82493414 13.75677198 -80.875 30.375 Z " fill="#000000" transform="translate(249.875,73.625)"/>
<path d="M0 0 C3.41445886 0.43095112 6.22177304 2.08505465 9.22680664 3.67895508 C38.24162447 19.03891717 70.17688696 20.39290003 102 15 C104.10463611 14.64832551 106.20937518 14.29726665 108.31420898 13.94677734 C109.38259506 13.76883636 110.45098114 13.59089539 111.55174255 13.40756226 C112.35966751 13.27306671 113.16759247 13.13857117 114 13 C114.07031048 31.25541642 114.12309556 49.51079733 114.15543652 67.76632023 C114.17085703 76.2440807 114.19185358 84.72175668 114.22631836 93.19946289 C114.25636912 100.59497353 114.27560993 107.99042293 114.28226548 115.38599294 C114.2861514 119.29614854 114.29518132 123.20612904 114.31719017 127.1162281 C114.33780414 130.80900946 114.3437845 134.50154637 114.33932304 138.19437981 C114.34052065 140.17034935 114.35653068 142.1462933 114.3732605 144.12219238 C114.23600955 184.5730138 86.34679699 221.38834299 59 249 C47.53948436 260.19085645 34.47179623 269.41382881 21 278 C20.27103516 278.47099121 19.54207031 278.94198242 18.79101562 279.42724609 C16.54097507 280.8704588 14.27416091 282.28266665 12 283.6875 C10.95924316 284.35749023 10.95924316 284.35749023 9.89746094 285.04101562 C6.49970798 287.09180809 4.53499774 287.99404234 0.4921875 288.0390625 C-3.73281913 286.78195762 -7.13607446 284.98820835 -10.875 282.6875 C-11.60605957 282.24672119 -12.33711914 281.80594238 -13.09033203 281.35180664 C-30.11246788 270.93079614 -45.48532811 258.65841067 -60 245 C-60.65871094 244.38382813 -61.31742188 243.76765625 -61.99609375 243.1328125 C-84.20954904 221.68887645 -110.10901386 184.8274056 -111.09025764 153.0797596 C-111.12309381 149.41226279 -111.1235759 145.74600275 -111.11352539 142.07836914 C-111.11324301 140.66848757 -111.11340225 139.25860585 -111.1139679 137.84872437 C-111.11425387 134.03726397 -111.10838949 130.22583527 -111.10139394 126.41438222 C-111.09512709 122.42521785 -111.09455397 118.43605269 -111.09336853 114.44688416 C-111.09026502 106.89996766 -111.08206488 99.35306572 -111.07201904 91.80615562 C-111.06082742 83.21123743 -111.05533978 74.61631852 -111.05032361 66.02139485 C-111.03988143 48.34758833 -111.02230101 30.67379534 -111 13 C-110.26607529 13.13449554 -109.53215057 13.26899109 -108.77598572 13.40756226 C-107.80182205 13.58550323 -106.82765839 13.76344421 -105.82397461 13.94677734 C-104.8631749 14.12252289 -103.90237518 14.29826843 -102.91246033 14.4793396 C-67.51717894 20.80695244 -32.87404392 19.02324481 -1 1 C-0.67 0.67 -0.34 0.34 0 0 Z M-10.9375 16.6875 C-29.10044212 24.73221872 -48.05272847 27.13634074 -67.75 27.25 C-69.56914917 27.2641394 -69.56914917 27.2641394 -71.42504883 27.27856445 C-78.68979927 27.25305045 -85.77739382 26.7836129 -92.99316406 25.98339844 C-93.86377472 25.88920624 -94.73438538 25.79501404 -95.63137817 25.69796753 C-97.75453318 25.46789076 -99.87730808 25.23431077 -102 25 C-102.07035265 41.29966106 -102.12311591 57.59927221 -102.15543652 73.89904881 C-102.17084823 81.46880254 -102.19182751 89.03846146 -102.22631836 96.6081543 C-102.25639655 103.21259933 -102.27561629 109.81697564 -102.28226548 116.42148727 C-102.28614687 119.91246716 -102.29514671 123.40325058 -102.31719017 126.89416695 C-102.43014407 145.51962225 -102.30070053 161.95961959 -94 179 C-93.66613281 179.68545898 -93.33226562 180.37091797 -92.98828125 181.07714844 C-85.08620812 197.11003891 -75.71418553 212.44501389 -64 226 C-63.30648437 226.80308594 -62.61296875 227.60617187 -61.8984375 228.43359375 C-52.11060005 239.51840612 -41.83445519 249.19050958 -30 258 C-29.11127197 258.66394775 -29.11127197 258.66394775 -28.20458984 259.34130859 C-16.32532131 269.36700596 -16.32532131 269.36700596 -3 275 C-3 188.87 -3 102.74 -3 14 C-6.01558433 14 -8.20809745 15.42312099 -10.9375 16.6875 Z M6 14 C6 100.13 6 186.26 6 275 C48.7012286 253.6493857 86.23931109 212.34238307 102 167 C105.8906658 152.58576832 105.3996434 137.84372528 105.30418181 123.0351665 C105.28516644 119.57726036 105.28364534 116.11934258 105.28010559 112.66139221 C105.27085692 106.14180476 105.24634273 99.62237192 105.21605712 93.10285193 C105.18228664 85.66852196 105.16597075 78.23418381 105.15097082 70.79979599 C105.11978486 55.53310842 105.06716749 40.26657431 105 25 C103.72088745 25.14088547 102.4417749 25.28177094 101.12390137 25.42692566 C99.41529884 25.61182872 97.70667979 25.79657909 95.99804688 25.98120117 C95.15860535 26.07407158 94.31916382 26.16694199 93.45428467 26.26262665 C85.78789306 27.08560083 78.2140202 27.34695096 70.5 27.3125 C69.50767365 27.30976578 69.50767365 27.30976578 68.49530029 27.30697632 C45.90385272 27.20306013 27.08025432 22.10779012 6 14 Z " fill="#000000" transform="translate(249,124)"/>
<path d="M0 0 C51.94181034 0 51.94181034 0 61 9 C68.19413588 18.02793522 68.64286562 25.70894196 68 37 C66.88343178 43.24223179 64.45757573 47.54242427 60 52 C58.01632823 53.35750657 56.01822486 54.6944173 54 56 C55.40582146 57.94813125 56.81181837 59.89613554 58.21801758 61.84399414 C59.40821984 63.49273165 60.59816031 65.14165817 61.7878418 66.79077148 C64.39637859 70.40464841 67.00627243 74.01711681 69.64453125 77.609375 C70.35996094 78.58390625 71.07539063 79.5584375 71.8125 80.5625 C72.43769531 81.40941406 73.06289062 82.25632812 73.70703125 83.12890625 C75 85 75 85 75 86 C70.14394081 86.22359659 65.29091292 86.38627789 60.4309082 86.49438477 C58.78063749 86.53946707 57.1307228 86.60075755 55.48168945 86.67895508 C41.79656697 87.31133917 41.79656697 87.31133917 37.42016602 84.11694336 C35.61315961 81.8145479 34.29784413 79.61703438 33 77 C32.03070524 75.47285591 31.05213879 73.95153978 30.0625 72.4375 C29.381875 71.303125 28.70125 70.16875 28 69 C27.67 74.61 27.34 80.22 27 86 C18.09 86 9.18 86 0 86 C0 57.62 0 29.24 0 0 Z M9 9 C9 31.44 9 53.88 9 77 C12.3 77 15.6 77 19 77 C19 56.87 19 36.74 19 16 C41 17 41 17 47 21 C49.67478548 24.95403071 49.1173362 29.06419534 48.546875 33.62109375 C47.79474094 36.89287691 46.46445509 38.75299683 44 41 C40.53287889 42.15570704 37.4585044 42.32835293 33.8125 42.5625 C32.54019531 42.64628906 31.26789063 42.73007813 29.95703125 42.81640625 C28.98121094 42.87699219 28.00539062 42.93757813 27 43 C25.78037061 50.38101635 28.84780453 54.64178844 32.99414062 60.54101562 C33.80827609 61.67340553 34.62273295 62.80556444 35.4375 63.9375 C36.24973563 65.09582286 37.06029963 66.2553198 37.86914062 67.41601562 C41.16992847 72.4280628 41.16992847 72.4280628 45 77 C47.01964199 77.07244053 49.04167124 77.08377188 51.0625 77.0625 C52.16722656 77.05347656 53.27195313 77.04445313 54.41015625 77.03515625 C55.26480469 77.02355469 56.11945313 77.01195312 57 77 C52.83257937 70.51148434 48.32987327 64.30231434 43.69604492 58.14233398 C41.69000313 55.44794795 40.06970224 53.20910673 39 50 C39.58007812 49.90203125 40.16015625 49.8040625 40.7578125 49.703125 C48.40293621 48.23970198 53.46387012 45.5521876 58 39 C59.97850863 33.0644741 60.23043549 26.15554489 57.94140625 20.28515625 C54.69473553 14.9972183 50.90287696 11.91075786 45 10 C33.22849304 7.64569861 21.00462874 9 9 9 Z M27 25 C27 27.64 27 30.28 27 33 C31.29 33 35.58 33 40 33 C41.50637067 28.38510639 41.50637067 28.38510639 39.91796875 26.19921875 C37.28394158 24.55228119 35.39328236 24.70376651 32.3125 24.8125 C31.31863281 24.83957031 30.32476562 24.86664063 29.30078125 24.89453125 C28.16189453 24.94673828 28.16189453 24.94673828 27 25 Z " fill="#000000" transform="translate(164,203)"/>
<path d="M0 0 C9.9 0 19.8 0 30 0 C35.4375 13.4375 35.4375 13.4375 37.15014648 17.68139648 C37.59430908 18.77524658 38.03847168 19.86909668 38.49609375 20.99609375 C39.17949829 22.68496704 39.17949829 22.68496704 39.87670898 24.40795898 C40.76079613 26.88334172 40.76079613 26.88334172 42 28 C42.32798584 27.18732666 42.65597168 26.37465332 42.99389648 25.53735352 C44.20882606 22.53050512 45.42602057 19.52458685 46.64477539 16.51928711 C47.17238314 15.21692306 47.69907915 13.91418927 48.22485352 12.61108398 C48.97954912 10.74106066 49.73776804 8.87246046 50.49609375 7.00390625 C50.95169678 5.87799072 51.4072998 4.7520752 51.87670898 3.59204102 C53 1 53 1 54 0 C56.14558827 -0.08775605 58.29404421 -0.10695219 60.44140625 -0.09765625 C61.74658203 -0.09443359 63.05175781 -0.09121094 64.39648438 -0.08789062 C65.7851569 -0.07953401 67.17382877 -0.07106905 68.5625 -0.0625 C69.95507656 -0.05748666 71.34765481 -0.05292347 72.74023438 -0.04882812 C76.1601987 -0.03699434 79.58007844 -0.0205088 83 0 C82.38317407 3.6169488 81.39513513 6.74328904 79.94970703 10.11206055 C79.52480988 11.10888351 79.09991272 12.10570648 78.66213989 13.13273621 C78.19871185 14.20655045 77.73528381 15.28036469 77.2578125 16.38671875 C76.77480682 17.51656693 76.29180115 18.6464151 75.79415894 19.8105011 C74.24226151 23.43810921 72.68382711 27.062865 71.125 30.6875 C69.60964609 34.22308295 68.0956459 37.75924346 66.58172607 41.29544067 C65.57488694 43.64616182 64.5671164 45.99648426 63.55841064 48.34640503 C60.96091137 54.40090336 58.37816595 60.4611302 55.82324219 66.53369141 C55.31590546 67.73854691 54.80856873 68.9434024 54.28585815 70.18476868 C53.3158538 72.49146442 52.34793896 74.79904022 51.38235474 77.10758972 C50.95179779 78.13145279 50.52124084 79.15531586 50.07763672 80.21020508 C49.69920624 81.1140242 49.32077576 82.01784332 48.93087769 82.9490509 C48 85 48 85 47 86 C45.14712498 86.07226502 43.29166122 86.0838122 41.4375 86.0625 C40.42558594 86.05347656 39.41367187 86.04445313 38.37109375 86.03515625 C37.58863281 86.02355469 36.80617188 86.01195312 36 86 C27.31592351 66.78598053 19.04019664 47.41496479 10.91564941 27.95877075 C9.20411508 23.86186663 7.47903998 19.77125107 5.73632812 15.6875 C5.3652594 14.81516724 4.99419067 13.94283447 4.61187744 13.04406738 C3.89422807 11.35816473 3.17375445 9.67346082 2.45013428 7.9901123 C0 2.2238785 0 2.2238785 0 0 Z M14 9 C16.16403972 16.79622479 19.00852372 24.05975205 22.25390625 31.46484375 C22.75542709 32.61996964 23.25694794 33.77509552 23.77366638 34.96522522 C25.09540399 38.00550854 26.42228968 41.04347635 27.75134277 44.08056641 C28.83678559 46.56540555 29.9157883 49.05301758 30.9946909 51.54070187 C32.2861815 54.51683137 33.582615 57.49080275 34.87890625 60.46484375 C35.36226944 61.57729965 35.84563263 62.68975555 36.34364319 63.83592224 C36.79428635 64.86451859 37.2449295 65.89311493 37.70922852 66.95288086 C38.10433121 67.85759628 38.4994339 68.76231171 38.9065094 69.69444275 C40.02160681 72.18909164 40.02160681 72.18909164 42 75 C44.91576623 68.31560896 47.82845272 61.62988458 50.73742199 54.94253254 C52.08887298 51.83597004 53.44130437 48.72984279 54.79614258 45.62475586 C56.36020547 42.03873246 57.92065478 38.4511545 59.48046875 34.86328125 C59.95775925 33.77106766 60.43504974 32.67885406 60.92680359 31.55354309 C64.15730657 24.11012452 67.1429542 16.59438367 70 9 C66.7 9 63.4 9 60 9 C58.38174633 12.76755117 56.76436056 16.53547371 55.14770508 20.30371094 C54.60007958 21.57984964 54.0522357 22.85589465 53.50415039 24.13183594 C52.17833675 27.2185148 50.8550955 30.3062459 49.53759766 33.39648438 C48.5270942 35.76470143 47.51129731 38.1306681 46.48974609 40.49414062 C45.80452881 42.09805664 45.80452881 42.09805664 45.10546875 43.734375 C44.6983667 44.68022461 44.29126465 45.62607422 43.87182617 46.60058594 C42.82924749 49.04445761 42.82924749 49.04445761 43 52 C39.65699981 50.32849991 38.97185031 46.56315382 37.62890625 43.23828125 C37.30591049 42.45486862 36.98291473 41.67145599 36.65013123 40.86430359 C35.61453902 38.34960194 34.58811964 35.83128351 33.5625 33.3125 C32.53892796 30.81222837 31.51342527 28.31277291 30.48558044 25.81425476 C29.84607516 24.25829919 29.20926923 22.70123056 28.57557678 21.14289856 C26.87923509 17.00029676 25.06087986 12.97918312 23 9 C20.03 9 17.06 9 14 9 Z " fill="#000000" transform="translate(264,204)"/>
<path d="M0 0 C37.54054054 0 37.54054054 0 45.4375 5.3125 C50.73840943 10.87199038 52 16.49390142 52 24 C51.38504124 29.4385415 49.46850465 33.76071654 46 38 C44.02298801 39.3671874 42.02517121 40.70521841 40 42 C41.20565786 44.43885613 42.41399174 46.87630049 43.625 49.3125 C43.98529297 50.03856445 44.34558594 50.76462891 44.71679688 51.51269531 C47.30464365 56.69525925 50.04727956 61.76182989 52.96875 66.765625 C54 69 54 69 54 73 C49.38 73 44.76 73 40 73 C39.14019531 71.06253906 38.28039062 69.12507813 37.39453125 67.12890625 C36.5193806 65.25295008 35.6270463 63.38613785 34.73266602 61.51928711 C34.12406486 60.22506099 33.53348201 58.92219257 32.9621582 57.61108398 C32.13243634 55.71591563 31.2407294 53.86226198 30.33203125 52.00390625 C29.81358643 50.87799072 29.2951416 49.7520752 28.76098633 48.59204102 C25.04501752 44.56105459 25.04501752 44.56105459 13 45 C13 54.24 13 63.48 13 73 C8.71 73 4.42 73 0 73 C0 48.91 0 24.82 0 0 Z M13 12 C13 19.26 13 26.52 13 34 C16.774375 34.0928125 16.774375 34.0928125 20.625 34.1875 C21.40568848 34.21481201 22.18637695 34.24212402 22.99072266 34.27026367 C27.72787936 34.32618593 30.88557339 33.58390948 35 31 C37.44340191 28.06791771 37.96659534 26.31177679 38.375 22.5 C37.97335498 18.7513131 37.3404622 16.92557776 35 14 C32.12823941 12.24384901 30.01697261 11.75690039 26.671875 11.8046875 C25.9509668 11.80968262 25.23005859 11.81467773 24.48730469 11.81982422 C23.13233887 11.84713623 23.13233887 11.84713623 21.75 11.875 C17.41875 11.936875 17.41875 11.936875 13 12 Z " fill="#000000" transform="translate(567,144)"/>
<path d="M0 0 C1.9375 1.5 1.9375 1.5 2.9375 2.5 C3.2675 1.18 3.5975 -0.14 3.9375 -1.5 C7.8975 -1.5 11.8575 -1.5 15.9375 -1.5 C16.01189972 6.31044453 16.06622105 14.12068072 16.10229492 21.93139648 C16.1156397 24.58619776 16.13778011 27.24050853 16.16381836 29.89526367 C16.20038673 33.72060252 16.21726928 37.54561142 16.23046875 41.37109375 C16.24595261 42.54957382 16.26143646 43.72805389 16.27738953 44.94224548 C16.27901801 52.99496874 15.64456821 60.33406876 10.5625 66.875 C4.23383575 73.20366425 -1.5008931 73.8124248 -10.19628906 73.89379883 C-17.10965711 73.76226723 -22.79273246 71.58891756 -27.828125 66.83203125 C-28.23546875 66.39246094 -28.6428125 65.95289063 -29.0625 65.5 C-27.8133258 62.04074837 -26.38722205 59.35306797 -24.0625 56.5 C-21.83816716 57.57097507 -19.94850091 58.58981746 -18 60.125 C-13.43263579 62.26291516 -9.01071076 62.28755306 -4.0625 61.5 C-0.34798281 58.97412831 0.68423579 57.53253868 1.75 53.1875 C1.811875 52.300625 1.87375 51.41375 1.9375 50.5 C1.298125 50.974375 0.65875 51.44875 0 51.9375 C-5.58161618 54.78526336 -10.81771108 55.14091062 -16.8125 53.3125 C-23.93509531 50.51787059 -26.7490091 46.78743231 -30.046875 40.03515625 C-33.6458041 31.05167555 -33.01940314 20.12141234 -30.16015625 11.01171875 C-27.58195323 5.11212964 -23.79286687 0.82256073 -17.75 -1.5625 C-11.63924092 -3.18159001 -5.67561537 -2.77989324 0 0 Z M-17.0625 14.5 C-19.93098964 20.23697928 -20.02089295 27.42682998 -18.5625 33.625 C-16.98919756 37.77279734 -14.91732987 40.35842785 -11.0625 42.5 C-5.98084993 43.22595001 -4.35174959 43.22932002 0.1484375 40.68359375 C3.05888675 38.10463911 3.4291652 35.97847107 3.69921875 32.15625 C3.70583882 30.10402822 3.68006506 28.05149358 3.625 26 C3.64723633 24.45119141 3.64723633 24.45119141 3.66992188 22.87109375 C3.61713353 18.0580386 3.51925592 15.32933331 0.70703125 11.3203125 C-5.70992261 7.10268133 -12.63339007 8.13315448 -17.0625 14.5 Z " fill="#000000" transform="translate(973.0625,163.5)"/>
<path d="M0 0 C0.495 0.495 0.495 0.495 1 1 C1.66 0.01 2.32 -0.98 3 -2 C5.6015625 -2.29296875 5.6015625 -2.29296875 8.625 -2.1875 C10.12933594 -2.14689453 10.12933594 -2.14689453 11.6640625 -2.10546875 C12.43492187 -2.07066406 13.20578125 -2.03585937 14 -2 C14.0697076 5.57167806 14.12291623 13.14332256 14.15543652 20.71524906 C14.17104978 24.23174998 14.19220765 27.7480303 14.22631836 31.2644043 C14.26534335 35.31300905 14.27974501 39.36138439 14.29296875 43.41015625 C14.31619453 45.29179222 14.31619453 45.29179222 14.33988953 47.21144104 C14.3414073 55.12000444 13.92409669 60.40753836 8.8125 66.6875 C0.67434911 73.37886851 -6.49950657 73.9535459 -17 73 C-22.17700264 71.90637786 -26.07939081 69.55305208 -30 66 C-29.49701212 61.59885603 -27.91227269 59.28804981 -25 56 C-22.76959388 57.07389924 -20.85003987 58.11467539 -18.875 59.625 C-14.16980995 61.87530829 -8.75961502 61.91660392 -3.80078125 60.26953125 C-1.41166243 58.58522839 -1.04453421 57.15586975 -0.25 54.375 C-0.00765625 53.55773437 0.2346875 52.74046875 0.484375 51.8984375 C0.65453125 51.27195312 0.8246875 50.64546875 1 50 C0.195625 50.474375 -0.60875 50.94875 -1.4375 51.4375 C-8.0295999 54.32877188 -14.0710239 54.81402927 -20.859375 52.203125 C-26.8134272 48.8566869 -30.18571645 43.50849233 -32.41113281 37.21459961 C-33.43602819 33.36019414 -33.48750476 29.59417821 -33.4375 25.625 C-33.43065186 24.79081543 -33.42380371 23.95663086 -33.41674805 23.09716797 C-33.21013724 15.16238438 -31.6908638 9.24283586 -26.5625 3.0625 C-17.79556753 -3.9938115 -10.24892207 -4.41763883 0 0 Z M-18 14 C-20.39284975 17.69038095 -20.29952715 21.04206901 -20.3125 25.375 C-20.32925781 26.66148437 -20.34601562 27.94796875 -20.36328125 29.2734375 C-19.90351618 33.98973729 -18.47425791 37.29893318 -15.375 40.875 C-11.71354353 42.60937412 -7.957817 42.84762691 -4 42 C-1.03212465 40.89776306 -1.03212465 40.89776306 1 38 C1.76084221 33.82611423 1.69671826 29.73137742 1.625 25.5 C1.64433594 24.35917969 1.66367187 23.21835937 1.68359375 22.04296875 C1.77593491 15.63451348 1.77593491 15.63451348 -1.2578125 10.25390625 C-8.05049942 7.14784856 -13.39059338 7.85412451 -18 14 Z " fill="#000000" transform="translate(709,289)"/>
<path d="M0 0 C0.495 0.495 0.495 0.495 1 1 C1.33 0.01 1.66 -0.98 2 -2 C5.96 -2 9.92 -2 14 -2 C14.11349235 5.51982858 14.20499644 13.03933261 14.25906086 20.55981255 C14.28502497 24.05289708 14.32017526 27.5453594 14.37719727 31.03808594 C14.44251215 35.06450976 14.46628893 39.09029216 14.48828125 43.1171875 C14.51408768 44.35612762 14.5398941 45.59506775 14.56648254 46.87155151 C14.56893349 54.53269504 13.65222928 60.71542388 9 67 C1.06558318 73.52412831 -7.11521123 73.57721394 -17 73 C-22.17677946 71.93809652 -26.08867011 69.54464271 -30 66 C-29.49701212 61.59885603 -27.91227269 59.28804981 -25 56 C-22.76959388 57.07389924 -20.85003987 58.11467539 -18.875 59.625 C-14.16980995 61.87530829 -8.75961502 61.91660392 -3.80078125 60.26953125 C-1.41166243 58.58522839 -1.04453421 57.15586975 -0.25 54.375 C-0.00765625 53.55773437 0.2346875 52.74046875 0.484375 51.8984375 C0.65453125 51.27195312 0.8246875 50.64546875 1 50 C0.195625 50.474375 -0.60875 50.94875 -1.4375 51.4375 C-8.0295999 54.32877188 -14.0710239 54.81402927 -20.859375 52.203125 C-26.80662891 48.86050784 -30.18981812 43.51105376 -32.41552734 37.22338867 C-33.44081998 33.32307956 -33.43294215 29.51088465 -33.375 25.5 C-33.38660156 24.69691406 -33.39820313 23.89382813 -33.41015625 23.06640625 C-33.36948671 14.70203748 -30.82520911 7.168831 -25 1 C-16.47345945 -4.22033095 -8.9923898 -3.87603009 0 0 Z M-18 13 C-21.036272 18.16166239 -21.49110306 24.90737801 -20.56640625 30.73046875 C-19.53818146 34.66328334 -18.44637575 37.44859466 -15.875 40.625 C-11.9442884 42.50490555 -8.27150266 42.9947335 -4 42 C-1.0369303 40.89222606 -1.0369303 40.89222606 1 38 C1.76128337 33.82622876 1.69671739 29.73132614 1.625 25.5 C1.64433594 24.35917969 1.66367188 23.21835937 1.68359375 22.04296875 C1.77503318 15.63339225 1.77503318 15.63339225 -1.2578125 10.25 C-7.44307853 7.43050551 -13.30808853 7.73937199 -18 13 Z " fill="#000000" transform="translate(1070,289)"/>
<path d="M0 0 C15.51 0 31.02 0 47 0 C47 3.96 47 7.92 47 12 C35.78 12 24.56 12 13 12 C13 17.94 13 23.88 13 30 C22.57 30 32.14 30 42 30 C42 33.63 42 37.26 42 41 C32.43 41 22.86 41 13 41 C13 47.6 13 54.2 13 61 C24.22 61 35.44 61 47 61 C47 64.96 47 68.92 47 73 C31.49 73 15.98 73 0 73 C0 48.91 0 24.82 0 0 Z " fill="#000000" transform="translate(567,269)"/>
<path d="M0 0 C4.69531114 3.64705563 7.59193215 8.65290482 8.77734375 14.45703125 C9.02233413 16.58811194 9.14796721 18.73231138 9.25 20.875 C4.96 20.875 0.67 20.875 -3.75 20.875 C-4.306875 19.286875 -4.86375 17.69875 -5.4375 16.0625 C-6.67595546 13.043231 -7.52846672 11.10324641 -9.8125 8.75 C-15.81386752 6.96235861 -21.54097726 6.8493823 -27.25 9.5 C-31.47029569 13.50928091 -33.47897884 18.26343773 -33.91113281 24.0222168 C-33.95698421 26.53577986 -33.98526625 29.04855397 -34 31.5625 C-34.020625 32.42294922 -34.04125 33.28339844 -34.0625 34.16992188 C-34.10728572 41.59875366 -33.11099301 48.11091063 -28.1875 53.875 C-24.17108778 57.17051772 -21.37291522 57.22853023 -16.2890625 57.140625 C-12.3940736 56.73314924 -10.54478159 55.60323917 -7.75 52.875 C-6.12503707 49.92467667 -4.95919509 47.03751022 -3.75 43.875 C0.54 43.875 4.83 43.875 9.25 43.875 C8.8363677 52.69915578 6.36263042 58.25176527 -0.1875 64.25 C-7.01489531 69.63313861 -15.72251066 70.30553495 -24.2109375 69.69921875 C-31.14890717 68.49420297 -37.01400727 65.09037607 -41.578125 59.7265625 C-47.73828784 50.96477748 -48.1135504 43.10138266 -48.125 32.625 C-48.14949219 31.46097656 -48.17398438 30.29695313 -48.19921875 29.09765625 C-48.23496289 18.45781583 -46.18172281 9.40025426 -38.68359375 1.53125 C-27.76697956 -7.8195468 -11.84674047 -7.36281289 0 0 Z " fill="#000000" transform="translate(763.75,148.125)"/>
<path d="M0 0 C4.95 0 9.9 0 15 0 C15.47945068 1.5041748 15.95890137 3.00834961 16.45288086 4.55810547 C18.22727642 10.12341016 20.00381249 15.68802958 21.78100586 21.25244141 C22.55079897 23.6637123 23.32000659 26.07517019 24.08862305 28.48681641 C25.1916671 31.94743045 26.29679513 35.40737289 27.40234375 38.8671875 C27.74716293 39.95055389 28.09198212 41.03392029 28.44725037 42.15011597 C28.76750687 43.1510025 29.08776337 44.15188904 29.41772461 45.18310547 C29.69974228 46.06690887 29.98175995 46.95071228 30.27232361 47.86129761 C30.95165876 50.01604767 30.95165876 50.01604767 32 52 C37.61 34.84 43.22 17.68 49 0 C53.95 0 58.9 0 64 0 C63.30383065 3.48084673 62.60492907 6.38530334 61.43701172 9.67236328 C61.11932831 10.57165558 60.8016449 11.47094788 60.47433472 12.39749146 C60.12960114 13.3620224 59.78486755 14.32655334 59.4296875 15.3203125 C59.0703714 16.33358612 58.7110553 17.34685974 58.34085083 18.39083862 C57.57746914 20.54156473 56.81244273 22.69170765 56.04589844 24.84130859 C54.89691055 28.06355362 53.75265704 31.28744543 52.609375 34.51171875 C49.11514445 44.35281814 45.59347495 54.183997 42.0078125 63.9921875 C41.71655487 64.79415558 41.42529724 65.59612366 41.12521362 66.4223938 C39.1174075 71.8825925 39.1174075 71.8825925 38 73 C35.81360547 73.07258946 33.62499611 73.08373783 31.4375 73.0625 C30.23996094 73.05347656 29.04242187 73.04445313 27.80859375 73.03515625 C26.41833984 73.01775391 26.41833984 73.01775391 25 73 C24.8047876 72.4475058 24.6095752 71.8950116 24.40844727 71.32577515 C22.33225222 65.45032076 20.25463209 59.57537159 18.17626953 53.70068359 C17.40606463 51.52307232 16.63619497 49.34534243 15.86669922 47.16748047 C14.74540144 43.99413445 13.62293865 40.82120321 12.5 37.6484375 C12.12955566 36.60065125 11.75911133 35.55286499 11.37744141 34.47332764 C9.49908669 29.17428164 7.59760956 23.88523292 5.65234375 18.61035156 C5.27980469 17.59824615 4.90726563 16.58614075 4.5234375 15.54336548 C3.81555585 13.62571519 3.10351484 11.7095936 2.38671875 9.79525757 C2.0721875 8.94323761 1.75765625 8.09121765 1.43359375 7.21337891 C1.15572021 6.4689151 0.87784668 5.72445129 0.59155273 4.95742798 C0 3 0 3 0 0 Z " fill="#000000" transform="translate(622,144)"/>
<path d="M0 0 C6.17820182 4.81553301 8.47899625 10.48445204 10 18 C10 21.96 10 25.92 10 30 C-1.22 30 -12.44 30 -24 30 C-21.91995482 36.01652839 -21.91995482 36.01652839 -18 40 C-12.42083101 42.0803681 -9.25512951 42.28152392 -3.76171875 40.01953125 C-1.83954359 38.90714163 -0.49453202 37.63248883 1 36 C4.36591866 37.44253657 6.51047079 39.33264727 9 42 C8.12542111 45.82628264 6.60497266 47.57165345 3.4375 49.6875 C-4.01644128 53.94497637 -11.63787003 54.93366252 -20 53 C-26.88352843 50.73260437 -31.21262992 47.60316743 -34.8828125 41.3203125 C-39.77141288 31.16706556 -38.48961719 21.48403062 -35.265625 10.98046875 C-32.85335161 5.29971383 -29.31503691 2.02227589 -24 -1 C-15.77545408 -3.99074397 -7.91579381 -3.77366093 0 0 Z M-20 11 C-23.2385095 15.0570167 -23.2385095 15.0570167 -24 20 C-17.07 20 -10.14 20 -3 20 C-4.02822533 13.83064802 -4.31526449 12.64368317 -9 9 C-13.72397196 7.42534268 -16.15268577 7.86140155 -20 11 Z " fill="#000000" transform="translate(851,289)"/>
<path d="M0 0 C7.7367048 8.45639827 6.6875 16.16777933 6.6875 27.9375 C-4.5325 27.9375 -15.7525 27.9375 -27.3125 27.9375 C-24.42336883 34.9883959 -24.42336883 34.9883959 -19.3125 38.9375 C-13.63185879 40.4669034 -9.38599775 39.71689442 -4.3125 36.9375 C-2.61382709 35.40659848 -2.61382709 35.40659848 -1.3125 33.9375 C2.05341866 35.38003657 4.19797079 37.27014727 6.6875 39.9375 C4.88321526 44.80906879 0.94157163 47.89030363 -3.68359375 50.0390625 C-10.9294951 52.51537351 -19.15082829 52.789028 -26.3125 49.9375 C-32.76846908 46.37679373 -37.49673785 41.19855443 -39.921875 34.171875 C-41.77103548 23.59467707 -40.95810265 13.30638696 -35.1796875 4.140625 C-31.74330817 -0.45638575 -27.27148455 -3.17480463 -21.8125 -4.8125 C-13.45738684 -5.64801132 -7.12531439 -4.43651651 0 0 Z M-23.3125 8.9375 C-26.13526128 13.14031878 -26.13526128 13.14031878 -27.3125 17.9375 C-20.0525 17.9375 -12.7925 17.9375 -5.3125 17.9375 C-7.20145133 9.25763267 -7.20145133 9.25763267 -11.3125 6.875 C-16.32848011 5.30750622 -18.95713842 6.09318223 -23.3125 8.9375 Z " fill="#000000" transform="translate(907.3125,291.0625)"/>
<path d="M0 0 C7.90329372 8.3549105 7.1875 16.85319351 7.1875 28.3125 C-4.0325 28.3125 -15.2525 28.3125 -26.8125 28.3125 C-23.92336883 35.3633959 -23.92336883 35.3633959 -18.8125 39.3125 C-13.15194209 40.80774171 -9.94489523 40.02395409 -4.8125 37.3125 C-2.47371124 35.74921635 -2.47371124 35.74921635 -0.8125 34.3125 C2.03324968 35.58818089 4.36839981 36.72746289 6.1875 39.3125 C6.375 41.625 6.375 41.625 5.1875 44.3125 C0.3685763 49.26562158 -4.95553832 51.79269807 -11.8125 52.3125 C-19.72365738 52.39161157 -26.52142379 51.1549637 -32.53125 45.7734375 C-39.6283471 38.15449503 -40.43518405 30.16331853 -40.08984375 20.16015625 C-39.44501004 11.21422377 -36.49291399 5.36618005 -29.8125 -0.6875 C-20.1706245 -6.66546281 -9.51604194 -5.70962516 0 0 Z M-22.8125 9.3125 C-25.80366867 12.40681242 -25.90932375 13.79661877 -26.8125 18.3125 C-19.8825 18.3125 -12.9525 18.3125 -5.8125 18.3125 C-6.19856889 11.79250204 -6.19856889 11.79250204 -8.5 8.9375 C-13.71568757 5.27242225 -17.61461684 5.96275307 -22.8125 9.3125 Z " fill="#000000" transform="translate(1037.8125,165.6875)"/>
<path d="M0 0 C5.67748879 4.54199103 8.581139 9.90569499 10 17 C10 21.29 10 25.58 10 30 C-1.22 30 -12.44 30 -24 30 C-21.09360298 37.04237316 -21.09360298 37.04237316 -16 41 C-11.12621377 42.40798269 -7.70170802 41.82844201 -3 40 C-0.60090837 38.02172515 -0.60090837 38.02172515 1 36 C3.95409701 37.37154504 6.44008376 38.98863724 9 41 C9 43.85998631 8.45518545 45.52507436 6.46875 47.59765625 C-0.10542353 52.90656225 -6.21294627 54.32476878 -14.5625 53.875 C-23.0525819 52.82114046 -27.98870984 49.58971475 -33.5546875 43.1953125 C-38.90699434 35.06559238 -38.19273914 23.0920284 -36.3828125 13.84765625 C-34.2315189 7.6698264 -30.49422518 3.49456018 -25 0 C-16.55318993 -4.06375742 -8.47257173 -3.97301386 0 0 Z M-20 11 C-22.93418704 14.14377183 -23.09465971 15.47329853 -24 20 C-17.07 20 -10.14 20 -3 20 C-3.40234204 13.497835 -3.40234204 13.497835 -5.625 10.625 C-10.71132117 7.14488551 -15.23357698 7.16038146 -20 11 Z " fill="#000000" transform="translate(925,164)"/>
<path d="M0 0 C5.42667663 4.26885138 8.41323446 8.81580531 9.79296875 15.59375 C10.81372752 24.69399668 11.07997065 34.72951877 5.79296875 42.59375 C-0.13581448 49.20329122 -5.82289857 51.86139239 -14.58984375 52.55078125 C-21.59233402 52.66574751 -26.97063063 50.87047445 -32.4140625 46.4375 C-39.57195006 39.0768836 -40.51479225 30.73356101 -40.42578125 20.88671875 C-39.93172384 13.44939019 -37.3029631 6.2708958 -31.640625 1.1875 C-22.09303389 -6.16008689 -10.07024926 -6.416442 0 0 Z M-23.20703125 9.59375 C-27.73348973 15.68105623 -27.78990592 22.24536573 -27.20703125 29.59375 C-26.08212913 34.10990115 -23.97327186 37.79597126 -20.20703125 40.59375 C-16.45323357 41.84501589 -14.4290729 41.65117456 -10.58203125 40.65625 C-6.14485589 37.94464283 -4.52341148 35.59443701 -3.20703125 30.59375 C-2.37827271 23.7415402 -2.32592493 17.18114147 -5.93359375 11.1171875 C-8.0119251 8.63084017 -10.17298516 7.6050987 -13.20703125 6.59375 C-17.64041428 6.59375 -19.47736577 7.29246705 -23.20703125 9.59375 Z " fill="#000000" transform="translate(1116.20703125,165.40625)"/>
<path d="M0 0 C6.77865009 7.40922219 9.01347775 15.73443494 8.83203125 25.58203125 C8.33508088 33.68097924 5.92682786 39.68046098 0.6875 45.9375 C-5.31521436 51.13985244 -12.12474832 52.2399703 -19.875 51.875 C-26.70847617 51.0530714 -31.54466146 48.13213286 -36.125 43.0625 C-40.64503813 36.60530268 -41.87353716 31.37208389 -41.8125 23.625 C-41.80677979 22.78557861 -41.80105957 21.94615723 -41.79516602 21.08129883 C-41.54945502 12.54594428 -39.26990405 6.49036195 -33.0625 0.5 C-23.00004156 -7.22184311 -10.48209655 -6.52658842 0 0 Z M-24.3125 8.9375 C-28.45888634 13.51072023 -28.8846573 18.96271417 -29.3125 24.9375 C-28.99409953 29.46285138 -27.87824163 32.91481321 -25.6875 36.875 C-22.47213954 39.66728671 -19.5665625 40.74040058 -15.3125 40.9375 C-10.08361833 39.32861333 -7.91299514 36.6569171 -5.3125 31.9375 C-3.33205653 25.4715488 -3.68967667 18.87164633 -6.3359375 12.6640625 C-8.48972289 8.85616993 -11.17989549 7.29896952 -15.25 6 C-19.11745303 5.92107239 -21.07836022 6.85327659 -24.3125 8.9375 Z " fill="#000000" transform="translate(821.3125,166.0625)"/>
<path d="M0 0 C4.44877189 4.09755306 5.72336273 9.37913634 6.17242432 15.25683594 C6.22950059 17.68426767 6.22537528 20.10335089 6.1953125 22.53125 C6.1924826 23.40777222 6.18965271 24.28429443 6.18673706 25.18737793 C6.17563492 27.95839699 6.15054954 30.72908035 6.125 33.5 C6.11495729 35.3906203 6.10583371 37.28124571 6.09765625 39.171875 C6.07572835 43.78137729 6.04126845 48.39063194 6 53 C1.71 53 -2.58 53 -7 53 C-7.01458252 51.87505127 -7.02916504 50.75010254 -7.04418945 49.59106445 C-7.10227754 45.40682613 -7.17950964 41.22312003 -7.26245117 37.03930664 C-7.29565114 35.23047542 -7.32369841 33.42154182 -7.34643555 31.61254883 C-7.38007258 29.00818367 -7.43239195 26.4047524 -7.48828125 23.80078125 C-7.49467117 22.99538406 -7.5010611 22.18998688 -7.50764465 21.36018372 C-7.62655386 16.79217651 -8.02594142 13.70133333 -11 10 C-13.08839984 9.25038969 -13.08839984 9.25038969 -15.375 9.4375 C-16.50035156 9.43556641 -16.50035156 9.43556641 -17.6484375 9.43359375 C-21.05582674 10.25431043 -22.57481954 11.44836141 -25 14 C-25.75612277 16.96578213 -25.72143343 19.87333306 -25.70703125 22.921875 C-25.72215256 23.78186096 -25.73727386 24.64184692 -25.75285339 25.52789307 C-25.79576761 28.26886131 -25.8045717 31.00872913 -25.8125 33.75 C-25.8356415 35.61070642 -25.86100612 37.4713866 -25.88867188 39.33203125 C-25.95156074 43.88811826 -25.98386694 48.4435172 -26 53 C-30.29 53 -34.58 53 -39 53 C-39 34.85 -39 16.7 -39 -2 C-35.04 -2 -31.08 -2 -27 -2 C-26.67 -0.68 -26.34 0.64 -26 2 C-24.9275 1.360625 -23.855 0.72125 -22.75 0.0625 C-15.2745308 -4.16861557 -7.61013078 -4.11179179 0 0 Z " fill="#000000" transform="translate(1022,289)"/>
<path d="M0 0 C4.44877189 4.09755306 5.72336273 9.37913634 6.17242432 15.25683594 C6.22950059 17.68426767 6.22537528 20.10335089 6.1953125 22.53125 C6.1924826 23.40777222 6.18965271 24.28429443 6.18673706 25.18737793 C6.17563492 27.95839699 6.15054954 30.72908035 6.125 33.5 C6.11495729 35.3906203 6.10583371 37.28124571 6.09765625 39.171875 C6.07572835 43.78137729 6.04126845 48.39063194 6 53 C1.71 53 -2.58 53 -7 53 C-7.01458252 51.87505127 -7.02916504 50.75010254 -7.04418945 49.59106445 C-7.10227754 45.40682613 -7.17950964 41.22312003 -7.26245117 37.03930664 C-7.29565114 35.23047542 -7.32369841 33.42154182 -7.34643555 31.61254883 C-7.38007258 29.00818367 -7.43239195 26.4047524 -7.48828125 23.80078125 C-7.49467117 22.99538406 -7.5010611 22.18998688 -7.50764465 21.36018372 C-7.62655386 16.79217651 -8.02594142 13.70133333 -11 10 C-13.08839984 9.25038969 -13.08839984 9.25038969 -15.375 9.4375 C-16.50035156 9.43556641 -16.50035156 9.43556641 -17.6484375 9.43359375 C-21.05582674 10.25431043 -22.57481954 11.44836141 -25 14 C-25.75612277 16.96578213 -25.72143343 19.87333306 -25.70703125 22.921875 C-25.72215256 23.78186096 -25.73727386 24.64184692 -25.75285339 25.52789307 C-25.79576761 28.26886131 -25.8045717 31.00872913 -25.8125 33.75 C-25.8356415 35.61070642 -25.86100612 37.4713866 -25.88867188 39.33203125 C-25.95156074 43.88811826 -25.98386694 48.4435172 -26 53 C-30.29 53 -34.58 53 -39 53 C-39 34.85 -39 16.7 -39 -2 C-35.04 -2 -31.08 -2 -27 -2 C-26.67 -0.68 -26.34 0.64 -26 2 C-24.9275 1.360625 -23.855 0.72125 -22.75 0.0625 C-15.2745308 -4.16861557 -7.61013078 -4.11179179 0 0 Z " fill="#000000" transform="translate(661,289)"/>
<path d="M0 0 C3.56701763 2.90895148 5.43504971 5.32470894 6.80078125 9.76953125 C7.07326486 13.14230955 7.03336429 16.50099298 6.99609375 19.8828125 C6.99326385 20.85236374 6.99043396 21.82191498 6.98751831 22.82084656 C6.97635116 25.9080353 6.95125277 28.99493064 6.92578125 32.08203125 C6.91574698 34.17903226 6.90662191 36.27603783 6.8984375 38.37304688 C6.87642313 43.50532085 6.84191696 48.63737635 6.80078125 53.76953125 C2.51078125 53.76953125 -1.77921875 53.76953125 -6.19921875 53.76953125 C-6.21380127 52.57352295 -6.22838379 51.37751465 -6.2434082 50.14526367 C-6.30134461 45.7113645 -6.37857749 41.27797567 -6.46166992 36.84448242 C-6.49494125 34.92497027 -6.52296629 33.00535977 -6.5456543 31.08569336 C-6.57915996 28.32753553 -6.63147278 25.57028082 -6.6875 22.8125 C-6.69388992 21.95303268 -6.70027985 21.09356537 -6.7068634 20.20805359 C-6.73655464 19.00714836 -6.73655464 19.00714836 -6.7668457 17.78198242 C-6.77794876 17.07804855 -6.78905182 16.37411469 -6.80049133 15.64884949 C-7.31774158 13.21089868 -8.2693255 12.30105078 -10.19921875 10.76953125 C-12.34008319 10.29617642 -12.34008319 10.29617642 -14.63671875 10.39453125 C-15.77947266 10.38292969 -15.77947266 10.38292969 -16.9453125 10.37109375 C-19.97846236 10.90728315 -21.07783412 11.48817604 -23.19921875 13.76953125 C-23.83854415 16.77075358 -23.80421973 19.75275076 -23.80859375 22.8125 C-23.82513 23.69609695 -23.84166626 24.57969391 -23.85870361 25.49006653 C-23.9072916 28.31245803 -23.92857816 31.13431037 -23.94921875 33.95703125 C-23.97736945 35.87046999 -24.00729561 37.7838835 -24.0390625 39.69726562 C-24.1130533 44.38797646 -24.16256177 49.07838608 -24.19921875 53.76953125 C-28.48921875 53.76953125 -32.77921875 53.76953125 -37.19921875 53.76953125 C-37.19921875 35.61953125 -37.19921875 17.46953125 -37.19921875 -1.23046875 C-33.23921875 -1.23046875 -29.27921875 -1.23046875 -25.19921875 -1.23046875 C-24.86921875 0.08953125 -24.53921875 1.40953125 -24.19921875 2.76953125 C-23.31234375 2.13015625 -22.42546875 1.49078125 -21.51171875 0.83203125 C-15.25904605 -3.06114232 -6.58831166 -3.68617793 0 0 Z " fill="#000000" transform="translate(797.19921875,288.23046875)"/>
<path d="M0 0 C0 3.63 0 7.26 0 11 C-2.27864583 11.22786458 -4.55729167 11.45572917 -6.8359375 11.68359375 C-9.04272805 11.89090114 -9.04272805 11.89090114 -11 13 C-11.68729254 15.11846285 -11.68729254 15.11846285 -12.125 17.5625 C-12.558125 19.7590625 -12.558125 19.7590625 -13 22 C-9.37 22 -5.74 22 -2 22 C-2 25.63 -2 29.26 -2 33 C-5.63 33 -9.26 33 -13 33 C-13 47.52 -13 62.04 -13 77 C-17.29 77 -21.58 77 -26 77 C-26 62.48 -26 47.96 -26 33 C-28.64 33 -31.28 33 -34 33 C-34 29.37 -34 25.74 -34 22 C-31.36 22 -28.72 22 -26 22 C-26.0928125 20.2675 -26.0928125 20.2675 -26.1875 18.5 C-26.16596216 12.41556147 -24.49397353 7.85737249 -20.6875 3.125 C-15.34501271 -1.09929227 -6.41777375 -3.20888688 0 0 Z " fill="#000000" transform="translate(1165,140)"/>
<path d="M0 0 C1.98 0 3.96 0 6 0 C9.26320477 7.91190431 12.16204613 15.92811482 15 24 C15.08564209 23.37432129 15.17128418 22.74864258 15.25952148 22.10400391 C15.64853518 19.27715353 16.0429495 16.45108268 16.4375 13.625 C16.57220703 12.64015625 16.70691406 11.6553125 16.84570312 10.640625 C16.97783203 9.69960938 17.10996094 8.75859375 17.24609375 7.7890625 C17.36654053 6.91975098 17.4869873 6.05043945 17.61108398 5.15478516 C18 3 18 3 19 1 C20.98 1 22.96 1 25 1 C26.98 5.29 28.96 9.58 31 14 C32.65376711 12.34623289 32.63471208 10.19051636 33.0625 7.9375 C33.23910156 7.01839844 33.41570312 6.09929688 33.59765625 5.15234375 C33.73042969 4.44207031 33.86320312 3.73179688 34 3 C35.98 3 37.96 3 40 3 C39.33333333 11 38.66666667 19 38 27 C39.95897908 24.22962269 41.91707085 21.45861941 43.875 18.6875 C44.43058594 17.90181641 44.98617187 17.11613281 45.55859375 16.30664062 C46.09355469 15.54931641 46.62851562 14.79199219 47.1796875 14.01171875 C47.67194824 13.31522217 48.16420898 12.61872559 48.67138672 11.90112305 C49.80265296 10.28238541 50.90454438 8.64318344 52 7 C54.5 6.6875 54.5 6.6875 57 7 C59.35557677 9.35557677 59.33114076 10.10296131 59.6328125 13.32421875 C59.71660156 14.18853516 59.80039062 15.05285156 59.88671875 15.94335938 C59.96535156 16.84892578 60.04398437 17.75449219 60.125 18.6875 C60.21136719 19.57373047 60.29773438 20.45996094 60.38671875 21.37304688 C60.84350838 26.27084675 61.09419119 31.0818742 61 36 C58.125 35.3125 58.125 35.3125 55 34 C53.625 31.375 53.625 31.375 53 29 C50.69 28.67 48.38 28.34 46 28 C45.34 28.99 44.68 29.98 44 31 C39.32189636 31.09848639 35.35424144 30.78220115 31 29 C27.50286265 25.05720047 25.75700503 19.89405764 24 15 C23.34 18.96 22.68 22.92 22 27 C15.07 26.505 15.07 26.505 8 26 C7.505 23.525 7.505 23.525 7 21 C4.03 21 1.06 21 -2 21 C-2.33 22.65 -2.66 24.3 -3 26 C-4.98 26 -6.96 26 -9 26 C-10 24 -10 24 -9.19555664 21.56982422 C-8.77137451 20.5748291 -8.34719238 19.57983398 -7.91015625 18.5546875 C-7.45576172 17.47832031 -7.00136719 16.40195312 -6.53320312 15.29296875 C-6.04787109 14.16503906 -5.56253906 13.03710938 -5.0625 11.875 C-4.58103516 10.73933594 -4.09957031 9.60367188 -3.60351562 8.43359375 C-2.40924514 5.6193722 -1.20780876 2.80843165 0 0 Z M2 10 C1.67 11.65 1.34 13.3 1 15 C2.32 14.67 3.64 14.34 5 14 C4.67 12.68 4.34 11.36 4 10 C3.34 10 2.68 10 2 10 Z M53 16 C50.62984755 18.65484449 50.62984755 18.65484449 50 22 C51.32 22.33 52.64 22.66 54 23 C54 20.69 54 18.38 54 16 C53.67 16 53.34 16 53 16 Z " fill="#000000" transform="translate(252,29)"/>
<path d="M0 0 C4.29 0 8.58 0 13 0 C13 25.41 13 50.82 13 77 C8.71 77 4.42 77 0 77 C0 51.59 0 26.18 0 0 Z " fill="#000000" transform="translate(865,140)"/>
<path d="M0 0 C4.29 0 8.58 0 13 0 C13 25.41 13 50.82 13 77 C8.71 77 4.42 77 0 77 C0 51.59 0 26.18 0 0 Z " fill="#000000" transform="translate(839,140)"/>
<path d="M0 0 C0 4.29 0 8.58 0 13 C-1.216875 12.95875 -2.43375 12.9175 -3.6875 12.875 C-7.22564148 12.8812622 -9.85356736 13.24169941 -13 15 C-15.53760827 18.80641241 -15.34977475 21.96860355 -15.4140625 26.38671875 C-15.43342865 27.20372757 -15.4527948 28.02073639 -15.4727478 28.86250305 C-15.53250352 31.47072934 -15.57891258 34.07899986 -15.625 36.6875 C-15.6631835 38.4563994 -15.70223546 40.22528028 -15.7421875 41.99414062 C-15.83820168 46.32927659 -15.92224735 50.6644996 -16 55 C-19.96 55 -23.92 55 -28 55 C-28 36.85 -28 18.7 -28 0 C-24.04 0 -20.08 0 -16 0 C-15.67 0.99 -15.34 1.98 -15 3 C-14.13375 2.2884375 -14.13375 2.2884375 -13.25 1.5625 C-8.69869781 -1.59812652 -5.37956186 -0.93107802 0 0 Z " fill="#000000" transform="translate(951,287)"/>
<path d="M0 0 C0.125 5.75 0.125 5.75 -1 8 C-3.0625 8.625 -3.0625 8.625 -5 9 C-5.33 11.64 -5.66 14.28 -6 17 C-4.68 17.33 -3.36 17.66 -2 18 C-1.53370106 22.42336359 -1.27863639 26.59701024 -2 31 C-3.92170279 33.09796636 -5.56593076 34.02301344 -8.15234375 35.16796875 C-10.18877725 35.85095251 -10.18877725 35.85095251 -11 38 C-8.03 38 -5.06 38 -2 38 C-2 40.31 -2 42.62 -2 45 C-10.58 45 -19.16 45 -28 45 C-28.41642748 30.14741985 -28.41642748 30.14741985 -25 26 C-22.37971605 24.88086435 -19.83077878 24.76410177 -17 25 C-15.64377755 25.96873032 -14.30582947 26.96434215 -13 28 C-10.34754398 27.33903214 -10.34754398 27.33903214 -8 26 C-7.34 25.67 -6.68 25.34 -6 25 C-8.37447413 23.72817607 -10.74955897 22.45751576 -13.125 21.1875 C-13.79015625 20.83107422 -14.4553125 20.47464844 -15.140625 20.10742188 C-19.06500218 18.01057328 -23.00988078 15.97019905 -27 14 C-27 11.69 -27 9.38 -27 7 C-22.68804349 5.83131814 -18.37534696 4.66539109 -14.0625 3.5 C-12.83080078 3.16613281 -11.59910156 2.83226562 -10.33007812 2.48828125 C-8.5753418 2.01455078 -8.5753418 2.01455078 -6.78515625 1.53125 C-5.70113525 1.23798828 -4.61711426 0.94472656 -3.50024414 0.64257812 C-1 0 -1 0 0 0 Z M-17 12 C-14.525 12.99 -14.525 12.99 -12 14 C-11.67 12.68 -11.34 11.36 -11 10 C-14.18490007 9.7226499 -14.18490007 9.7226499 -17 12 Z M-21 32 C-23.36980013 34.95377498 -23.36980013 34.95377498 -23 39 C-20.69 39 -18.38 39 -16 39 C-15.83312552 36.58354218 -15.83312552 36.58354218 -16 34 C-16.66 33.34 -17.32 32.68 -18 32 C-18.99 32 -19.98 32 -21 32 Z " fill="#000000" transform="translate(56,221)"/>
<path d="M0 0 C4.29 0 8.58 0 13 0 C13 18.15 13 36.3 13 55 C8.71 55 4.42 55 0 55 C0 36.85 0 18.7 0 0 Z " fill="#000000" transform="translate(958,287)"/>
<path d="M0 0 C4.29 0 8.58 0 13 0 C13 18.15 13 36.3 13 55 C8.71 55 4.42 55 0 55 C0 36.85 0 18.7 0 0 Z " fill="#000000" transform="translate(735,287)"/>
<path d="M0 0 C0 1.98 0 3.96 0 6 C-1.98 6.33 -3.96 6.66 -6 7 C-5.505 17.395 -5.505 17.395 -5 28 C-6.98 28 -8.96 28 -11 28 C-12.485 18.595 -12.485 18.595 -14 9 C-16.31 9 -18.62 9 -21 9 C-21.02126953 10.64548828 -21.02126953 10.64548828 -21.04296875 12.32421875 C-21.08988708 13.77868698 -21.13813438 15.23311277 -21.1875 16.6875 C-21.19330078 17.40873047 -21.19910156 18.12996094 -21.20507812 18.87304688 C-21.37044581 22.8969938 -21.73839898 24.64563267 -24.203125 27.984375 C-28.67677876 31.2084048 -32.70173788 30.84902814 -38 30 C-40.625 28.5625 -40.625 28.5625 -42 26 C-43.73991879 18.91822526 -43.1005791 11.23051995 -43 4 C-41.02 3.67 -39.04 3.34 -37 3 C-36.34 9.6 -35.68 16.2 -35 23 C-33.02 23.33 -31.04 23.66 -29 24 C-29 17.07 -29 10.14 -29 3 C-25.10462259 2.49620985 -21.20876661 1.99682435 -17.3125 1.5 C-16.20970703 1.35691406 -15.10691406 1.21382813 -13.97070312 1.06640625 C-12.90400391 0.93105469 -11.83730469 0.79570312 -10.73828125 0.65625 C-9.75899658 0.53056641 -8.77971191 0.40488281 -7.77075195 0.27539062 C-5.15767911 0.01567205 -2.62364032 -0.05025329 0 0 Z " fill="#000000" transform="translate(289,443)"/>
<path d="M0 0 C2.49361571 1.20381448 4.68143083 2.45428722 7 4 C6.71122471 5.3547862 6.41879283 6.70879302 6.125 8.0625 C5.96257812 8.81660156 5.80015625 9.57070312 5.6328125 10.34765625 C4.8588533 13.59159634 3.91619229 16.79332698 3 20 C7.29 17.36 11.58 14.72 16 12 C21 15 21 15 21.98193359 16.94873047 C22.00663734 19.75360713 21.09657775 20.70305998 19.2890625 22.8203125 C18.70382812 23.52027344 18.11859375 24.22023438 17.515625 24.94140625 C16.89171875 25.66199219 16.2678125 26.38257812 15.625 27.125 C14.4075669 28.56401611 13.19136085 30.00407148 11.9765625 31.4453125 C11.43080566 32.07969238 10.88504883 32.71407227 10.32275391 33.36767578 C8.92196575 34.9763479 8.92196575 34.9763479 8 37 C5.83125748 36.49396008 4.00032373 36.00016187 2 35 C2.50522222 30.62140745 5.17827222 28.18348776 8 25 C7.48050781 25.37253906 6.96101563 25.74507812 6.42578125 26.12890625 C0.65866209 30.04116638 0.65866209 30.04116638 -3 29.8125 C-3.66 29.544375 -4.32 29.27625 -5 29 C-6.18414294 25.44757118 -5.69535532 24.30169438 -4.5625 20.8125 C-4.27503906 19.91144531 -3.98757813 19.01039062 -3.69140625 18.08203125 C-3.46324219 17.39496094 -3.23507812 16.70789063 -3 16 C-4.98 18.64 -6.96 21.28 -9 24 C-13 23 -13 23 -15 20 C-14.00419922 18.71416016 -14.00419922 18.71416016 -12.98828125 17.40234375 C-8.5578618 11.66959874 -4.14662576 5.94349693 0 0 Z " fill="#000000" transform="translate(375,67)"/>
<path d="M0 0 C5.70443463 2.09880142 9.14711867 5.63658309 12 11 C13.75317733 16.81628426 13.92389511 22.66569867 11.375 28.25 C8.61339484 33.13142884 5.22804646 36.00448988 0.0625 38.3125 C-6.4382466 39.77185128 -12.20986975 39.34723554 -18 36 C-22.32231778 32.13567616 -25.60260582 27.81498415 -26.21484375 21.9375 C-26.49643949 15.26931278 -25.07133905 10.39839259 -20.625 5.25 C-14.01291906 -0.41749795 -8.56694577 -1.0967346 0 0 Z M-19.375 11.75 C-21.66700114 16.33400228 -21.93199638 20.12828615 -20.375 24.92578125 C-18.30057609 29.25058466 -15.52652219 31.5183027 -11.1484375 33.40625 C-6.05223482 34.8146551 -2.26372104 33.66762621 2.3125 31.25 C5.70455298 28.41014169 7.64535627 26.36429157 8.31640625 21.890625 C8.60003396 16.43765354 7.71638865 13.20538716 4 9 C-0.15531456 5.32786155 -3.41873732 4.34464222 -8.82421875 4.6171875 C-13.6379151 5.46412151 -16.28369276 8.17059161 -19.375 11.75 Z " fill="#000000" transform="translate(1109,250)"/>
<path d="M0 0 C4.29816086 3.05000498 7.47270301 7.12376235 8.7890625 12.26953125 C9.60430707 18.79148782 8.61793115 23.87377174 4.7890625 29.26953125 C0.42197022 33.98359798 -4.14998289 36.30621431 -10.5234375 36.64453125 C-16.15071968 36.49472008 -20.57019395 34.6555838 -24.75 30.87890625 C-29.13300642 26.00889912 -30.72270612 20.86515551 -30.5234375 14.3515625 C-29.73944585 9.12821811 -27.21112224 4.86417077 -23.2734375 1.39453125 C-15.76588438 -3.81479132 -8.0822946 -4.55635333 0 0 Z M-22.4609375 7.83203125 C-25.65212665 12.27690185 -25.85492152 15.89090418 -25.2109375 21.26953125 C-22.8478511 26.08659198 -20.02799823 28.90644485 -15.2109375 31.26953125 C-10.52449571 32.09407577 -7.18227159 31.74603477 -2.8984375 29.64453125 C0.62838745 26.52780223 3.37925811 23.87570296 4.13671875 19.05859375 C4.37160632 12.91066697 2.8754949 9.6167677 -1.2109375 5.01953125 C-4.8088519 1.87135615 -8.443595 1.98828152 -12.99609375 2.0546875 C-17.43863707 2.48562204 -19.60657612 4.58123079 -22.4609375 7.83203125 Z " fill="#000000" transform="translate(492.2109375,2.73046875)"/>
<path d="M0 0 C2.78450406 1.14721298 3.17957127 2.44005928 4.38183594 5.1652832 C4.775 6.04635742 5.16816406 6.92743164 5.57324219 7.83520508 C5.96898437 8.76268555 6.36472656 9.69016602 6.77246094 10.64575195 C7.18367188 11.56163086 7.59488281 12.47750977 8.01855469 13.42114258 C11.02246094 20.27224437 11.02246094 20.27224437 11.02246094 24.83325195 C8.28578265 25.72564705 6.83805663 26.14004797 4.02246094 25.83325195 C0.41784239 23.83475517 -2.77398407 21.41801162 -5.97753906 18.83325195 C-5.66816406 19.69950195 -5.35878906 20.56575195 -5.04003906 21.45825195 C-4.05262007 24.59475933 -3.44172847 27.58392608 -2.97753906 30.83325195 C-4.62753906 31.49325195 -6.27753906 32.15325195 -7.97753906 32.83325195 C-16.60851856 16.12482371 -16.60851856 16.12482371 -18.97753906 7.83325195 C-16.87587786 6.55724337 -15.5431577 5.78841633 -13.05566406 5.9855957 C-10.31295885 7.10433073 -8.12517396 8.66062143 -5.72753906 10.39575195 C-4.38949219 11.35674805 -4.38949219 11.35674805 -3.02441406 12.3371582 C-2.34894531 12.83086914 -1.67347656 13.32458008 -0.97753906 13.83325195 C-1.27789062 13.14618164 -1.57824219 12.45911133 -1.88769531 11.7512207 C-2.26796875 10.85016602 -2.64824219 9.94911133 -3.04003906 9.02075195 C-3.42289062 8.12743164 -3.80574219 7.23411133 -4.20019531 6.3137207 C-4.97753906 3.83325195 -4.97753906 3.83325195 -3.97753906 0.83325195 C-1.97753906 -0.16674805 -1.97753906 -0.16674805 0 0 Z " fill="#000000" transform="translate(339.9775390625,425.166748046875)"/>
<path d="M0 0 C2.42041016 0.36254883 2.42041016 0.36254883 5 1 C7.81941387 5.86911046 7.6034289 11.51409979 8 17 C9.98 13.7 11.96 10.4 14 7 C16.475 7.495 16.475 7.495 19 8 C20.67387866 13.02163598 17.47138098 17.0487124 15.25 21.625 C14.79367188 22.6046875 14.33734375 23.584375 13.8671875 24.59375 C13.42117187 25.52445312 12.97515625 26.45515625 12.515625 27.4140625 C12.10602539 28.2695166 11.69642578 29.1249707 11.27441406 30.00634766 C10 32 10 32 7 33 C4.890625 32.5703125 4.890625 32.5703125 3 31 C2.37164523 28.19611504 1.9851678 25.71171157 1.75 22.875 C1.67265625 22.12089844 1.5953125 21.36679687 1.515625 20.58984375 C1.32710141 18.72817329 1.16136762 16.86422062 1 15 C-1.97 20.445 -1.97 20.445 -5 26 C-6.65 25.67 -8.3 25.34 -10 25 C-11 22 -11 22 -10.10375977 19.63989258 C-9.63768311 18.73392334 -9.17160645 17.8279541 -8.69140625 16.89453125 C-8.19189453 15.91162109 -7.69238281 14.92871094 -7.17773438 13.91601562 C-6.64470703 12.89185547 -6.11167969 11.86769531 -5.5625 10.8125 C-5.03333984 9.77673828 -4.50417969 8.74097656 -3.95898438 7.67382812 C-2.64814201 5.11119034 -1.32821043 2.55366713 0 0 Z " fill="#000000" transform="translate(154,422)"/>
<path d="M0 0 C2.4925689 6.40946289 4.84928583 12.75752073 1.9375 19.4375 C-0.91839469 21.74064088 -3.39126535 21.8100666 -7 22 C-8.00546875 21.66742188 -8.00546875 21.66742188 -9.03125 21.328125 C-9.6809375 21.21984375 -10.330625 21.1115625 -11 21 C-12.68095827 22.18812476 -12.68095827 22.18812476 -14.0625 23.9375 C-15.53515625 25.65234375 -15.53515625 25.65234375 -17 27 C-17.99 27 -18.98 27 -20 27 C-20.84871717 24.28410505 -21.32117723 22.77144871 -21 20 C-18.95451036 16.92105617 -16.63644247 14.63644247 -14 12 C-17.3 12.66 -20.6 13.32 -24 14 C-24.33 11.69 -24.66 9.38 -25 7 C-21.39809458 5.82627027 -17.79312849 4.66223744 -14.1875 3.5 C-12.65125977 2.99919922 -12.65125977 2.99919922 -11.08398438 2.48828125 C-10.10107422 2.17246094 -9.11816406 1.85664063 -8.10546875 1.53125 C-6.74651489 1.09135742 -6.74651489 1.09135742 -5.36010742 0.64257812 C-3 0 -3 0 0 0 Z M-9 9 C-8.67 10.65 -8.34 12.3 -8 14 C-6.02 14.495 -6.02 14.495 -4 15 C-1.69328085 12.28450846 -1.69328085 12.28450846 -2.375 9.8125 C-2.58125 9.214375 -2.7875 8.61625 -3 8 C-6.05270463 7.84188612 -6.05270463 7.84188612 -9 9 Z " fill="#000000" transform="translate(460,175)"/>
<path d="M0 0 C2.40600342 1.09200074 2.86197046 2.40660728 3.79394531 4.81420898 C1.48394531 6.46420898 -0.82605469 8.11420898 -3.20605469 9.81420898 C-2.71105469 10.59795898 -2.21605469 11.38170898 -1.70605469 12.18920898 C-0.20605469 14.81420898 -0.20605469 14.81420898 -0.20605469 16.81420898 C0.25285156 16.44166992 0.71175781 16.06913086 1.18457031 15.68530273 C1.79816406 15.2122168 2.41175781 14.73913086 3.04394531 14.25170898 C3.64722656 13.77604492 4.25050781 13.30038086 4.87207031 12.81030273 C6.79394531 11.81420898 6.79394531 11.81420898 9.02832031 12.16186523 C9.61097656 12.37713867 10.19363281 12.59241211 10.79394531 12.81420898 C11.28894531 15.28920898 11.28894531 15.28920898 11.79394531 17.81420898 C5.52394531 22.43420898 -0.74605469 27.05420898 -7.20605469 31.81420898 C-8.52605469 31.15420898 -9.84605469 30.49420898 -11.20605469 29.81420898 C-11.53605469 28.49420898 -11.86605469 27.17420898 -12.20605469 25.81420898 C-8.74105469 23.33920898 -8.74105469 23.33920898 -5.20605469 20.81420898 C-6.48894225 18.25916942 -6.48894225 18.25916942 -8.20605469 15.81420898 C-11.36053022 15.49601751 -11.36053022 15.49601751 -13.70605469 17.87670898 C-14.53105469 18.51608398 -15.35605469 19.15545898 -16.20605469 19.81420898 C-17.19605469 19.48420898 -18.18605469 19.15420898 -19.20605469 18.81420898 C-20.39355469 16.25170898 -20.39355469 16.25170898 -21.20605469 13.81420898 C-18.13818192 11.43932607 -15.04951712 9.09313229 -11.95605469 6.75170898 C-11.08335937 6.0755957 -10.21066406 5.39948242 -9.31152344 4.70288086 C-8.4671875 4.06801758 -7.62285156 3.4331543 -6.75292969 2.77905273 C-5.97788086 2.18729248 -5.20283203 1.59553223 -4.40429688 0.98583984 C-2.20605469 -0.18579102 -2.20605469 -0.18579102 0 0 Z " fill="#000000" transform="translate(425.2060546875,114.185791015625)"/>
<path d="M0 0 C2.875 1.6875 2.875 1.6875 5 4 C5 5.65 5 7.3 5 9 C8.96 9 12.92 9 17 9 C16.34 10.98 15.68 12.96 15 15 C11.04 15 7.08 15 3 15 C3 15.99 3 16.98 3 18 C3.78375 18.309375 4.5675 18.61875 5.375 18.9375 C8 20 8 20 10 21 C9.1875 23.4375 9.1875 23.4375 8 26 C5 27 5 27 3.25415039 26.33496094 C2.62500732 25.97176758 1.99586426 25.60857422 1.34765625 25.234375 C0.65349609 24.83863281 -0.04066406 24.44289062 -0.75585938 24.03515625 C-1.47580078 23.61105469 -2.19574219 23.18695313 -2.9375 22.75 C-3.65357422 22.34136719 -4.36964844 21.93273437 -5.10742188 21.51171875 C-8.56241624 19.52005379 -11.8846181 17.50532017 -15 15 C-14.43659352 11.07702154 -13.29909621 8.50919644 -11.0625 5.25 C-10.53785156 4.47140625 -10.01320313 3.6928125 -9.47265625 2.890625 C-6.78872629 -0.55505697 -4.18342104 -0.41013932 0 0 Z M-5 7 C-5.66 7.66 -6.32 8.32 -7 9 C-6.6814823 11.10820797 -6.6814823 11.10820797 -6 13 C-4.02 13.495 -4.02 13.495 -2 14 C0.30671915 11.28450846 0.30671915 11.28450846 -0.375 8.8125 C-0.58125 8.214375 -0.7875 7.61625 -1 7 C-2.32 7 -3.64 7 -5 7 Z " fill="#000000" transform="translate(70,132)"/>
<path d="M0 0 C3.23031164 0.95450209 6.45903277 1.91427965 9.6875 2.875 C10.59951172 3.14441406 11.51152344 3.41382813 12.45117188 3.69140625 C13.78051758 4.08779297 13.78051758 4.08779297 15.13671875 4.4921875 C15.94842529 4.73308105 16.76013184 4.97397461 17.59643555 5.22216797 C20.11655487 6.03771903 22.551924 6.99028772 25 8 C24.67 9.98 24.34 11.96 24 14 C18.555 13.505 18.555 13.505 13 13 C12.34 15.31 11.68 17.62 11 20 C13.97 20.66 16.94 21.32 20 22 C19.67 24.31 19.34 26.62 19 29 C13.22035563 27.88463003 7.61368935 26.38040554 2 24.625 C0.9934436 24.3297644 0.9934436 24.3297644 -0.03344727 24.02856445 C-1.9375 23.4140625 -1.9375 23.4140625 -5 22 C-6 20.0234375 -6 20.0234375 -6 18 C-5.505 16.515 -5.505 16.515 -5 15 C2.42857143 16 2.42857143 16 6 17 C6.33 14.36 6.66 11.72 7 9 C6.05125 8.855625 5.1025 8.71125 4.125 8.5625 C1 8 1 8 -1 7 C-0.67 4.69 -0.34 2.38 0 0 Z " fill="#000000" transform="translate(42,172)"/>
<path d="M0 0 C4.87640974 3.62895608 7.08155585 8.08751578 8 14 C7.78839513 18.19242157 7.04441739 21.66314574 4.4375 25 C-0.3381216 26.95922937 -5.00198056 27.7818337 -9.875 25.875 C-14.69245671 21.6243029 -15.81504967 17.29338406 -16.3125 11.125 C-16.23930906 6.76607288 -14.96165794 4.27341141 -12 1 C-7.73691254 -1.13154373 -4.54476934 -1.4504583 0 0 Z M-6 5 C-8.31083369 6.38893869 -8.31083369 6.38893869 -10 9 C-9.86343347 12.98199252 -9.07842555 16.64384294 -6.57421875 19.79296875 C-4.98036846 21.29875701 -4.98036846 21.29875701 -2.375 20.75 C-0.0687593 20.22254355 -0.0687593 20.22254355 1 19 C1.38189241 14.03539862 1.15313973 10.94142466 -2 7 C-4.06700655 5.67206394 -4.06700655 5.67206394 -6 5 Z " fill="#000000" transform="translate(317,437)"/>
<path d="M0 0 C1.875 1.4375 1.875 1.4375 3 3 C3 3.66 3 4.32 3 5 C-0.82320557 6.42258812 -3.91281305 7.24042276 -8 7 C-8.33 7.99 -8.66 8.98 -9 10 C-8.11957031 9.88140625 -7.23914063 9.7628125 -6.33203125 9.640625 C-4.58986328 9.44726562 -4.58986328 9.44726562 -2.8125 9.25 C-1.08966797 9.04117187 -1.08966797 9.04117187 0.66796875 8.828125 C4.77965059 9.04021644 6.21412395 10.02394422 9 13 C9.85292878 17.88495575 9.85292878 17.88495575 9 21 C5.78048183 24.87993215 3.33137641 26.22172602 -1.625 27 C-4.61753384 27.18167153 -5.81429139 27.09058956 -8.5625 25.75 C-10 24 -10 24 -10 21 C-6.11945616 18.41297077 -4.47650542 19.28056163 0 20 C0.99 19.67 1.98 19.34 3 19 C3 18.01 3 17.02 3 16 C2.11957031 16.10699219 1.23914063 16.21398437 0.33203125 16.32421875 C-0.82941406 16.44410156 -1.99085938 16.56398438 -3.1875 16.6875 C-4.91033203 16.87892578 -4.91033203 16.87892578 -6.66796875 17.07421875 C-10.4396922 16.99020615 -12.08256291 16.34882913 -15 14 C-16.125 10.6875 -16.125 10.6875 -16 7 C-11.81222136 0.47199212 -7.6156503 -2.152249 0 0 Z " fill="#000000" transform="translate(361,417)"/>
<path d="M0 0 C3.63069844 0.78049563 6.43805125 2.840395 9.03515625 5.4375 C9.17630786 8.10808851 9.07762732 10.76182238 9.03515625 13.4375 C6.16015625 12.6875 6.16015625 12.6875 3.03515625 11.4375 C1.91015625 9.375 1.91015625 9.375 1.03515625 7.4375 C-1.01485246 6.63221111 -1.01485246 6.63221111 -2.96484375 6.4375 C-1.33811081 9.43411331 0.14224768 11.53694204 2.66015625 13.875 C5.44224525 16.87672761 6.03515625 18.3702818 6.03515625 22.4375 C5.03515625 25.25 5.03515625 25.25 3.03515625 27.4375 C-1.1890985 28.73727069 -3.49432159 28.58649868 -7.71484375 27.25 C-12.47318313 24.59631073 -12.47318313 24.59631073 -13.96484375 21.4375 C-14.15234375 17.6875 -14.15234375 17.6875 -13.96484375 14.4375 C-11.02734375 15.1875 -11.02734375 15.1875 -7.96484375 16.4375 C-7.08984375 18.5625 -7.08984375 18.5625 -6.96484375 20.4375 C-5.31484375 20.7675 -3.66484375 21.0975 -1.96484375 21.4375 C-1.96484375 20.4475 -1.96484375 19.4575 -1.96484375 18.4375 C-3.48162176 17.00665675 -3.48162176 17.00665675 -5.40234375 15.6875 C-8.27553872 13.33404965 -8.92244469 12.56469719 -10.15234375 8.875 C-9.96484375 5.4375 -9.96484375 5.4375 -8.52734375 2.5 C-5.62372873 0.16294401 -3.71245154 -0.22205318 0 0 Z " fill="#000000" transform="translate(182.96484375,433.5625)"/>
<path d="M0 0 C1.98 0 3.96 0 6 0 C7.3213258 8.7419859 8.33165588 17.137418 8 26 C6.02 26 4.04 26 2 26 C1.505 21.05 1.505 21.05 1 16 C-2.96 16.495 -2.96 16.495 -7 17 C-7 20.63 -7 24.26 -7 28 C-8.98 28 -10.96 28 -13 28 C-13.33896268 25.16724047 -13.67129694 22.33395339 -14 19.5 C-14.09539062 18.70851563 -14.19078125 17.91703125 -14.2890625 17.1015625 C-14.87107882 12.02970596 -15.09367085 7.10506141 -15 2 C-13.02 1.67 -11.04 1.34 -9 1 C-8.67 4.3 -8.34 7.6 -8 11 C-5.36 10.67 -2.72 10.34 0 10 C0 6.7 0 3.4 0 0 Z " fill="#000000" transform="translate(233,29)"/>
<path d="M0 0 C-0.33 1.98 -0.66 3.96 -1 6 C-1.99 6.33 -2.98 6.66 -4 7 C-4.73323796 9.01508358 -4.73323796 9.01508358 -5 11 C-4.01 11 -3.02 11 -2 11 C-0.60119049 9.26256895 -0.60119049 9.26256895 0.5625 7.0625 C2.80811808 3.09594096 2.80811808 3.09594096 5 2 C11.47058824 1.64705882 11.47058824 1.64705882 15 4 C16.39999983 8.35063239 16.44573036 12.6892492 14.75 16.9375 C13 20 13 20 10 22 C6.8125 22.125 6.8125 22.125 4 22 C4.33 19.69 4.66 17.38 5 15 C6.32 14.67 7.64 14.34 9 14 C9.33 12.68 9.66 11.36 10 10 C9.01 10 8.02 10 7 10 C5.38229771 11.73357877 5.38229771 11.73357877 3.9375 13.9375 C1.18623482 17.90688259 1.18623482 17.90688259 -1 19 C-6.39478261 19.45913043 -6.39478261 19.45913043 -8.8125 17.625 C-11.4721538 13.98547375 -11.6002225 10.37189093 -11 6 C-8.19043659 0.67151768 -6.06374367 -1.88185148 0 0 Z " fill="#000000" transform="translate(43,199)"/>
<path d="M0 0 C1.32 0.66 2.64 1.32 4 2 C4 5 4 5 1.9375 8 C1.298125 8.99 0.65875 9.98 0 11 C0.33 11.99 0.66 12.98 1 14 C1.78375 13.21625 2.5675 12.4325 3.375 11.625 C5.6875 9.3125 5.6875 9.3125 8 7 C9.32 8.32 10.64 9.64 12 11 C11.319375 11.928125 10.63875 12.85625 9.9375 13.8125 C8.9784375 15.3903125 8.9784375 15.3903125 8 17 C8.33 17.99 8.66 18.98 9 20 C9.66 20 10.32 20 11 20 C12.58455866 18.21276059 12.58455866 18.21276059 14.125 16 C14.66382812 15.2575 15.20265625 14.515 15.7578125 13.75 C16.16773437 13.1725 16.57765625 12.595 17 12 C18.32 12.66 19.64 13.32 21 14 C20.52112335 18.76264597 18.50511358 21.22641652 15.4375 24.8125 C14.61121094 25.78832031 13.78492187 26.76414063 12.93359375 27.76953125 C12.29550781 28.50558594 11.65742187 29.24164063 11 30 C3.74095119 25.32561251 -3.13458887 20.2274704 -10 15 C-8.59601721 10.89889238 -6.62912962 8.01910841 -3.875 4.6875 C-3.15054688 3.80449219 -2.42609375 2.92148438 -1.6796875 2.01171875 C-1.12539062 1.34785156 -0.57109375 0.68398437 0 0 Z " fill="#000000" transform="translate(77,111)"/>
<path d="M0 0 C-0.63156995 5.05255964 -2.13459373 9.29593201 -4 14 C-3.43796875 14.25523438 -2.8759375 14.51046875 -2.296875 14.7734375 C0.29386482 16.15692781 2.45107845 17.79938583 4.75 19.625 C5.54921875 20.25664063 6.3484375 20.88828125 7.171875 21.5390625 C7.77515625 22.02117188 8.3784375 22.50328125 9 23 C8.67 23.66 8.34 24.32 8 25 C4.8125 25.9375 4.8125 25.9375 1 26 C-1.32841705 24.57766379 -3.00596698 22.9012873 -5 21 C-5.66 21 -6.32 21 -7 21 C-6.67 23.64 -6.34 26.28 -6 29 C-7.98 29.66 -9.96 30.32 -12 31 C-14.64 22.75 -17.28 14.5 -20 6 C-18.02 5.34 -16.04 4.68 -14 4 C-13.01 6.31 -12.02 8.62 -11 11 C-10.67386719 10.28972656 -10.34773437 9.57945313 -10.01171875 8.84765625 C-9.57472656 7.92855469 -9.13773438 7.00945313 -8.6875 6.0625 C-8.25824219 5.14597656 -7.82898438 4.22945312 -7.38671875 3.28515625 C-5.40056725 0.01220238 -3.71114951 0 0 0 Z " fill="#000000" transform="translate(191,37)"/>
<path d="M0 0 C1.32 0.66 2.64 1.32 4 2 C4 5 4 5 1.4375 8 C0.633125 8.99 -0.17125 9.98 -1 11 C-0.67 11.99 -0.34 12.98 0 14 C3.52381687 11.45395403 3.52381687 11.45395403 6 8 C7.65 8.66 9.3 9.32 11 10 C10.42647107 13.87132028 8.51295648 16.08172796 6 19 C6.99 19.66 7.98 20.32 9 21 C11.97 17.535 11.97 17.535 15 14 C16.32 14.33 17.64 14.66 19 15 C19.73828125 16.74609375 19.73828125 16.74609375 20 19 C18.41796875 21.03515625 18.41796875 21.03515625 16.1875 23.0625 C13.71262606 25.34464039 11.88177325 27.17734013 10 30 C6.02904224 29.44315305 4.05888873 27.51205759 1.1875 24.8125 C0.31738281 24.00554687 -0.55273438 23.19859375 -1.44921875 22.3671875 C-2.29097656 21.58601563 -3.13273437 20.80484375 -4 20 C-6.31442284 17.97641614 -8.65497022 15.98817742 -11 14 C-9.42219077 10.28954753 -7.09296752 7.70093616 -4.375 4.75 C-3.55773437 3.85796875 -2.74046875 2.9659375 -1.8984375 2.046875 C-1.27195312 1.37140625 -0.64546875 0.6959375 0 0 Z " fill="#000000" transform="translate(91,95)"/>
<path d="M0 0 C1.9375 1.3125 1.9375 1.3125 3 3 C3 3.99 3 4.98 3 6 C-0.78187881 7.83691257 -2.94568308 8.15837626 -7 7 C-7.99 8.485 -7.99 8.485 -9 10 C-8.03578125 9.95359375 -7.0715625 9.9071875 -6.078125 9.859375 C-4.81484375 9.82328125 -3.5515625 9.7871875 -2.25 9.75 C-0.99703125 9.70359375 0.2559375 9.6571875 1.546875 9.609375 C5 10 5 10 7.4140625 11.80078125 C9 14 9 14 9.625 17.4375 C8.9763326 21.13490416 8.79838852 21.61441411 6.125 23.875 C1.66767006 26.90598436 -0.56134708 27.37507951 -6 27 C-8.4375 25.6875 -8.4375 25.6875 -10 24 C-10 23.01 -10 22.02 -10 21 C-5.87831311 19.37049588 -3.29299643 18.73735399 1 20 C1.33 19.01 1.66 18.02 2 17 C1.26394531 17.03480469 0.52789062 17.06960937 -0.23046875 17.10546875 C-4.47421849 17.22319496 -8.0799652 17.31281183 -12.125 15.9375 C-14 14 -14 14 -15.125 10.6875 C-14.95436775 5.65384874 -13.59592646 4.43247526 -10 1 C-6.44646071 -0.1845131 -3.72986522 -0.26641894 0 0 Z " fill="#000000" transform="translate(157,52)"/>
<path d="M0 0 C0.33 2.31 0.66 4.62 1 7 C-5.6 8.32 -12.2 9.64 -19 11 C-18.67 12.65 -18.34 14.3 -18 16 C-12.61477743 15.52690568 -7.24030493 15.04026325 -1.875 14.375 C-0.59625 14.25125 0.6825 14.1275 2 14 C3 15 3 15 3.0625 17.5625 C3.041875 18.366875 3.02125 19.17125 3 20 C-4.26355282 22.67604577 -12.36539068 25.2903828 -20 23 C-23.02369621 20.2945876 -23.89055891 18.43776435 -24.875 14.5 C-25.00437606 10.87747044 -24.87954993 9.07562715 -23 6 C-19.06324147 3.13491463 -15.08731691 2.15464257 -10.375 1.3125 C-9.37339844 1.11817383 -9.37339844 1.11817383 -8.3515625 0.91992188 C-5.5194456 0.38465178 -2.8885724 0 0 0 Z " fill="#000000" transform="translate(467,198)"/>
<path d="M0 0 C0.33 2.31 0.66 4.62 1 7 C0.01 7.66 -0.98 8.32 -2 9 C-2 10.32 -2 11.64 -2 13 C-1.01 13.33 -0.02 13.66 1 14 C1.19335938 13.31292969 1.38671875 12.62585938 1.5859375 11.91796875 C1.84632813 11.01691406 2.10671875 10.11585938 2.375 9.1875 C2.75785156 7.84751953 2.75785156 7.84751953 3.1484375 6.48046875 C4 4 4 4 6 1 C9.63274158 -0.13018627 11.33175318 -0.31184852 14.8125 1.3125 C17 3 17 3 18 5 C18.92720722 14.57607462 18.92720722 14.57607462 16.25 18.6875 C14 20 14 20 10 20 C9.875 17.125 9.875 17.125 10 14 C10.66 13.34 11.32 12.68 12 12 C12 10.68 12 9.36 12 8 C11.34 8 10.68 8 10 8 C9.74605469 8.68707031 9.49210937 9.37414062 9.23046875 10.08203125 C8.88628906 10.98308594 8.54210937 11.88414062 8.1875 12.8125 C7.68283203 14.15248047 7.68283203 14.15248047 7.16796875 15.51953125 C6.01409557 17.97006459 5.13956338 19.36355177 3 21 C-0.4375 21.5 -0.4375 21.5 -4 21 C-6.4375 19.125 -6.4375 19.125 -8 16 C-8.63947186 10.98945465 -8.80351319 6.36423187 -6 2 C-1.9 0 -1.9 0 0 0 Z " fill="#000000" transform="translate(454,223)"/>
<path d="M0 0 C2.9375 2.375 2.9375 2.375 5 5 C5 5.66 5 6.32 5 7 C0.79768759 7.955071 -1.26141786 8.13633265 -5 6 C-5.99 6.495 -5.99 6.495 -7 7 C-7 7.66 -7 8.32 -7 9 C-6.24074219 9.18175781 -5.48148438 9.36351562 -4.69921875 9.55078125 C-3.70535156 9.80214844 -2.71148437 10.05351563 -1.6875 10.3125 C-0.70136719 10.55613281 0.28476563 10.79976562 1.30078125 11.05078125 C4.04653952 12.01636628 5.30152701 12.66743042 7 15 C7.51126266 19.01706374 7.68398851 21.10373919 5.1875 24.375 C1.24568404 27.30320614 -2.21181466 27.33021968 -7 27 C-9.875 25.8125 -9.875 25.8125 -12 24 C-12.8125 21.3125 -12.8125 21.3125 -13 19 C-11.02 18.67 -9.04 18.34 -7 18 C-6.67 18.99 -6.34 19.98 -6 21 C-4.02 20.67 -2.04 20.34 0 20 C0 19.34 0 18.68 0 18 C-0.75925781 17.81824219 -1.51851562 17.63648437 -2.30078125 17.44921875 C-3.29464844 17.19785156 -4.28851563 16.94648437 -5.3125 16.6875 C-6.29863281 16.44386719 -7.28476563 16.20023438 -8.30078125 15.94921875 C-11.05767962 14.97971614 -12.31722424 14.36149531 -14 12 C-14.60885342 9.27935767 -14.52519367 6.73443225 -14 4 C-10.15983701 -0.10500182 -5.40256304 -0.55888583 0 0 Z " fill="#000000" transform="translate(210,33)"/>
<path d="M0 0 C2.9375 1.625 2.9375 1.625 5 4 C5.8125 7.75 5.8125 7.75 6 11 C4.1875 11.6875 4.1875 11.6875 2 12 C-0.48615558 10.15840327 -1.00156904 8.99529289 -2 6 C-3.32 6.33 -4.64 6.66 -6 7 C-5.4946875 7.4846875 -4.989375 7.969375 -4.46875 8.46875 C1.50338911 14.63048083 1.50338911 14.63048083 1.625 19.3125 C1 23 1 23 -0.1875 24.9375 C-2.62388892 26.36572799 -4.14855908 26.87038905 -7 27 C-12.08471457 25.39430066 -15.28840082 23.66395059 -18 19 C-18.25 15.6875 -18.25 15.6875 -18 13 C-16 12 -16 12 -14 12.625 C-12 14 -12 14 -11 16.5625 C-10.67 17.366875 -10.34 18.17125 -10 19 C-7.95894361 19.88693303 -7.95894361 19.88693303 -6 20 C-6.58245303 16.623247 -7.66883433 15.03564202 -10.0625 12.625 C-12.26960722 10.1353404 -12.96459991 9.16412768 -13.6875 5.8125 C-13 3 -13 3 -11 0.5625 C-7.08417974 -1.47698972 -4.10016685 -1.27560746 0 0 Z " fill="#000000" transform="translate(341,47)"/>
<path d="M0 0 C5.90050173 2.79077784 11.17198709 5.99079089 16.5 9.75 C17.59054688 10.50990234 17.59054688 10.50990234 18.703125 11.28515625 C20.47203595 12.51873889 22.23649663 13.75869908 24 15 C22.35 16.65 20.7 18.3 19 20 C18.0925 19.608125 17.185 19.21625 16.25 18.8125 C13.10649011 17.69178472 13.10649011 17.69178472 10.625 18.9375 C8.27525278 21.91987148 8.72212917 24.31821147 9 28 C7.35 28.66 5.7 29.32 4 30 C1.90405643 24.86493825 0.24108697 19.65295938 -1.25 14.3125 C-1.60578125 13.05050781 -1.9615625 11.78851563 -2.328125 10.48828125 C-2.97590807 7.12508192 -3.08798324 5.21186543 -2 2 C-1.34 1.34 -0.68 0.68 0 0 Z M5 11 C5.33 12.32 5.66 13.64 6 15 C6.99 14.67 7.98 14.34 9 14 C8.34 13.01 7.68 12.02 7 11 C6.34 11 5.68 11 5 11 Z " fill="#000000" transform="translate(120,70)"/>
<path d="M0 0 C1.3303125 0.37125 1.3303125 0.37125 2.6875 0.75 C2.21829589 10.34441508 0.74555771 19.3916621 -1.3125 28.75 C-3.48124252 28.24396008 -5.31217627 27.75016187 -7.3125 26.75 C-7.3125 24.77 -7.3125 22.79 -7.3125 20.75 C-9.2925 19.76 -11.2725 18.77 -13.3125 17.75 C-13.9725 18.41 -14.6325 19.07 -15.3125 19.75 C-18.4375 19.375 -18.4375 19.375 -21.3125 18.75 C-21.3125 17.43 -21.3125 16.11 -21.3125 14.75 C-19.29302516 12.73939548 -17.34550333 11.00819789 -15.125 9.25 C-14.2577832 8.54037109 -14.2577832 8.54037109 -13.37304688 7.81640625 C-12.23046579 6.88426665 -11.07963461 5.96213981 -9.92041016 5.05078125 C-8.47667121 3.88281266 -7.11254413 2.61803551 -5.76171875 1.34375 C-3.3125 -0.25 -3.3125 -0.25 0 0 Z M-8.3125 11.75 C-8.3125 12.41 -8.3125 13.07 -8.3125 13.75 C-7.3225 14.08 -6.3325 14.41 -5.3125 14.75 C-4.9825 13.1 -4.6525 11.45 -4.3125 9.75 C-5.77475016 9.65754997 -5.77475016 9.65754997 -8.3125 11.75 Z " fill="#000000" transform="translate(361.3125,58.25)"/>
<path d="M0 0 C0.99 0 1.98 0 3 0 C3.30292969 1.15757813 3.60585937 2.31515625 3.91796875 3.5078125 C4.34033369 5.04709807 4.76355652 6.58614843 5.1875 8.125 C5.48237305 9.26582031 5.48237305 9.26582031 5.78320312 10.4296875 C7.26928512 15.73385709 9.20038018 19.00241679 13 23 C12.25 24.9375 12.25 24.9375 11 27 C8.875 27.75 8.875 27.75 7 28 C6.34644531 27.07960938 5.69289063 26.15921875 5.01953125 25.2109375 C1.84660847 21.40343016 -1.69694741 20.13464455 -6.3125 18.625 C-7.05306641 18.36589844 -7.79363281 18.10679688 -8.55664062 17.83984375 C-10.36531533 17.20972482 -12.18192647 16.60246385 -14 16 C-14 13 -14 13 -12.5 11.3125 C-12.005 10.879375 -11.51 10.44625 -11 10 C-9.5410574 10.47730838 -8.08286504 10.95691042 -6.625 11.4375 C-5.81289062 11.70433594 -5.00078125 11.97117187 -4.1640625 12.24609375 C-2 13 -2 13 0 14 C-0.99 10.37 -1.98 6.74 -3 3 C-2.01 2.01 -1.02 1.02 0 0 Z " fill="#000000" transform="translate(108,79)"/>
<path d="M0 0 C1.65 0.33 3.3 0.66 5 1 C4.835 1.763125 4.67 2.52625 4.5 3.3125 C3.90854604 6.03596236 3.90854604 6.03596236 4 9 C5.14339844 9.47050781 6.28679688 9.94101563 7.46484375 10.42578125 C8.95596957 11.05411729 10.44684205 11.6830548 11.9375 12.3125 C12.69224609 12.62123047 13.44699219 12.92996094 14.22460938 13.24804688 C14.94326172 13.55419922 15.66191406 13.86035156 16.40234375 14.17578125 C17.06741943 14.45333252 17.73249512 14.73088379 18.41772461 15.0168457 C20 16 20 16 21 19 C20.0625 21.1875 20.0625 21.1875 19 23 C14.28629244 22.35014905 10.42313556 20.48438608 6.1875 18.4375 C5.49462891 18.10814453 4.80175781 17.77878906 4.08789062 17.43945312 C2.38955052 16.63127749 0.69444231 15.81631623 -1 15 C-1.66 16.98 -2.32 18.96 -3 21 C-4.65 20.67 -6.3 20.34 -8 20 C-7.45318976 14.99399078 -5.75859667 11.02818933 -3.4375 6.625 C-3.10814453 5.98433594 -2.77878906 5.34367188 -2.43945312 4.68359375 C-1.63360518 3.11861368 -0.81781507 1.55875979 0 0 Z " fill="#000000" transform="translate(52,150)"/>
<path d="M0 0 C4.22026435 0.48176534 5.92645721 2.76129678 8.625 5.875 C9.78902344 7.20144531 9.78902344 7.20144531 10.9765625 8.5546875 C13 11 13 11 15 14 C14.625 16.1875 14.625 16.1875 14 18 C12.68 18 11.36 18 10 18 C9.34 16.68 8.68 15.36 8 14 C3.59269475 17.37793463 -0.77568389 20.75859504 -4.9375 24.4375 C-8 27 -8 27 -10 27 C-11.625 24.5 -11.625 24.5 -13 22 C-8.52647956 17.40410362 -3.91935902 13.11619836 1 9 C0.46375 8.2575 -0.0725 7.515 -0.625 6.75 C-1.07875 5.8425 -1.5325 4.935 -2 4 C-1.1875 1.6875 -1.1875 1.6875 0 0 Z " fill="#000000" transform="translate(407,95)"/>
<path d="M0 0 C1.99511719 0.78076172 1.99511719 0.78076172 3.91699219 4.27294922 C4.54182331 5.72734337 5.15063815 7.18869971 5.74511719 8.65576172 C6.0609375 9.38923828 6.37675781 10.12271484 6.70214844 10.87841797 C8.99511719 16.3279411 8.99511719 16.3279411 8.99511719 19.78076172 C7.34511719 20.11076172 5.69511719 20.44076172 3.99511719 20.78076172 C1.99511719 17.78076172 1.99511719 17.78076172 1.99511719 14.78076172 C1.46031738 15.02310547 0.92551758 15.26544922 0.37451172 15.51513672 C-2.04189732 16.60753637 -4.46083861 17.69421076 -6.87988281 18.78076172 C-7.72164063 19.16232422 -8.56339844 19.54388672 -9.43066406 19.93701172 C-10.23632812 20.29794922 -11.04199219 20.65888672 -11.87207031 21.03076172 C-12.61569824 21.36591797 -13.35932617 21.70107422 -14.12548828 22.04638672 C-16.00488281 22.78076172 -16.00488281 22.78076172 -18.00488281 22.78076172 C-19.46551132 20.13337256 -20.00488281 18.88627838 -20.00488281 15.78076172 C-17.38179182 14.60963226 -14.7566014 13.44370208 -12.12988281 12.28076172 C-11.38351562 11.94689453 -10.63714844 11.61302734 -9.86816406 11.26904297 C-8.79501953 10.7953125 -8.79501953 10.7953125 -7.70019531 10.31201172 C-6.71043701 9.87211914 -6.71043701 9.87211914 -5.70068359 9.42333984 C-4.00488281 8.78076172 -4.00488281 8.78076172 -2.00488281 8.78076172 C-2.33488281 8.01763672 -2.66488281 7.25451172 -3.00488281 6.46826172 C-4.00488281 3.78076172 -4.00488281 3.78076172 -4.00488281 0.78076172 C-2.00488281 -0.21923828 -2.00488281 -0.21923828 0 0 Z " fill="#000000" transform="translate(449.0048828125,152.21923828125)"/>
<path d="M0 0 C7.23589973 0.60299164 13.99370876 2.1150587 21 4 C21 5.65 21 7.3 21 9 C17.67465243 10.10844919 15.37817425 9.84454356 12 9 C11.8453125 10.8871875 11.8453125 10.8871875 11.6875 12.8125 C11.08409509 18.3851218 9.59309067 23.63960058 8 29 C6.02 28.67 4.04 28.34 2 28 C2.39822174 23.47284761 2.89410264 19.08763472 4.0625 14.6875 C5.16426585 10.98802228 5.16426585 10.98802228 5 7 C3.02 6.34 1.04 5.68 -1 5 C-0.67 3.35 -0.34 1.7 0 0 Z " fill="#000000" transform="translate(194,439)"/>
<path d="M0 0 C1.65 0 3.3 0 5 0 C5.02700675 2.91672884 5.04684237 5.83320677 5.0625 8.75 C5.07087891 9.575 5.07925781 10.4 5.08789062 11.25 C5.09272461 12.44882812 5.09272461 12.44882812 5.09765625 13.671875 C5.10551147 14.77160645 5.10551147 14.77160645 5.11352539 15.89355469 C4.9975109 18.0461849 4.59073271 19.9314135 4 22 C2.35 22 0.7 22 -1 22 C-1 19.36 -1 16.72 -1 14 C-7.6 14 -14.2 14 -21 14 C-21 11.69 -21 9.38 -21 7 C-14.07 7 -7.14 7 0 7 C0 4.69 0 2.38 0 0 Z " fill="#000000" transform="translate(468,245)"/>
<path d="M0 0 C6.93 0.33 13.86 0.66 21 1 C21 2.98 21 4.96 21 7 C18.36 7 15.72 7 13 7 C13.01160156 7.67804688 13.02320313 8.35609375 13.03515625 9.0546875 C13.09708351 15.44204207 12.77018868 21.65969676 12 28 C10.02 27.67 8.04 27.34 6 27 C5.90266908 19.90565767 5.89912807 13.01805857 7 6 C4.69 6 2.38 6 0 6 C0 4.02 0 2.04 0 0 Z " fill="#000000" transform="translate(224,445)"/>
<path d="M0 0 C11.625 -0.25 11.625 -0.25 15 2 C16.20029696 6.24720463 16.02782833 8.19782188 14 12 C14.26676204 13.98491642 14.26676204 13.98491642 15 16 C15.34060811 17.66519519 15.67558396 19.33157466 16 21 C14.35 21 12.7 21 11 21 C10.566875 20.030625 10.13375 19.06125 9.6875 18.0625 C8.2985139 14.72268235 8.2985139 14.72268235 5 14 C5 16.31 5 18.62 5 21 C3.35 21 1.7 21 0 21 C0 14.07 0 7.14 0 0 Z M5 4 C5 5.98 5 7.96 5 10 C6.65 9.67 8.3 9.34 10 9 C10 7.68 10 6.36 10 5 C8.35 4.67 6.7 4.34 5 4 Z " fill="#000000" transform="translate(1095,258)"/>
<path d="M0 0 C11.79310345 0 11.79310345 0 15 3 C15.9375 5.4375 15.9375 5.4375 16 8 C15.33333333 9.33333333 14.66666667 10.66666667 14 12 C14.25475806 14.52391899 14.25475806 14.52391899 15 17 C15.185625 17.763125 15.37125 18.52625 15.5625 19.3125 C15.706875 19.869375 15.85125 20.42625 16 21 C14.35 21 12.7 21 11 21 C10.566875 20.030625 10.13375 19.06125 9.6875 18.0625 C8.2985139 14.72268235 8.2985139 14.72268235 5 14 C5 16.31 5 18.62 5 21 C3.35 21 1.7 21 0 21 C0 14.07 0 7.14 0 0 Z M5 4 C5 5.98 5 7.96 5 10 C6.98 9.67 8.96 9.34 11 9 C10.67 7.68 10.34 6.36 10 5 C8.35 4.67 6.7 4.34 5 4 Z " fill="#000000" transform="translate(474,8)"/>
<path d="M0 0 C2.16874252 0.50603992 3.99967627 0.99983813 6 2 C5.43047883 5.81549676 4.36587116 8.41280989 2.27734375 11.64453125 C1.73916016 12.48564453 1.20097656 13.32675781 0.64648438 14.19335938 C0.08251953 15.05767578 -0.48144531 15.92199219 -1.0625 16.8125 C-1.63033203 17.69615234 -2.19816406 18.57980469 -2.78320312 19.49023438 C-4.18193044 21.66472641 -5.58766338 23.8343325 -7 26 C-9.475 25.01 -9.475 25.01 -12 24 C-11.61342782 17.87431771 -8.65004102 13.65437133 -5.4375 8.625 C-4.91736328 7.79355469 -4.39722656 6.96210938 -3.86132812 6.10546875 C-2.58287566 4.06463637 -1.29567597 2.02992419 0 0 Z " fill="#000000" transform="translate(146,417)"/>
<path d="M0 0 C0.33 1.65 0.66 3.3 1 5 C-2.26434208 7.01074559 -5.53747863 9.00670392 -8.8125 11 C-9.74126953 11.57234375 -10.67003906 12.1446875 -11.62695312 12.734375 C-12.9659668 13.54648438 -12.9659668 13.54648438 -14.33203125 14.375 C-15.56530151 15.12910156 -15.56530151 15.12910156 -16.82348633 15.8984375 C-19 17 -19 17 -22 17 C-22.66 15.02 -23.32 13.04 -24 11 C-20.76234652 8.95885124 -17.50812561 6.9457799 -14.25 4.9375 C-13.32960938 4.35677734 -12.40921875 3.77605469 -11.4609375 3.17773438 C-10.57148438 2.63310547 -9.68203125 2.08847656 -8.765625 1.52734375 C-7.94868164 1.01937256 -7.13173828 0.51140137 -6.29003906 -0.01196289 C-3.66696787 -1.14368668 -2.61914354 -1.01241994 0 0 Z " fill="#000000" transform="translate(442,137)"/>
<path d="M0 0 C2.475 1.485 2.475 1.485 5 3 C3.35996677 7.01325779 0.55124416 9.88894042 -2.375 13 C-2.85710937 13.52078125 -3.33921875 14.0415625 -3.8359375 14.578125 C-6.49997036 17.44485602 -9.21310717 20.25273123 -12 23 C-13.32 22.34 -14.64 21.68 -16 21 C-16 16.62095107 -15.83739692 16.31391911 -13.0625 13.3125 C-12.4334375 12.62800781 -11.804375 11.94351563 -11.15625 11.23828125 C-7.49286273 7.43552599 -3.77196069 3.6949819 0 0 Z " fill="#000000" transform="translate(401,88)"/>
<path d="M0 0 C2.20549731 8.62927587 4.39840797 17.23339098 6 26 C3.69 26.33 1.38 26.66 -1 27 C-1.84043997 23.4182952 -2.67110899 19.83439357 -3.5 16.25 C-3.85771484 14.72632813 -3.85771484 14.72632813 -4.22265625 13.171875 C-4.56103516 11.70234375 -4.56103516 11.70234375 -4.90625 10.203125 C-5.11572266 9.30239258 -5.32519531 8.40166016 -5.54101562 7.47363281 C-6 5 -6 5 -6 1 C-3 0 -3 0 0 0 Z " fill="#000000" transform="translate(296,441)"/>
<path d="M0 0 C1.98 0 3.96 0 6 0 C5.43708547 9.16191918 3.79203512 18.01728306 2 27 C0.02 26.67 -1.96 26.34 -4 26 C-2.59836066 5.19672131 -2.59836066 5.19672131 0 0 Z " fill="#000000" transform="translate(217,444)"/>
<path d="M0 0 C2 1.625 2 1.625 3 4 C2.67272727 10.32727273 2.67272727 10.32727273 0 13 C-3.05653048 13.55098747 -5.94249057 13.54219089 -9 13 C-11.125 10.875 -11.125 10.875 -12 8 C-11.93058104 4.52905199 -11.61574088 2.73415259 -9.375 0.0625 C-5.88680246 -1.49800943 -3.63567102 -0.99154664 0 0 Z " fill="#000000" transform="translate(746,268)"/>
<path d="M0 0 C1.51186959 3.41153553 3.00739131 6.8299987 4.5 10.25 C4.92925781 11.21808594 5.35851562 12.18617187 5.80078125 13.18359375 C6.20683594 14.11816406 6.61289063 15.05273438 7.03125 16.015625 C7.40830078 16.87446289 7.78535156 17.73330078 8.17382812 18.61816406 C9 21 9 21 9 25 C7.35 25.66 5.7 26.32 4 27 C-6 7.76595745 -6 7.76595745 -6 2 C-2.25 0 -2.25 0 0 0 Z " fill="#000000" transform="translate(167,45)"/>
<path d="M0 0 C2.46324069 3.69486103 2.38991688 5.63293092 2 10 C1 11.9375 1 11.9375 -1 13 C-4.56102656 13.52673518 -7.7413581 13.62932095 -11 12 C-12.63411467 8.73177066 -12.64489957 5.56547924 -12 2 C-8.84184661 -2.34246091 -4.67986406 -1.0567435 0 0 Z " fill="#000000" transform="translate(970,268)"/>
</svg>
