<?xml version="1.0" encoding="UTF-8"?>
<svg version="1.1" xmlns="http://www.w3.org/2000/svg" width="500" height="500">
<path d="M0 0 C0.53625 0.598125 1.0725 1.19625 1.625 1.8125 C1.810625 0.6059375 1.810625 0.6059375 2 -0.625 C2.20625 -1.470625 2.4125 -2.31625 2.625 -3.1875 C5.75239336 -4.75119668 9.08627569 -4.3504512 12.51953125 -4.35546875 C13.3039006 -4.35879715 14.08826996 -4.36212555 14.89640808 -4.36555481 C16.55829278 -4.37062213 18.22018766 -4.3729632 19.88208008 -4.37280273 C22.4170019 -4.37498237 24.95148373 -4.39312085 27.48632812 -4.41210938 C29.10156101 -4.41504476 30.71679597 -4.41702858 32.33203125 -4.41796875 C33.08740677 -4.42515427 33.84278229 -4.43233978 34.62104797 -4.43974304 C38.71454262 -4.42210203 42.00408321 -4.17455246 45.625 -2.1875 C47.4375 0.4375 47.4375 0.4375 48.625 2.8125 C49.615 0.5025 50.605 -1.8075 51.625 -4.1875 C83.29166667 -4.1875 114.95833333 -4.1875 146.625 -4.1875 C148.33393433 -4.20321045 148.33393433 -4.20321045 150.07739258 -4.21923828 C154.01225646 -4.25529589 157.94709956 -4.27836656 161.88208008 -4.29736328 C163.58034751 -4.30742276 165.27859761 -4.3210719 166.97680664 -4.33837891 C169.42859127 -4.36270832 171.88014772 -4.3739987 174.33203125 -4.3828125 C175.08740677 -4.39313507 175.84278229 -4.40345764 176.62104797 -4.41409302 C180.73402504 -4.41496331 183.96371759 -4.12145819 187.625 -2.1875 C189.625 -0.1875 189.625 -0.1875 190.625 3.8125 C191.615 1.1725 192.605 -1.4675 193.625 -4.1875 C197.915 -4.1875 202.205 -4.1875 206.625 -4.1875 C206.92244257 3.94259679 206.18609883 10.96849235 204.28125 18.87890625 C203.51584694 21.79942353 203.51584694 21.79942353 203.625 24.8125 C204.33076172 23.54792969 204.33076172 23.54792969 205.05078125 22.2578125 C205.67339844 21.16210938 206.29601562 20.06640625 206.9375 18.9375 C207.85982422 17.30167969 207.85982422 17.30167969 208.80078125 15.6328125 C210.625 12.8125 210.625 12.8125 213.625 10.8125 C215.65665952 15.14670699 216.14560632 19.09846212 216.625 23.8125 C216.87894531 22.966875 217.13289063 22.12125 217.39453125 21.25 C219.28635493 15.0147759 221.27926344 8.89009018 223.625 2.8125 C223.99625 1.678125 224.3675 0.54375 224.75 -0.625 C225.625 -3.1875 225.625 -3.1875 226.625 -4.1875 C228.81139453 -4.26008946 231.00000389 -4.27123783 233.1875 -4.25 C234.98380859 -4.23646484 234.98380859 -4.23646484 236.81640625 -4.22265625 C237.74324219 -4.21105469 238.67007812 -4.19945312 239.625 -4.1875 C239.955 -1.8775 240.285 0.4325 240.625 2.8125 C241.73875 1.636875 241.73875 1.636875 242.875 0.4375 C247.23193189 -3.72138953 249.95411437 -4.44102141 255.96484375 -4.453125 C257.19267578 -4.45570313 258.42050781 -4.45828125 259.68554688 -4.4609375 C261.60463867 -4.44933594 261.60463867 -4.44933594 263.5625 -4.4375 C264.83802734 -4.44523438 266.11355469 -4.45296875 267.42773438 -4.4609375 C269.27141602 -4.45707031 269.27141602 -4.45707031 271.15234375 -4.453125 C272.27374756 -4.45086914 273.39515137 -4.44861328 274.55053711 -4.44628906 C278.80229421 -4.08840273 281.63607363 -3.34693091 284.4375 -0.0625 C284.829375 0.55625 285.22125 1.175 285.625 1.8125 C287.11 -1.1575 287.11 -1.1575 288.625 -4.1875 C293.6603859 -4.23704963 298.6956289 -4.27329037 303.73120117 -4.29736328 C305.44314039 -4.30740208 307.15506255 -4.32103595 308.86694336 -4.33837891 C311.33191142 -4.36272073 313.79665215 -4.37400438 316.26171875 -4.3828125 C317.40419319 -4.39829636 317.40419319 -4.39829636 318.56974792 -4.41409302 C322.69908811 -4.41495894 325.94980862 -4.13286318 329.625 -2.1875 C331.625 -0.1875 331.625 -0.1875 331.625 2.8125 C332.285 2.8125 332.945 2.8125 333.625 2.8125 C334.285 0.5025 334.945 -1.8075 335.625 -4.1875 C339.915 -4.1875 344.205 -4.1875 348.625 -4.1875 C349.73365883 0.24713531 349.3028703 2.50737415 348.375 6.9375 C348.23731201 7.5982251 348.09962402 8.2589502 347.95776367 8.93969727 C346.80412177 14.3257588 345.3588032 19.58649745 343.625 24.8125 C344.285 24.8125 344.945 24.8125 345.625 24.8125 C345.625 24.1525 345.625 23.4925 345.625 22.8125 C346.285 22.8125 346.945 22.8125 347.625 22.8125 C348.02464966 21.92739746 348.02464966 21.92739746 348.43237305 21.02441406 C349.64925912 18.76750766 350.92024557 17.24913118 352.70703125 15.421875 C353.30966797 14.79410156 353.91230469 14.16632813 354.53320312 13.51953125 C355.78922664 12.22872555 357.04700274 10.93962259 358.30664062 9.65234375 C361.44801546 6.37409711 363.9721839 3.35825762 366.1484375 -0.640625 C367.33618164 -2.64355469 367.33618164 -2.64355469 368.625 -4.1875 C371.95703125 -4.96875 371.95703125 -4.96875 375.4375 -4.6875 C376.59894531 -4.6153125 377.76039063 -4.543125 378.95703125 -4.46875 C380.27767578 -4.32953125 380.27767578 -4.32953125 381.625 -4.1875 C382.856394 -1.72471199 382.69659196 0.0920055 382.625 2.8125 C383.04910156 2.39097656 383.47320312 1.96945313 383.91015625 1.53515625 C384.49667969 0.98730469 385.08320313 0.43945312 385.6875 -0.125 C386.54021484 -0.94291016 386.54021484 -0.94291016 387.41015625 -1.77734375 C393.32177012 -5.54117551 402.00172857 -4.40478111 408.75 -4.4375 C410.35681641 -4.4684375 410.35681641 -4.4684375 411.99609375 -4.5 C413.03121094 -4.50515625 414.06632812 -4.5103125 415.1328125 -4.515625 C416.06754395 -4.5249707 417.00227539 -4.53431641 417.96533203 -4.54394531 C421.75890462 -4.03553555 424.57561 -2.53671571 426.9375 0.5 C428.11011863 4.44426265 428.49696713 9.06856575 426.625 12.8125 C421.44452275 14.71553246 417.12160457 15.00536332 411.625 14.8125 C411.295 14.1525 410.965 13.4925 410.625 12.8125 C407.91053021 12.50008545 405.28590639 12.29913408 402.5625 12.1875 C401.80388672 12.14882812 401.04527344 12.11015625 400.26367188 12.0703125 C398.38452805 11.97576438 396.50479664 11.89303244 394.625 11.8125 C393.965 16.1025 393.305 20.3925 392.625 24.8125 C393.57375 24.77125 394.5225 24.73 395.5 24.6875 C404.38889791 24.75918466 411.87815173 26.77261078 418.625 32.8125 C421.71750249 42.09000748 418.51022139 52.6540447 414.4921875 61.23046875 C414.20601563 61.75253906 413.91984375 62.27460938 413.625 62.8125 C412.965 62.8125 412.305 62.8125 411.625 62.8125 C410.965 64.1325 410.305 65.4525 409.625 66.8125 C408.965 66.8125 408.305 66.8125 407.625 66.8125 C407.625 67.4725 407.625 68.1325 407.625 68.8125 C402.18553646 70.49395721 396.41623871 70.03680488 390.78051758 70.05273438 C388.69767501 70.06245253 386.61581499 70.09350865 384.53320312 70.125 C382.55416992 70.13273437 382.55416992 70.13273437 380.53515625 70.140625 C379.32996338 70.1499707 378.12477051 70.15931641 376.88305664 70.16894531 C373.3293343 69.78015291 371.46119521 68.94833991 368.625 66.8125 C367.30270811 64.16791621 367.52822806 62.13488699 367.5625 59.1875 C367.57152344 58.18460937 367.58054687 57.18171875 367.58984375 56.1484375 C367.60724609 54.99214844 367.60724609 54.99214844 367.625 53.8125 C369.35181437 53.30443553 371.08157979 52.80639533 372.8125 52.3125 C373.77542969 52.0340625 374.73835938 51.755625 375.73046875 51.46875 C378.47845876 50.84572392 380.82098416 50.68947188 383.625 50.8125 C383.625 52.1325 383.625 53.4525 383.625 54.8125 C391.545 54.3175 391.545 54.3175 399.625 53.8125 C400.90166659 49.98250022 401.93782934 46.70646706 402.625 42.8125 C401.5525 42.709375 400.48 42.60625 399.375 42.5 C391.26462776 41.46094875 383.02602202 40.17551845 376.625 34.8125 C373.57582958 28.71415916 375.21292584 19.23291398 377.125 12.9375 C377.60496488 11.55537891 378.09683405 10.17692872 378.625 8.8125 C378.22410156 9.28558594 377.82320313 9.75867188 377.41015625 10.24609375 C373.29306838 15.03535923 368.97201218 19.52574578 364.4453125 23.9296875 C362.56116102 25.69003339 362.56116102 25.69003339 361.625 27.8125 C360.965 27.8125 360.305 27.8125 359.625 27.8125 C357.5935218 31.87545639 357.53612669 34.49819777 358.75 38.75 C359.79683851 41.86259982 360.98636245 44.63222788 362.6875 47.4375 C366.05681541 53.30663006 367.14634527 59.03501144 366.625 65.8125 C365.965 67.1325 365.305 68.4525 364.625 69.8125 C360.335 69.8125 356.045 69.8125 351.625 69.8125 C351.233125 68.554375 350.84125 67.29625 350.4375 66 C348.85932657 61.2123681 346.80346674 56.73074086 344.61328125 52.1953125 C343.625 49.8125 343.625 49.8125 343.625 46.8125 C342.635 46.8125 341.645 46.8125 340.625 46.8125 C340.625 47.4725 340.625 48.1325 340.625 48.8125 C339.965 48.8125 339.305 48.8125 338.625 48.8125 C336.57838738 54.69106816 334.83046211 60.59780795 333.2734375 66.625 C332.625 68.8125 332.625 68.8125 331.625 69.8125 C329.47941173 69.90025605 327.33095579 69.91945219 325.18359375 69.91015625 C323.87841797 69.90693359 322.57324219 69.90371094 321.22851562 69.90039062 C319.8398431 69.89203401 318.45117123 69.88356905 317.0625 69.875 C315.66992344 69.86998666 314.27734519 69.86542347 312.88476562 69.86132812 C309.4648013 69.84949434 306.04492156 69.8330088 302.625 69.8125 C300.56560507 66.00309053 299.98205904 62.38533289 299.5 58.125 C299.41508301 57.41472656 299.33016602 56.70445312 299.24267578 55.97265625 C298.66647672 50.89004725 298.44223029 45.93005197 298.625 40.8125 C295.985 40.8125 293.345 40.8125 290.625 40.8125 C290.66238281 41.96363281 290.69976562 43.11476563 290.73828125 44.30078125 C290.73534468 48.74577437 289.93938288 52.71784505 288.8125 57 C288.64685547 57.68513672 288.48121094 58.37027344 288.31054688 59.07617188 C287.29361099 63.06332803 286.3273361 66.66279729 283.625 69.8125 C280.7421875 70.3359375 280.7421875 70.3359375 277.5 70.1875 C276.42492187 70.15398437 275.34984375 70.12046875 274.2421875 70.0859375 C271.625 69.8125 271.625 69.8125 270.625 68.8125 C270.58419217 66.81291636 270.58245644 64.81204746 270.625 62.8125 C270.295 63.4725 269.965 64.1325 269.625 64.8125 C268.965 64.8125 268.305 64.8125 267.625 64.8125 C267.625 65.4725 267.625 66.1325 267.625 66.8125 C263.11171216 69.40883296 259.84203449 70.19622491 254.65234375 70.2109375 C253.34072266 70.21480469 252.02910156 70.21867187 250.67773438 70.22265625 C250.00186279 70.21637207 249.32599121 70.21008789 248.62963867 70.20361328 C246.56427215 70.18751381 244.50085409 70.20351258 242.43554688 70.22265625 C240.47004883 70.21685547 240.47004883 70.21685547 238.46484375 70.2109375 C236.67614868 70.20586182 236.67614868 70.20586182 234.85131836 70.20068359 C231.31642555 69.77537299 229.4214884 68.99021138 226.625 66.8125 C225.43818274 63.25204823 225.52810168 60.37441663 225.5625 56.625 C225.57152344 55.35269531 225.58054687 54.08039063 225.58984375 52.76953125 C225.60724609 51.30580078 225.60724609 51.30580078 225.625 49.8125 C225.36021851 50.66799438 225.36021851 50.66799438 225.09008789 51.54077148 C224.29244801 54.1115273 223.49004006 56.68076993 222.6875 59.25 C222.40970703 60.14783203 222.13191406 61.04566406 221.84570312 61.97070312 C221.57822266 62.82470703 221.31074219 63.67871094 221.03515625 64.55859375 C220.78902588 65.34935303 220.54289551 66.1401123 220.28930664 66.95483398 C219.625 68.8125 219.625 68.8125 218.625 69.8125 C216.29339945 69.91159302 213.95870058 69.94220504 211.625 69.9375 C210.34625 69.94007813 209.0675 69.94265625 207.75 69.9453125 C204.625 69.8125 204.625 69.8125 203.625 68.8125 C203.39136119 66.96358054 203.21196365 65.10761969 203.0625 63.25 C202.93681641 61.73212891 202.93681641 61.73212891 202.80859375 60.18359375 C202.74800781 59.40113281 202.68742187 58.61867188 202.625 57.8125 C201.965 57.8125 201.305 57.8125 200.625 57.8125 C200.625 58.8025 200.625 59.7925 200.625 60.8125 C199.965 60.8125 199.305 60.8125 198.625 60.8125 C198.50125 61.39 198.3775 61.9675 198.25 62.5625 C197.61083433 64.86349641 196.83194364 66.75359615 195.625 68.8125 C192.75866205 70.24566898 190.25264499 69.94450361 187.0625 69.9375 C185.29712891 69.94136719 185.29712891 69.94136719 183.49609375 69.9453125 C180.625 69.8125 180.625 69.8125 179.625 68.8125 C179.85199621 60.79778779 181.45012674 52.72863634 182.625 44.8125 C182.40585938 45.71871094 182.18671875 46.62492187 181.9609375 47.55859375 C178.02564133 62.67589003 178.02564133 62.67589003 172.625 67.8125 C168.5955674 69.40792139 165.21200179 70.06123715 160.89224243 70.05300903 C159.77332611 70.05575836 158.65440979 70.05850769 157.50158691 70.06134033 C156.28886108 70.05414978 155.07613525 70.04695923 153.82666016 70.03955078 C151.89413895 70.03998886 151.89413895 70.03998886 149.9225769 70.04043579 C146.40232702 70.04100808 142.88221427 70.0292739 139.36199617 70.01528788 C135.67846153 70.00275983 131.99492351 70.00160838 128.31137085 69.99923706 C121.34167808 69.99302838 114.37204829 69.97662586 107.40238321 69.95653808 C99.46528182 69.93416002 91.52817739 69.92318086 83.59105229 69.91314721 C67.26899804 69.89225907 50.94700706 69.85709502 34.625 69.8125 C33.88751612 66.40974427 33.54696059 63.96860603 34.296875 60.5546875 C34.46541992 59.76876221 34.63396484 58.98283691 34.80761719 58.1730957 C34.99485352 57.35284912 35.18208984 56.53260254 35.375 55.6875 C35.5596582 54.84598389 35.74431641 54.00446777 35.93457031 53.13745117 C37.30622484 46.97625859 38.82961761 40.86511487 40.625 34.8125 C39.965 34.8125 39.305 34.8125 38.625 34.8125 C38.625 35.4725 38.625 36.1325 38.625 36.8125 C37.965 36.8125 37.305 36.8125 36.625 36.8125 C36.625 37.4725 36.625 38.1325 36.625 38.8125 C30.64131659 41.47891331 24.65977075 41.03564726 18.25 40.9375 C17.13238281 40.92847656 16.01476562 40.91945313 14.86328125 40.91015625 C12.11696538 40.88668346 9.37109528 40.85384728 6.625 40.8125 C6.65207031 41.84632813 6.67914063 42.88015625 6.70703125 43.9453125 C6.56194616 50.78503823 4.72955746 64.70794254 -0.375 69.8125 C-2.39464199 69.88494053 -4.41667124 69.89627188 -6.4375 69.875 C-7.54222656 69.86597656 -8.64695313 69.85695313 -9.78515625 69.84765625 C-10.63980469 69.83605469 -11.49445312 69.82445312 -12.375 69.8125 C-12.705 67.8325 -13.035 65.8525 -13.375 63.8125 C-14.303125 64.616875 -15.23125 65.42125 -16.1875 66.25 C-21.98752611 71.27668929 -29.95771654 70.38004371 -37.26464844 70.71289062 C-39.07566405 70.79837123 -40.88566385 70.90491708 -42.6953125 71.015625 C-48.84846688 71.25558088 -52.3800389 70.50442777 -57.375 66.8125 C-58.61387548 64.33474905 -58.54241669 62.57596293 -58.5625 59.8125 C-58.57667969 58.925625 -58.59085938 58.03875 -58.60546875 57.125 C-58.375 54.8125 -58.375 54.8125 -56.375 52.8125 C-51.92083862 51.4981573 -48.04676685 50.52051457 -43.375 50.8125 C-43.045 52.1325 -42.715 53.4525 -42.375 54.8125 C-33.96 54.3175 -33.96 54.3175 -25.375 53.8125 C-24.715 50.1825 -24.055 46.5525 -23.375 42.8125 C-24.6434375 42.86664063 -24.6434375 42.86664063 -25.9375 42.921875 C-29.68182549 42.80273737 -32.77559785 42.08864535 -36.375 41.0625 C-37.550625 40.73765625 -38.72625 40.4128125 -39.9375 40.078125 C-44.23547651 38.49568819 -48.24465433 36.90109718 -50.50390625 32.7265625 C-52.30497698 23.21820713 -50.3174302 12.86717888 -45.52734375 4.42578125 C-42.25367655 -0.15735283 -38.42795355 -2.72323731 -32.9140625 -3.8515625 C-7.79063533 -7.17558517 -7.79063533 -7.17558517 0 0 Z M-33.34375 12 C-34.69412211 14.37338128 -34.88604144 16.28253825 -35.0625 19 C-35.12824219 19.90105469 -35.19398437 20.80210937 -35.26171875 21.73046875 C-35.31779297 22.76107422 -35.31779297 22.76107422 -35.375 23.8125 C-31.05648836 26.17284682 -27.13352298 27.4827381 -22.3125 28.4375 C-20.53166016 28.79714844 -20.53166016 28.79714844 -18.71484375 29.1640625 C-17.61269531 29.37804687 -16.51054688 29.59203125 -15.375 29.8125 C-13.70824803 30.14540652 -12.04154539 30.47856085 -10.375 30.8125 C-10.375 31.4725 -10.375 32.1325 -10.375 32.8125 C-9.715 32.8125 -9.055 32.8125 -8.375 32.8125 C-8.375 35.7825 -8.375 38.7525 -8.375 41.8125 C-5.00115283 38.43865283 -4.24623777 35.72022615 -3.1875 31.25 C-3.0131543 30.53779297 -2.83880859 29.82558594 -2.65917969 29.09179688 C-1.39433841 23.62154401 -0.88895325 18.4290402 -1.375 12.8125 C-6.44062383 12.55921881 -10.53258367 13.47666101 -15.375 14.8125 C-15.375 13.4925 -15.375 12.1725 -15.375 10.8125 C-17.97978883 10.7315687 -20.58206653 10.67204566 -23.1875 10.625 C-23.92548828 10.59986328 -24.66347656 10.57472656 -25.42382812 10.54882812 C-29.57535464 10.46894568 -29.57535464 10.46894568 -33.34375 12 Z M14.625 10.8125 C12.7405829 14.5813342 12.29070538 16.49262475 12 20.5625 C11.92523438 21.54734375 11.85046875 22.5321875 11.7734375 23.546875 C11.72445312 24.29453125 11.67546875 25.0421875 11.625 25.8125 C13.68593408 26.035793 15.7488839 26.24052887 17.8125 26.4375 C18.96105469 26.55351562 20.10960938 26.66953125 21.29296875 26.7890625 C24.75008728 26.81337986 26.67593639 26.6030029 29.625 24.8125 C30.87217215 22.57378514 30.87217215 22.57378514 31.4375 19.9375 C31.67082031 19.07382813 31.90414062 18.21015625 32.14453125 17.3203125 C32.75044431 14.58331255 32.75044431 14.58331255 32.625 10.8125 C26.685 10.8125 20.745 10.8125 14.625 10.8125 Z M61.625 12.8125 C60.6008672 15.91426346 60.6008672 15.91426346 59.9375 19.4375 C59.2878125 22.593125 59.2878125 22.593125 58.625 25.8125 C64.895 25.8125 71.165 25.8125 77.625 25.8125 C77.10416667 28.25390625 76.58333333 30.6953125 76.0625 33.13671875 C75.49053249 36.18302758 75.49053249 36.18302758 75.625 40.8125 C68.365 40.8125 61.105 40.8125 53.625 40.8125 C52.965 45.7625 52.305 50.7125 51.625 55.8125 C67.465 56.3075 67.465 56.3075 83.625 56.8125 C86.016073 48.11041242 86.016073 48.11041242 88.16015625 39.3671875 C88.41216797 38.27019531 88.66417969 37.17320312 88.92382812 36.04296875 C89.17583984 34.93566406 89.42785156 33.82835937 89.6875 32.6875 C89.94337891 31.57246094 90.19925781 30.45742187 90.46289062 29.30859375 C91.87414063 23.14843307 93.2616547 16.98343137 94.625 10.8125 C90.40748718 10.76303887 86.19012832 10.72675173 81.97241211 10.70263672 C80.53781188 10.692583 79.10323211 10.67893806 77.66870117 10.66162109 C75.60590562 10.63734451 73.54338115 10.62601081 71.48046875 10.6171875 C70.23934326 10.60671387 68.99821777 10.59624023 67.71948242 10.58544922 C64.45596691 10.5696193 64.45596691 10.5696193 61.625 12.8125 Z M109.625 10.8125 C107.84913995 14.3642201 107.13872154 16.73017077 106.5 20.5625 C106.21125 22.295 105.9225 24.0275 105.625 25.8125 C111.565 26.1425 117.505 26.4725 123.625 26.8125 C123.625 33.8125 123.625 33.8125 122.625 40.8125 C115.695 40.8125 108.765 40.8125 101.625 40.8125 C100.25970047 44.9083986 99.37091788 47.60740331 99 51.6875 C98.88785156 52.85925781 98.88785156 52.85925781 98.7734375 54.0546875 C98.72445312 54.63476562 98.67546875 55.21484375 98.625 55.8125 C102.9317911 57.96589555 108.53662779 57.34403376 113.31860352 57.53491211 C114.72624951 57.59476018 116.13353928 57.66370926 117.5402832 57.74194336 C119.57466558 57.85495133 121.60858918 57.94020517 123.64453125 58.01953125 C124.86245361 58.0760083 126.08037598 58.13248535 127.33520508 58.19067383 C131.32039938 57.73256133 132.86027346 56.67165327 135.625 53.8125 C136.64287006 51.99004704 136.64287006 51.99004704 137.03125 50.00390625 C137.21534424 49.2665625 137.39943848 48.52921875 137.58911133 47.76953125 C137.85437622 46.58423828 137.85437622 46.58423828 138.125 45.375 C138.32440186 44.55257812 138.52380371 43.73015625 138.72924805 42.8828125 C139.15374875 41.1219207 139.56974888 39.35896191 139.97802734 37.59423828 C140.64600403 34.72219061 141.34496823 31.85906276 142.05078125 28.99609375 C143.39103215 23.51659834 143.39103215 23.51659834 144.70703125 18.03125 C144.88468018 17.28810547 145.0623291 16.54496094 145.24536133 15.77929688 C145.71976272 13.65541234 145.71976272 13.65541234 145.625 10.8125 C133.745 10.8125 121.865 10.8125 109.625 10.8125 Z M159.625 10.8125 C156.76428148 19.74836697 154.40555842 28.64185894 152.4375 37.8125 C152.17775391 38.99972656 151.91800781 40.18695313 151.65039062 41.41015625 C150.60460658 46.20400869 149.57612993 50.9988883 148.625 55.8125 C150.35222728 56.03634382 152.08196007 56.24089969 153.8125 56.4375 C154.77542969 56.55351562 155.73835937 56.66953125 156.73046875 56.7890625 C159.97219686 56.81531131 161.81747743 56.42924576 164.625 54.8125 C169.33172522 47.23361978 170.40774754 36.52011392 172.19775391 27.85351562 C172.56453372 26.10135608 172.95744878 24.35470322 173.35546875 22.609375 C173.54753906 21.74828125 173.73960937 20.8871875 173.9375 20 C174.09863281 19.29230469 174.25976562 18.58460938 174.42578125 17.85546875 C174.77457329 15.3021417 174.77457329 15.3021417 173.625 10.8125 C169.005 10.8125 164.385 10.8125 159.625 10.8125 Z M251.625 10.8125 C249.75064443 13.62403335 249.16061967 15.1477524 248.44140625 18.34765625 C248.23580078 19.24033203 248.03019531 20.13300781 247.81835938 21.05273438 C247.61017578 21.98408203 247.40199219 22.91542969 247.1875 23.875 C245.949789 29.35294488 244.67708814 34.75800699 242.9765625 40.11328125 C241.83448527 43.82182418 241.28706214 47.02611565 241.4375 50.9375 C241.46457031 51.86820312 241.49164063 52.79890625 241.51953125 53.7578125 C241.55433594 54.43585938 241.58914063 55.11390625 241.625 55.8125 C246.80069664 57.53773221 252.3504392 57.3811402 257.625 56.0625 C260.56243939 54.22660038 261.31260103 51.88481095 262.26342773 48.62109375 C262.53328491 47.44740234 262.53328491 47.44740234 262.80859375 46.25 C263.01266846 45.37609619 263.21674316 44.50219238 263.42700195 43.60180664 C263.63671631 42.68133545 263.84643066 41.76086426 264.0625 40.8125 C264.50188707 38.91519837 264.94198736 37.01806177 265.3828125 35.12109375 C265.59454102 34.2069873 265.80626953 33.29288086 266.02441406 32.35107422 C266.9811229 28.30722931 268.05019833 24.29367961 269.14453125 20.28515625 C269.70500388 17.40077272 269.77093873 14.74378363 269.625 11.8125 C267.51543868 9.70293868 263.09216878 10.58137681 260.1875 10.5625 C259.39794922 10.541875 258.60839844 10.52125 257.79492188 10.5 C255.23561392 10.44776414 255.23561392 10.44776414 251.625 10.8125 Z M297.625 10.8125 C295.83029538 18.45081785 295.83029538 18.45081785 295.625 25.8125 C297.68593408 26.035793 299.7488839 26.24052887 301.8125 26.4375 C302.96105469 26.55351562 304.10960937 26.66953125 305.29296875 26.7890625 C308.71637442 26.81314273 310.6530848 26.47358832 313.625 24.8125 C316.58085368 19.61427456 316.625 17.0613012 316.625 10.8125 C310.355 10.8125 304.085 10.8125 297.625 10.8125 Z M185.625 27.8125 C186.625 29.8125 186.625 29.8125 186.625 29.8125 Z M230.625 29.8125 C231.625 31.8125 231.625 31.8125 231.625 31.8125 Z M184.625 32.8125 C183.27060332 35.52129335 183.55998549 37.82183268 183.625 40.8125 C183.955 40.8125 184.285 40.8125 184.625 40.8125 C184.955 38.1725 185.285 35.5325 185.625 32.8125 C185.295 32.8125 184.965 32.8125 184.625 32.8125 Z M319 37.3125 C318.18273437 37.7765625 317.36546875 38.240625 316.5234375 38.71875 C315.89695312 39.0796875 315.27046875 39.440625 314.625 39.8125 C314.38408465 47.0399605 315.28004172 53.71544338 316.625 60.8125 C317.615 60.8125 318.605 60.8125 319.625 60.8125 C320.63097015 57.04323331 321.62874802 53.27184588 322.625 49.5 C322.91117187 48.42814453 323.19734375 47.35628906 323.4921875 46.25195312 C323.89824219 44.70991211 323.89824219 44.70991211 324.3125 43.13671875 C324.56386719 42.18885498 324.81523437 41.24099121 325.07421875 40.2644043 C325.73458618 37.74349111 325.73458618 37.74349111 325.625 34.8125 C322.88248805 34.8125 321.36994155 35.95824768 319 37.3125 Z M228.625 36.8125 C229.625 39.8125 229.625 39.8125 229.625 39.8125 Z M226.625 42.8125 C227.625 45.8125 227.625 45.8125 227.625 45.8125 Z M-10.375 49.8125 C-9.375 52.8125 -9.375 52.8125 -9.375 52.8125 Z M-12.375 56.8125 C-12.045 57.8025 -11.715 58.7925 -11.375 59.8125 C-11.375 58.8225 -11.375 57.8325 -11.375 56.8125 C-11.705 56.8125 -12.035 56.8125 -12.375 56.8125 Z " fill="#121212" transform="translate(66.375,217.1875)"/>
<path d="M0 0 C0.33 0 0.66 0 1 0 C1.125 5.75 1.125 5.75 0 8 C-0.2275015 9.87056791 -0.40962811 11.74685958 -0.5625 13.625 C-0.64628906 14.62789063 -0.73007812 15.63078125 -0.81640625 16.6640625 C-0.87699219 17.43492187 -0.93757813 18.20578125 -1 19 C-1.33 19 -1.66 19 -2 19 C-2.06058594 18.30132812 -2.12117188 17.60265625 -2.18359375 16.8828125 C-2.26738281 15.97273438 -2.35117187 15.06265625 -2.4375 14.125 C-2.51871094 13.22007812 -2.59992188 12.31515625 -2.68359375 11.3828125 C-2.86989285 8.98889139 -2.86989285 8.98889139 -4 7 C-3.67 6.34 -3.34 5.68 -3 5 C-2.01 5 -1.02 5 0 5 C0 3.35 0 1.7 0 0 Z " fill="#525252" transform="translate(309,254)"/>
<path d="M0 0 C2.475 0.99 2.475 0.99 5 2 C4.04578192 3.14926266 3.08647955 4.29430541 2.125 5.4375 C1.59132813 6.07558594 1.05765625 6.71367187 0.5078125 7.37109375 C-1 9 -1 9 -3 10 C-2.625 7.5625 -2.625 7.5625 -2 5 C-1.34 4.67 -0.68 4.34 0 4 C0 2.68 0 1.36 0 0 Z " fill="#3B3B3B" transform="translate(435,229)"/>
<path d="M0 0 C0.66 0.33 1.32 0.66 2 1 C2 1.99 2 2.98 2 4 C1.34 4 0.68 4 0 4 C0.66 6.31 1.32 8.62 2 11 C0.68 11 -0.64 11 -2 11 C-1.34 7.37 -0.68 3.74 0 0 Z " fill="#404040" transform="translate(236,252)"/>
<path d="M0 0 C0.33 0 0.66 0 1 0 C1.66 2.31 2.32 4.62 3 7 C1.1875 8.5625 1.1875 8.5625 -1 10 C-1.99 9.67 -2.98 9.34 -4 9 C-3.34 8.67 -2.68 8.34 -2 8 C-1.31527335 6.11235097 -1.31527335 6.11235097 -0.875 3.9375 C-0.70742187 3.20402344 -0.53984375 2.47054688 -0.3671875 1.71484375 C-0.24601563 1.14894531 -0.12484375 0.58304687 0 0 Z " fill="#4E4E4E" transform="translate(203,263)"/>
<path d="M0 0 C0.33 0 0.66 0 1 0 C1.625 3.375 1.625 3.375 2 7 C1.34 7.66 0.68 8.32 0 9 C-0.71927295 11.31765729 -1.3909893 13.65095874 -2 16 C-3.26977059 12.19068824 -2.52074507 10.18381007 -1.5625 6.3125 C-1.27503906 5.13300781 -0.98757812 3.95351562 -0.69140625 2.73828125 C-0.46324219 1.83464844 -0.23507813 0.93101562 0 0 Z " fill="#616161" transform="translate(160,229)"/>
<path d="M0 0 C0.99 0.66 1.98 1.32 3 2 C2.67 3.32 2.34 4.64 2 6 C0.68 5.67 -0.64 5.34 -2 5 C-1.34 3.35 -0.68 1.7 0 0 Z " fill="#303030" transform="translate(253,215)"/>
<path d="M0 0 C0 4.31618166 -2.13270348 5.92789659 -5 9 C-5.66 9 -6.32 9 -7 9 C-5.44499019 5.18315774 -2.96404505 2.80804268 0 0 Z " fill="#565656" transform="translate(421,231)"/>
<path d="M0 0 C0.99 0.33 1.98 0.66 3 1 C3 1.66 3 2.32 3 3 C2.34 3 1.68 3 1 3 C1 3.66 1 4.32 1 5 C-0.32 4.67 -1.64 4.34 -3 4 C-3 3.34 -3 2.68 -3 2 C-2.01 1.34 -1.02 0.68 0 0 Z " fill="#393939" transform="translate(102,251)"/>
<path d="M0 0 C0.99 0 1.98 0 3 0 C2.67 1.32 2.34 2.64 2 4 C2.99 4.66 3.98 5.32 5 6 C3.02 6 1.04 6 -1 6 C-0.67 4.02 -0.34 2.04 0 0 Z " fill="#212121" transform="translate(52,226)"/>
<path d="M0 0 C0.66 1.32 1.32 2.64 2 4 C1.54625 4.4125 1.0925 4.825 0.625 5.25 C-1.05950374 7.06408095 -1.99265971 8.75285627 -3 11 C-2.53199289 6.94393835 -2.12046792 3.53411321 0 0 Z " fill="#595959" transform="translate(21,222)"/>
<path d="M0 0 C0.66 0.33 1.32 0.66 2 1 C1.2884375 1.8353125 1.2884375 1.8353125 0.5625 2.6875 C-1.12395996 5.18346074 -1.58953107 7.0446237 -2 10 C-2.33 10 -2.66 10 -3 10 C-3.36923077 3.47692308 -3.36923077 3.47692308 -1.5 1.0625 C-1.005 0.711875 -0.51 0.36125 0 0 Z " fill="#585858" transform="translate(445,233)"/>
</svg>
