<?xml version="1.0" encoding="UTF-8"?>
<svg version="1.1" xmlns="http://www.w3.org/2000/svg" width="225" height="225">
<path d="M0 0 C74.25 0 148.5 0 225 0 C225 74.25 225 148.5 225 225 C150.75 225 76.5 225 0 225 C0 150.75 0 76.5 0 0 Z " fill="#FEFEFE" transform="translate(0,0)"/>
<path d="M0 0 C0 41.58 0 83.16 0 126 C-74.25 126 -148.5 126 -225 126 C-225 93 -225 60 -225 26 C-201.57 26 -178.14 26 -154 26 C-154.99 29.465 -154.99 29.465 -156 33 C-155.20335937 32.98839844 -154.40671875 32.97679687 -153.5859375 32.96484375 C-143.06151142 32.87521968 -143.06151142 32.87521968 -138 34 C-137.505 33.01 -137.505 33.01 -137 32 C-137 32.66 -137 33.32 -137 34 C-135.20793453 33.85915204 -133.41635083 33.71216299 -131.625 33.5625 C-130.62726563 33.48128906 -129.62953125 33.40007812 -128.6015625 33.31640625 C-126.02072387 33.15034374 -126.02072387 33.15034374 -124 32 C-124 32.66 -124 33.32 -124 34 C-122.86569046 33.8934182 -122.86569046 33.8934182 -121.70846558 33.78468323 C-110.49016085 32.8483971 -99.31989872 32.87247677 -88.0703125 32.90234375 C-85.98281895 32.90421286 -83.89532496 32.90563443 -81.80783081 32.90663147 C-76.35983024 32.91041786 -70.91185706 32.92021424 -65.46386719 32.93133545 C-59.88607148 32.94163373 -54.30827126 32.94614698 -48.73046875 32.95117188 C-37.82030058 32.96184065 -26.91015258 32.97886948 -16 33 C-15.67816513 31.58237601 -15.35822455 30.16432189 -15.0390625 28.74609375 C-14.86068848 27.9564624 -14.68231445 27.16683105 -14.49853516 26.35327148 C-13.70530701 22.60893943 -13 18.83511501 -13 15 C-12.01 14.67 -11.02 14.34 -10 14 C-8.93741874 12.07089726 -8.93741874 12.07089726 -8.125 9.75 C-4.09748804 0 -4.09748804 0 0 0 Z " fill="#FEFEFE" transform="translate(225,99)"/>
<path d="M0 0 C17.49 0 34.98 0 53 0 C50.39576423 9.11482521 50.39576423 9.11482521 46 13 C43.01825538 13.69790162 40.22843297 13.57382043 37.1875 13.375 C36.39923828 13.34792969 35.61097656 13.32085937 34.79882812 13.29296875 C32.86469843 13.22263676 30.93198696 13.11502458 29 13 C29 13.99 29 14.98 29 16 C34.28 16 39.56 16 45 16 C45 16.99 45 17.98 45 19 C46.52419005 17.50341097 48.04414831 16.00251195 49.5625 14.5 C50.48289063 13.59507813 51.40328125 12.69015625 52.3515625 11.7578125 C54.62522929 9.39024796 56.50064258 7.01101571 58.4375 4.375 C60.59688206 1.78997051 61.50892101 1.08407059 64.875 0.5078125 C67.63189023 0.50077962 70.26793776 0.64428846 73 1 C73.20496094 1.77085938 73.40992187 2.54171875 73.62109375 3.3359375 C73.89050781 4.33882813 74.15992187 5.34171875 74.4375 6.375 C74.70433594 7.37273437 74.97117187 8.37046875 75.24609375 9.3984375 C75.90184356 11.95417701 75.90184356 11.95417701 77 14 C78.98 9.38 80.96 4.76 83 0 C87.62 0 92.24 0 97 0 C97.99 4.455 97.99 4.455 99 9 C103.19685235 6.49333159 103.19685235 6.49333159 106.38208008 2.89448547 C108 1 108 1 110.3112793 0.47428894 C111.22304932 0.46239029 112.13481934 0.45049164 113.07421875 0.43823242 C114.11786087 0.41533142 115.16150299 0.39243042 116.23677063 0.36883545 C117.94488167 0.36221893 117.94488167 0.36221893 119.6875 0.35546875 C120.87792404 0.33615295 122.06834808 0.31683716 123.29484558 0.29693604 C126.52735091 0.24981241 129.75935019 0.2209537 132.99212265 0.2016716 C135.66423189 0.18281185 138.33608245 0.14935063 141.00804806 0.11634159 C164.01629182 -0.16145067 187.00526687 0.1777607 210 1 C209.29920108 4.84172903 208.24403589 7.83839253 206.4375 11.3125 C205.98246094 12.19550781 205.52742187 13.07851562 205.05859375 13.98828125 C204.70925781 14.65214844 204.35992187 15.31601563 204 16 C203.01 16 202.02 16 201 16 C201.20625 17.051875 201.4125 18.10375 201.625 19.1875 C202.01670412 23.16982524 201.66557681 24.4935225 200 28 C199.34 30.31 198.68 32.62 198 35 C162.36 35 126.72 35 90 35 C89.67 34.01 89.34 33.02 89 32 C88.01 32.99 88.01 32.99 87 34 C84.31160615 34.26991906 81.70858064 34.08737357 79 34 C79 32.02 79 30.04 79 28 C76.2160817 29.39195915 76.02101003 31.15575779 75 34 C73.68 34 72.36 34 71 34 C70.67 32.35 70.34 30.7 70 29 C69.34 29 68.68 29 68 29 C67.67 30.65 67.34 32.3 67 34 C66.34 34 65.68 34 65 34 C65.33 31.36 65.66 28.72 66 26 C65.34 26 64.68 26 64 26 C63.814375 26.86625 63.814375 26.86625 63.625 27.75 C62.99351176 30.02335767 62.11141809 31.9253529 61 34 C60.34 34 59.68 34 59 34 C59.66 31.69 60.32 29.38 61 27 C37.9 26.67 14.8 26.34 -9 26 C-8.67 24.35 -8.34 22.7 -8 21 C-4.7 21 -1.4 21 2 21 C2.1546875 19.7315625 2.1546875 19.7315625 2.3125 18.4375 C3.0828854 14.58557299 4.36274514 11.55924969 6 8 C3.36 8 0.72 8 -2 8 C-1.125 2.25 -1.125 2.25 0 0 Z " fill="#D1D1D3" transform="translate(11,98)"/>
<path d="M0 0 C14.19 0 28.38 0 43 0 C38 12 38 12 34 14 C34.495 16.97 34.495 16.97 35 20 C33.35 23.96 31.7 27.92 30 32 C15.81 32 1.62 32 -13 32 C-11.61777376 27.85332129 -10.33435798 24.44059185 -8.375 20.625 C-7.92898437 19.75101563 -7.48296875 18.87703125 -7.0234375 17.9765625 C-6.68570313 17.32429688 -6.34796875 16.67203125 -6 16 C-5.01 16 -4.02 16 -3 16 C-3.2475 15.030625 -3.495 14.06125 -3.75 13.0625 C-4 9 -4 9 0 0 Z " fill="#242022" transform="translate(133,100)"/>
<path d="M0 0 C14.19 0 28.38 0 43 0 C39.34146341 10.97560976 39.34146341 10.97560976 37 14 C36.01 14 35.02 14 34 14 C34.268125 14.928125 34.53625 15.85625 34.8125 16.8125 C35 21 35 21 30 32 C16.14 32 2.28 32 -12 32 C-11.18155537 27.90777684 -10.41275874 25.46570984 -8.5625 21.875 C-8.13066406 21.02679688 -7.69882813 20.17859375 -7.25390625 19.3046875 C-6 17 -6 17 -4 14 C-3.855625 13.113125 -3.71125 12.22625 -3.5625 11.3125 C-3 8 -3 8 0 0 Z " fill="#242022" transform="translate(178,100)"/>
<path d="M0 0 C39.27 0 78.54 0 119 0 C118.67 1.32 118.34 2.64 118 4 C113.38 4 108.76 4 104 4 C104.99 4.33 105.98 4.66 107 5 C107.495 5.99 107.495 5.99 108 7 C108.33 6.34 108.66 5.68 109 5 C110.65 5 112.3 5 114 5 C114 7.64 114 10.28 114 13 C108.39 13 102.78 13 97 13 C96.505 11.515 96.505 11.515 96 10 C95.34 10.66 94.68 11.32 94 12 C91.31160615 12.26991906 88.70858064 12.08737357 86 12 C86 10.02 86 8.04 86 6 C83.2160817 7.39195915 83.02101003 9.15575779 82 12 C80.68 12 79.36 12 78 12 C77.505 9.525 77.505 9.525 77 7 C76.34 7 75.68 7 75 7 C74.67 8.65 74.34 10.3 74 12 C73.34 12 72.68 12 72 12 C72.33 9.36 72.66 6.72 73 4 C72.34 4 71.68 4 71 4 C70.814375 4.86625 70.814375 4.86625 70.625 5.75 C69.99351176 8.02335767 69.11141809 9.9253529 68 12 C67.34 12 66.68 12 66 12 C66.66 9.69 67.32 7.38 68 5 C44.9 4.67 21.8 4.34 -2 4 C-1.34 2.68 -0.68 1.36 0 0 Z " fill="#AB9073" transform="translate(4,120)"/>
<path d="M0 0 C0.91644287 0.00523682 1.83288574 0.01047363 2.77709961 0.01586914 C3.76645508 0.0190918 4.75581055 0.02231445 5.77514648 0.02563477 C6.81606445 0.03401367 7.85698242 0.04239258 8.92944336 0.05102539 C10.49662109 0.05779297 10.49662109 0.05779297 12.09545898 0.06469727 C14.68600996 0.07652627 17.27644895 0.0930085 19.86694336 0.11352539 C19.53694336 1.43352539 19.20694336 2.75352539 18.86694336 4.11352539 C13.25694336 4.11352539 7.64694336 4.11352539 1.86694336 4.11352539 C1.86694336 4.77352539 1.86694336 5.43352539 1.86694336 6.11352539 C6.81694336 6.44352539 11.76694336 6.77352539 16.86694336 7.11352539 C16.53694336 8.43352539 16.20694336 9.75352539 15.86694336 11.11352539 C10.25694336 11.11352539 4.64694336 11.11352539 -1.13305664 11.11352539 C-1.13305664 12.10352539 -1.13305664 13.09352539 -1.13305664 14.11352539 C4.14694336 14.11352539 9.42694336 14.11352539 14.86694336 14.11352539 C14.86694336 15.10352539 14.86694336 16.09352539 14.86694336 17.11352539 C16.41190694 15.5960414 17.95273277 14.07434443 19.49194336 12.55102539 C20.87446289 11.19170898 20.87446289 11.19170898 22.28491211 9.80493164 C24.39865876 7.60164656 26.07131399 5.47830122 27.80444336 2.98852539 C29.7502468 0.58024113 30.5509579 0.16142861 33.67553711 -0.31225586 C36.44355774 -0.32283428 39.11752538 -0.19468339 41.86694336 0.11352539 C42.37337889 2.34123881 42.87183956 4.57076616 43.36694336 6.80102539 C43.64538086 8.04239258 43.92381836 9.28375977 44.21069336 10.56274414 C44.76048462 13.53750757 45.00490041 16.10721142 44.86694336 19.11352539 C42.55694336 19.11352539 40.24694336 19.11352539 37.86694336 19.11352539 C37.86694336 18.12352539 37.86694336 17.13352539 37.86694336 16.11352539 C35.40760345 16.2272175 32.95015246 16.3539519 30.49194336 16.48852539 C29.44393555 16.53493164 29.44393555 16.53493164 28.37475586 16.58227539 C24.16508509 16.70852037 24.16508509 16.70852037 20.86694336 19.11352539 C17.88598633 19.34057617 17.88598633 19.34057617 14.10913086 19.30883789 C13.44607941 19.306008 12.78302795 19.3031781 12.09988403 19.30026245 C9.98038753 19.28905974 7.86131232 19.2639559 5.74194336 19.23852539 C4.30575154 19.22849567 2.86955311 19.2193698 1.43334961 19.21118164 C-2.08892292 19.18912039 -5.61094868 19.15459033 -9.13305664 19.11352539 C-8.45421623 14.66735319 -7.40776585 10.94373323 -5.63305664 6.80102539 C-5.18961914 5.75301758 -4.74618164 4.70500977 -4.28930664 3.62524414 C-2.68626835 0.14296839 -2.68626835 0.14296839 0 0 Z " fill="#2A2729" transform="translate(41.133056640625,99.886474609375)"/>
<path d="M0 0 C17.49 0 34.98 0 53 0 C51 7 51 7 49 10 C47.12060547 10.2487793 47.12060547 10.2487793 44.8671875 10.07421875 C43.65869141 9.99204102 43.65869141 9.99204102 42.42578125 9.90820312 C41.58402344 9.83537109 40.74226563 9.76253906 39.875 9.6875 C39.02550781 9.62626953 38.17601562 9.56503906 37.30078125 9.50195312 C35.19946335 9.34848609 33.09954876 9.17602278 31 9 C31.33 8.01 31.66 7.02 32 6 C40.415 5.505 40.415 5.505 49 5 C49.33 4.01 49.66 3.02 50 2 C42.74 2.33 35.48 2.66 28 3 C25.69 8.94 23.38 14.88 21 21 C31.23 21 41.46 21 52 21 C52 21.33 52 21.66 52 22 C51.26528473 22.01030746 50.53056946 22.02061493 49.77359009 22.03123474 C42.85754708 22.12911683 35.94158638 22.23161798 29.02569008 22.33933926 C25.46995791 22.39455915 21.91421749 22.44797763 18.35839844 22.49731445 C14.27269398 22.55408168 10.18714475 22.61862054 6.1015625 22.68359375 C4.82133209 22.70030624 3.54110168 22.71701874 2.22207642 22.73423767 C0.45046646 22.7641555 0.45046646 22.7641555 -1.35693359 22.79467773 C-2.40062103 22.81022202 -3.44430847 22.8257663 -4.5196228 22.84178162 C-7.00141782 22.83847204 -7.00141782 22.83847204 -9 24 C-8.505 22.515 -8.505 22.515 -8 21 C-4.7 21 -1.4 21 2 21 C2.1546875 19.7315625 2.1546875 19.7315625 2.3125 18.4375 C3.0828854 14.58557299 4.36274514 11.55924969 6 8 C3.36 8 0.72 8 -2 8 C-1.125 2.25 -1.125 2.25 0 0 Z " fill="#CDCCCE" transform="translate(11,98)"/>
<path d="M0 0 C1.65322266 0.01740234 1.65322266 0.01740234 3.33984375 0.03515625 C4.99693359 0.04869141 4.99693359 0.04869141 6.6875 0.0625 C7.54214844 0.07410156 8.39679688 0.08570312 9.27734375 0.09765625 C9.93734375 3.39765625 10.59734375 6.69765625 11.27734375 10.09765625 C12.39109375 9.00453125 13.50484375 7.91140625 14.65234375 6.78515625 C15.59207031 5.86283203 15.59207031 5.86283203 16.55078125 4.921875 C18.45820982 3.00953097 18.45820982 3.00953097 20.27734375 0.09765625 C23.09765625 -0.1953125 23.09765625 -0.1953125 26.40234375 -0.08984375 C28.04589844 -0.04923828 28.04589844 -0.04923828 29.72265625 -0.0078125 C30.98722656 0.04439453 30.98722656 0.04439453 32.27734375 0.09765625 C30.45512999 6.71008347 28.22510771 12.90286296 25.27734375 19.09765625 C23.29734375 19.09765625 21.31734375 19.09765625 19.27734375 19.09765625 C19.48230469 18.4221875 19.68726562 17.74671875 19.8984375 17.05078125 C20.16785156 16.15875 20.43726562 15.26671875 20.71484375 14.34765625 C20.98167969 13.4659375 21.24851562 12.58421875 21.5234375 11.67578125 C22.16217478 9.49149831 22.7332944 7.3067019 23.27734375 5.09765625 C22.42269531 6.02449219 21.56804687 6.95132813 20.6875 7.90625 C19.57162549 9.11589548 18.45573948 10.32553035 17.33984375 11.53515625 C16.77587891 12.14681641 16.21191406 12.75847656 15.63085938 13.38867188 C15.09267578 13.97197266 14.55449219 14.55527344 14 15.15625 C13.25375366 15.96533813 13.25375366 15.96533813 12.49243164 16.79077148 C11.76653304 17.57150993 11.03116113 18.34383887 10.27734375 19.09765625 C8.29734375 19.09765625 6.31734375 19.09765625 4.27734375 19.09765625 C3.94734375 14.14765625 3.61734375 9.19765625 3.27734375 4.09765625 C2.61734375 4.09765625 1.95734375 4.09765625 1.27734375 4.09765625 C1.08398438 4.76152344 0.890625 5.42539063 0.69140625 6.109375 C-1.89488824 14.87973006 -1.89488824 14.87973006 -3.72265625 19.09765625 C-5.70265625 19.09765625 -7.68265625 19.09765625 -9.72265625 19.09765625 C-9.03737111 14.95479608 -7.74375182 11.25651812 -6.22265625 7.34765625 C-5.77921875 6.1978125 -5.33578125 5.04796875 -4.87890625 3.86328125 C-3.31343629 0.11884635 -3.31343629 0.11884635 0 0 Z " fill="#242123" transform="translate(97.72265625,99.90234375)"/>
<path d="M0 0 C4.62 0 9.24 0 14 0 C14.66 2.97 15.32 5.94 16 9 C16.99 9 17.98 9 19 9 C17.35 10.32 15.7 11.64 14 13 C13.505 7.555 13.505 7.555 13 2 C7.06 2.495 7.06 2.495 1 3 C-1.31 8.94 -3.62 14.88 -6 21 C-4.02 21 -2.04 21 0 21 C0.19335938 20.33613281 0.38671875 19.67226562 0.5859375 18.98828125 C3.17223199 10.21792619 3.17223199 10.21792619 5 6 C5.66 6 6.32 6 7 6 C7.84681133 11.08086796 8.09038099 15.84828377 8 21 C16.99284479 19.348253 21.50346075 12.82903361 27 6 C27.66 6.33 28.32 6.66 29 7 C28.38348417 8.6490302 27.75652258 10.29415841 27.125 11.9375 C26.60292969 13.31228516 26.60292969 13.31228516 26.0703125 14.71484375 C25 17 25 17 23 18 C22.67 19.32 22.34 20.64 22 22 C4.51 22 -12.98 22 -31 22 C-31 19 -31 19 -30 18 C-27.46950598 17.92686433 -24.96695163 17.90752473 -22.4375 17.9375 C-21.72658203 17.94201172 -21.01566406 17.94652344 -20.28320312 17.95117188 C-18.52209987 17.96299136 -16.76103964 17.98092737 -15 18 C-15 18.99 -15 19.98 -15 21 C-12.69 21 -10.38 21 -8 21 C-8.2165625 19.87980469 -8.433125 18.75960937 -8.65625 17.60546875 C-8.93764403 16.13284001 -9.21888611 14.66018224 -9.5 13.1875 C-9.64308594 12.44951172 -9.78617188 11.71152344 -9.93359375 10.95117188 C-10.50926281 7.92205609 -11 5.090804 -11 2 C-14.3 2 -17.6 2 -21 2 C-21 1.67 -21 1.34 -21 1 C-17.37 1 -13.74 1 -10 1 C-9.79503906 1.77085938 -9.59007813 2.54171875 -9.37890625 3.3359375 C-9.10949219 4.33882813 -8.84007813 5.34171875 -8.5625 6.375 C-8.29566406 7.37273437 -8.02882813 8.37046875 -7.75390625 9.3984375 C-7.09815644 11.95417701 -7.09815644 11.95417701 -6 14 C-4.02 9.38 -2.04 4.76 0 0 Z " fill="#C6C5C7" transform="translate(94,98)"/>
<path d="M0 0 C7.26 0 14.52 0 22 0 C21.67 1.32 21.34 2.64 21 4 C15.39 4 9.78 4 4 4 C4 4.66 4 5.32 4 6 C8.95 6.33 13.9 6.66 19 7 C18.67 8.32 18.34 9.64 18 11 C12.39 11 6.78 11 1 11 C1 11.99 1 12.98 1 14 C6.28 14 11.56 14 17 14 C16.67 15.32 16.34 16.64 16 18 C8.41 18 0.82 18 -7 18 C-4 8 -4 8 0 0 Z " fill="#211D20" transform="translate(39,100)"/>
<path d="M0 0 C4.35994067 -0.024727 8.71984414 -0.04287281 13.07983398 -0.05493164 C14.56291413 -0.05995903 16.04598933 -0.06678185 17.52905273 -0.07543945 C19.66130801 -0.08757482 21.79349773 -0.09324425 23.92578125 -0.09765625 C25.20880127 -0.10289307 26.49182129 -0.10812988 27.8137207 -0.11352539 C31 0 31 0 34 1 C34.495 1.99 34.495 1.99 35 3 C35.33 2.34 35.66 1.68 36 1 C37.65 1 39.3 1 41 1 C41 3.64 41 6.28 41 9 C35.39 9 29.78 9 24 9 C23.67 8.01 23.34 7.02 23 6 C22.34 6.66 21.68 7.32 21 8 C18.31160615 8.26991906 15.70858064 8.08737357 13 8 C13 6.02 13 4.04 13 2 C10.2160817 3.39195915 10.02101003 5.15575779 9 8 C7.68 8 6.36 8 5 8 C4.67 6.35 4.34 4.7 4 3 C3.34 3 2.68 3 2 3 C1.67 4.65 1.34 6.3 1 8 C0.34 8 -0.32 8 -1 8 C-0.67 5.36 -0.34 2.72 0 0 Z " fill="#D3D2D4" transform="translate(77,124)"/>
<path d="M0 0 C39.27 0 78.54 0 119 0 C119 0.99 119 1.98 119 3 C105.8 3 92.6 3 79 3 C79 2.34 79 1.68 79 1 C66.13 1 53.26 1 40 1 C39.67 1.66 39.34 2.32 39 3 C39 2.34 39 1.68 39 1 C26.13 1 13.26 1 0 1 C0 0.67 0 0.34 0 0 Z " fill="#2B6A3F" transform="translate(4,120)"/>
<path d="M0 0 C8.25 0 16.5 0 25 0 C24.67 1.32 24.34 2.64 24 4 C20.7 4 17.4 4 14 4 C13.54625 5.36125 13.0925 6.7225 12.625 8.125 C11.41666667 11.75 10.20833333 15.375 9 19 C6.69 19 4.38 19 2 19 C5.07517084 8.44191344 5.07517084 8.44191344 7 4 C4.36 4 1.72 4 -1 4 C-0.67 2.68 -0.34 1.36 0 0 Z " fill="#211D20" transform="translate(12,100)"/>
<path d="M0 0 C0.33 0.66 0.66 1.32 1 2 C24.43 2 47.86 2 72 2 C71.01 4.64 70.02 7.28 69 10 C72.24732932 8.37633534 72.70155136 5.24612161 74 2 C74.66 2 75.32 2 76 2 C76.125 7.75 76.125 7.75 75 10 C75.66 10 76.32 10 77 10 C77.33 8.35 77.66 6.7 78 5 C78.66 5 79.32 5 80 5 C80.495 7.475 80.495 7.475 81 10 C82.32 10 83.64 10 85 10 C85.66 8.02 86.32 6.04 87 4 C87.66 4 88.32 4 89 4 C89 5.98 89 7.96 89 10 C94.62006722 9.88785352 94.62006722 9.88785352 99 6.9375 C99.33 6.298125 99.66 5.65875 100 5 C99.125 9.875 99.125 9.875 98 11 C95.70848583 11.08790975 93.41427476 11.10694038 91.12109375 11.09765625 C90.09110008 11.09553383 90.09110008 11.09553383 89.04029846 11.09336853 C86.83932199 11.08775479 84.63844591 11.07520007 82.4375 11.0625 C80.94856917 11.05748676 79.45963676 11.05292355 77.97070312 11.04882812 C74.31376925 11.03778093 70.65689442 11.02050713 67 11 C67.99 8.36 68.98 5.72 70 3 C46.57 3 23.14 3 -1 3 C-0.67 2.01 -0.34 1.02 0 0 Z " fill="#D5D4D5" transform="translate(1,122)"/>
<path d="M0 0 C16.5 0 33 0 50 0 C50 6 50 6 48 9 C46.12060547 9.2487793 46.12060547 9.2487793 43.8671875 9.07421875 C42.65869141 8.99204102 42.65869141 8.99204102 41.42578125 8.90820312 C40.58402344 8.83537109 39.74226563 8.76253906 38.875 8.6875 C38.02550781 8.62626953 37.17601562 8.56503906 36.30078125 8.50195312 C34.19946335 8.34848609 32.09954876 8.17602278 30 8 C30.33 7.01 30.66 6.02 31 5 C39.415 4.505 39.415 4.505 48 4 C48.33 3.01 48.66 2.02 49 1 C41.74 1.33 34.48 1.66 27 2 C26.01 3.98 25.02 5.96 24 8 C21.03 8 18.06 8 15 8 C14.73445313 8.71027344 14.46890625 9.42054687 14.1953125 10.15234375 C13.66550781 11.53099609 13.66550781 11.53099609 13.125 12.9375 C12.77695312 13.85402344 12.42890625 14.77054688 12.0703125 15.71484375 C11 18 11 18 9 19 C9.45363171 17.41531323 9.91311452 15.83230076 10.375 14.25 C10.63023438 13.36828125 10.88546875 12.4865625 11.1484375 11.578125 C12 9 12 9 14 5 C17.3 5 20.6 5 24 5 C24.33 3.68 24.66 2.36 25 1 C16.75 1 8.5 1 0 1 C0 0.67 0 0.34 0 0 Z " fill="#9F9EA0" transform="translate(12,99)"/>
<path d="M0 0 C0 0.33 0 0.66 0 1 C-14.19 1 -28.38 1 -43 1 C-43.33 2.65 -43.66 4.3 -44 6 C-44.5259375 7.2375 -44.5259375 7.2375 -45.0625 8.5 C-46.15727404 10.97439725 -46.15727404 10.97439725 -46 13.6875 C-46 14.450625 -46 15.21375 -46 16 C-46.66 16.66 -47.32 17.32 -48 18 C-49.32 17.67 -50.64 17.34 -52 17 C-50.02 12.05 -48.04 7.1 -46 2 C-59.86 1.67 -73.72 1.34 -88 1 C-88 0.67 -88 0.34 -88 0 C-58.62045989 -0.94682675 -29.37954011 -0.94682675 0 0 Z " fill="#979598" transform="translate(221,99)"/>
<path d="M0 0 C1.95825873 -0.02694851 3.91662226 -0.04637218 5.875 -0.0625 C7.51082031 -0.07990234 7.51082031 -0.07990234 9.1796875 -0.09765625 C12 0 12 0 14 1 C13.7834375 1.56847656 13.566875 2.13695313 13.34375 2.72265625 C11.54018042 7.7242219 10.6610396 11.68962036 11 17 C10.01 17.33 9.02 17.66 8 18 C6.53159883 20.54951047 6.53159883 20.54951047 5.3125 23.5625 C4.87550781 24.57441406 4.43851563 25.58632812 3.98828125 26.62890625 C3.66214844 27.41136719 3.33601563 28.19382812 3 29 C2.67 28.01 2.34 27.02 2 26 C1.34 26 0.68 26 0 26 C0 28.31 0 30.62 0 33 C-0.33 33 -0.66 33 -1 33 C-1 30.69 -1 28.38 -1 26 C-2.65 26 -4.3 26 -6 26 C-6.33 26.99 -6.66 27.98 -7 29 C-7.33 28.01 -7.66 27.02 -8 26 C-8.99 26.33 -9.98 26.66 -11 27 C-11 26.34 -11 25.68 -11 25 C-6.38 24.67 -1.76 24.34 3 24 C3.33 23.01 3.66 22.02 4 21 C1.69 21 -0.62 21 -3 21 C-2.67 18.69 -2.34 16.38 -2 14 C-0.875 17.75 -0.875 17.75 -2 20 C-0.02 20 1.96 20 4 20 C4.17015625 19.46632813 4.3403125 18.93265625 4.515625 18.3828125 C6.43594335 12.47885503 8.65245791 6.74743064 11 1 C7.37 1 3.74 1 0 1 C0 0.67 0 0.34 0 0 Z " fill="#C1C0C2" transform="translate(119,99)"/>
<path d="M0 0 C0.75732422 0.00644531 1.51464844 0.01289062 2.29492188 0.01953125 C3.08060547 0.03628906 3.86628906 0.05304688 4.67578125 0.0703125 C5.47306641 0.07933594 6.27035156 0.08835937 7.09179688 0.09765625 C9.05742025 0.12119665 11.022889 0.15706703 12.98828125 0.1953125 C13.31828125 1.5153125 13.64828125 2.8353125 13.98828125 4.1953125 C10.94147064 6.22651957 10.38709801 6.44191125 6.9765625 6.390625 C5.84057617 6.38095703 5.84057617 6.38095703 4.68164062 6.37109375 C3.89595703 6.35433594 3.11027344 6.33757812 2.30078125 6.3203125 C1.50349609 6.31128906 0.70621094 6.30226563 -0.11523438 6.29296875 C-2.08085775 6.26942835 -4.0463265 6.23355797 -6.01171875 6.1953125 C-6.34171875 4.8753125 -6.67171875 3.5553125 -7.01171875 2.1953125 C-3.96490814 0.16410543 -3.41053551 -0.05128625 0 0 Z " fill="#EEEEEF" transform="translate(142.01171875,118.8046875)"/>
<path d="M0 0 C0.74362793 0.01047363 1.48725586 0.02094727 2.25341797 0.03173828 C3.46191406 0.04140625 3.46191406 0.04140625 4.69482422 0.05126953 C5.95746094 0.07640625 5.95746094 0.07640625 7.24560547 0.10205078 C8.51984375 0.11558594 8.51984375 0.11558594 9.81982422 0.12939453 C11.9202043 0.15299431 14.02043991 0.18886595 16.12060547 0.22705078 C15.24560547 5.10205078 15.24560547 5.10205078 14.12060547 6.22705078 C12.77793134 6.31336952 11.43086225 6.33411551 10.08544922 6.32470703 C9.2765625 6.32148437 8.46767578 6.31826172 7.63427734 6.31494141 C6.78414062 6.3065625 5.93400391 6.29818359 5.05810547 6.28955078 C4.20410156 6.28503906 3.35009766 6.28052734 2.47021484 6.27587891 C0.35364883 6.26405452 -1.76288138 6.24611847 -3.87939453 6.22705078 C-3.87939453 0.46867198 -3.87939453 0.46867198 0 0 Z " fill="#C1BFC0" transform="translate(184.87939453125,118.77294921875)"/>
<path d="M0 0 C2.64 0 5.28 0 8 0 C6.68 4.29 5.36 8.58 4 13 C1.03 13 -1.94 13 -5 13 C-2.05357143 3.89285714 -2.05357143 3.89285714 0 0 Z " fill="#FCFCFC" transform="translate(27,106)"/>
<path d="M0 0 C1.18613892 0.00785522 1.18613892 0.00785522 2.39624023 0.01586914 C3.67724609 0.02070312 3.67724609 0.02070312 4.98413086 0.02563477 C5.88196289 0.03401367 6.77979492 0.04239258 7.70483398 0.05102539 C8.6065332 0.05553711 9.50823242 0.06004883 10.43725586 0.06469727 C12.67234712 0.07652315 14.90730835 0.09300319 17.14233398 0.11352539 C16.26733398 3.98852539 16.26733398 3.98852539 15.14233398 5.11352539 C13.72663275 5.2000415 12.30673898 5.22057443 10.88842773 5.21118164 C10.03442383 5.20795898 9.18041992 5.20473633 8.30053711 5.20141602 C7.40270508 5.19303711 6.50487305 5.1846582 5.57983398 5.17602539 C4.67813477 5.17151367 3.77643555 5.16700195 2.84741211 5.16235352 C0.61232085 5.15052764 -1.62264038 5.13404759 -3.85766602 5.11352539 C-2.74082081 0.16749661 -2.74082081 0.16749661 0 0 Z " fill="#E7E6E8" transform="translate(143.857666015625,106.886474609375)"/>
<path d="M0 0 C6.27 0 12.54 0 19 0 C19 1.32 19 2.64 19 4 C16.703463 5.1482685 15.41686833 5.11561175 12.8671875 5.09765625 C12.06152344 5.09443359 11.25585938 5.09121094 10.42578125 5.08789062 C9.58402344 5.07951172 8.74226562 5.07113281 7.875 5.0625 C7.02550781 5.05798828 6.17601562 5.05347656 5.30078125 5.04882812 C3.20049091 5.03702874 1.1002367 5.01909306 -1 5 C-0.67 3.35 -0.34 1.7 0 0 Z " fill="#E9E8E9" transform="translate(187,107)"/>
<path d="M0 0 C1.23556641 0.01740234 1.23556641 0.01740234 2.49609375 0.03515625 C3.32238281 0.04417969 4.14867188 0.05320312 5 0.0625 C5.63808594 0.07410156 6.27617188 0.08570312 6.93359375 0.09765625 C5.05859375 5.97265625 5.05859375 5.97265625 3.93359375 7.09765625 C1.26300524 7.23880786 -1.39072863 7.14012732 -4.06640625 7.09765625 C-3.03063989 0.14322495 -3.03063989 0.14322495 0 0 Z " fill="#1F1D1F" transform="translate(94.06640625,124.90234375)"/>
<path d="M0 0 C0.33 0.99 0.66 1.98 1 3 C0.01 4.485 0.01 4.485 -1 6 C-2.87939453 6.2487793 -2.87939453 6.2487793 -5.1328125 6.07421875 C-5.93847656 6.01943359 -6.74414062 5.96464844 -7.57421875 5.90820312 C-8.41597656 5.83537109 -9.25773437 5.76253906 -10.125 5.6875 C-10.97449219 5.62626953 -11.82398438 5.56503906 -12.69921875 5.50195312 C-14.80053665 5.34848609 -16.90045124 5.17602278 -19 5 C-18.67 4.01 -18.34 3.02 -18 2 C-16.17662109 1.90912109 -16.17662109 1.90912109 -14.31640625 1.81640625 C-12.73175772 1.73201668 -11.14712298 1.6473679 -9.5625 1.5625 C-8.76005859 1.52318359 -7.95761719 1.48386719 -7.13085938 1.44335938 C-3.24760439 1.5945704 -3.24760439 1.5945704 0 0 Z " fill="#CBCBCD" transform="translate(61,102)"/>
<path d="M0 0 C0.66 0 1.32 0 2 0 C2 1.98 2 3.96 2 6 C7.62006722 5.88785352 7.62006722 5.88785352 12 2.9375 C12.33 2.298125 12.66 1.65875 13 1 C12.125 5.875 12.125 5.875 11 7 C9.29227642 7.08713831 7.58101351 7.10700007 5.87109375 7.09765625 C4.31938477 7.09282227 4.31938477 7.09282227 2.73632812 7.08789062 C1.64771484 7.07951172 0.55910156 7.07113281 -0.5625 7.0625 C-2.2012207 7.05573242 -2.2012207 7.05573242 -3.87304688 7.04882812 C-6.58208495 7.03699826 -9.29101599 7.02051543 -12 7 C-11.34 6.67 -10.68 6.34 -10 6 C-9.34444881 3.47266765 -9.34444881 3.47266765 -9 1 C-8.34 1 -7.68 1 -7 1 C-6.67 2.65 -6.34 4.3 -6 6 C-4.68 6 -3.36 6 -2 6 C-1.34 4.02 -0.68 2.04 0 0 Z " fill="#CFCFD0" transform="translate(88,126)"/>
<path d="M0 0 C5.61 0 11.22 0 17 0 C17 0.99 17 1.98 17 3 C11.06 3 5.12 3 -1 3 C-0.67 2.01 -0.34 1.02 0 0 Z " fill="#F5F4F5" transform="translate(183,121)"/>
<path d="M0 0 C0 0.99 0 1.98 0 3 C0.99 4.485 0.99 4.485 2 6 C1.15528873 8.53708735 0.25737906 10.7854108 -0.875 13.1875 C-1.17019531 13.84169922 -1.46539062 14.49589844 -1.76953125 15.16992188 C-2.50070435 16.78557856 -3.24877569 18.39356835 -4 20 C-4.66 19.34 -5.32 18.68 -6 18 C-5.70450744 15.26669378 -5.03586349 13.08227506 -3.9375 10.5625 C-2.80852191 7.95567602 -2.80852191 7.95567602 -3.0625 4.8125 C-3.041875 3.884375 -3.02125 2.95625 -3 2 C-2.01 1.34 -1.02 0.68 0 0 Z " fill="#BBB9BB" transform="translate(170,112)"/>
<path d="M0 0 C0.33 0.99 0.66 1.98 1 3 C1.66 3.66 2.32 4.32 3 5 C1.35 6.32 -0.3 7.64 -2 9 C-1.67 7.68 -1.34 6.36 -1 5 C-6.28 5 -11.56 5 -17 5 C-17 4.01 -17 3.02 -17 2 C-11.39 2 -5.78 2 0 2 C0 1.34 0 0.68 0 0 Z " fill="#C8C6C8" transform="translate(57,109)"/>
<path d="M0 0 C-0.33 0.66 -0.66 1.32 -1 2 C-2.1446875 1.835 -3.289375 1.67 -4.46875 1.5 C-8.55866971 1.5 -10.33599259 2.72288804 -13.28125 5.5 C-14.70846077 6.98007043 -16.11436637 8.48093499 -17.5 10 C-18.22703125 10.763125 -18.9540625 11.52625 -19.703125 12.3125 C-21.48820831 14.19153506 -23.25195786 16.08656814 -25 18 C-25 15 -25 15 -23.4609375 13.203125 C-22.77257813 12.55859375 -22.08421875 11.9140625 -21.375 11.25 C-18.60294782 8.6375948 -16.35214568 6.1231838 -14.1875 3 C-10.47254616 -1.56349483 -5.39615768 -0.60490736 0 0 Z " fill="#1A171B" transform="translate(83,100)"/>
<path d="M0 0 C1.65 0 3.3 0 5 0 C5.33 0.99 5.66 1.98 6 3 C6.66 2.01 7.32 1.02 8 0 C8.66 0 9.32 0 10 0 C9.34 2.31 8.68 4.62 8 7 C6.68 7 5.36 7 4 7 C3.67 5.35 3.34 3.7 3 2 C2.34 2 1.68 2 1 2 C0.67 3.65 0.34 5.3 0 7 C-0.66 7 -1.32 7 -2 7 C-1.34 4.69 -0.68 2.38 0 0 Z " fill="#262426" transform="translate(78,125)"/>
<path d="M0 0 C5.61 0 11.22 0 17 0 C17.33 1.32 17.66 2.64 18 4 C14.95318939 6.03120707 14.39881676 6.24659875 10.98828125 6.1953125 C9.85229492 6.18564453 9.85229492 6.18564453 8.69335938 6.17578125 C7.90767578 6.15902344 7.12199219 6.14226562 6.3125 6.125 C5.51521484 6.11597656 4.71792969 6.10695313 3.89648438 6.09765625 C1.930861 6.07411585 -0.03460775 6.03824547 -2 6 C-2 5.67 -2 5.34 -2 5 C3.94 4.67 9.88 4.34 16 4 C16 3.34 16 2.68 16 2 C10.72 1.67 5.44 1.34 0 1 C0 0.67 0 0.34 0 0 Z " fill="#B6B4B6" transform="translate(138,119)"/>
<path d="M0 0 C0.721875 0.144375 1.44375 0.28875 2.1875 0.4375 C2.1875 2.7475 2.1875 5.0575 2.1875 7.4375 C-1.1125 7.4375 -4.4125 7.4375 -7.8125 7.4375 C-3.50480769 0.54519231 -3.50480769 0.54519231 0 0 Z " fill="#3B393B" transform="translate(115.8125,124.5625)"/>
<path d="M0 0 C7.59 0 15.18 0 23 0 C23 0.33 23 0.66 23 1 C19.97265625 1.24414062 19.97265625 1.24414062 16.9453125 1.48828125 C14.60480784 1.87393036 14.60480784 1.87393036 13 5 C13 4.01 13 3.02 13 2 C11.68 1.67 10.36 1.34 9 1 C8.67 2.65 8.34 4.3 8 6 C7.34 5.34 6.68 4.68 6 4 C6 3.01 6 2.02 6 1 C4.35 1 2.7 1 1 1 C0.67 1.99 0.34 2.98 0 4 C0 2.68 0 1.36 0 0 Z " fill="#BBBABC" transform="translate(77,124)"/>
<path d="M0 0 C0.66 0 1.32 0 2 0 C1.67 1.32 1.34 2.64 1 4 C1.99 4 2.98 4 4 4 C4.33 4.66 4.66 5.32 5 6 C6.423125 5.938125 6.423125 5.938125 7.875 5.875 C11 6 11 6 13 8 C8.38 8 3.76 8 -1 8 C-2 4 -2 4 -1.0625 1.75 C-0.711875 1.1725 -0.36125 0.595 0 0 Z " fill="#908F91" transform="translate(105,125)"/>
<path d="M0 0 C0.99 0.33 1.98 0.66 3 1 C3 2.98 3 4.96 3 7 C0.36 7 -2.28 7 -5 7 C-1.125 1.125 -1.125 1.125 0 0 Z " fill="#D4D3D5" transform="translate(75,104)"/>
<path d="M0 0 C2 2 2 2 2.125 5.125 C2.08375 6.07375 2.0425 7.0225 2 8 C0.02 8 -1.96 8 -4 8 C-4 7.01 -4 6.02 -4 5 C-3.34 5 -2.68 5 -2 5 C-1.7834375 4.0409375 -1.7834375 4.0409375 -1.5625 3.0625 C-1 1 -1 1 0 0 Z " fill="#F8F8F8" transform="translate(99,111)"/>
<path d="M0 0 C0.66 0 1.32 0 2 0 C2 2.97 2 5.94 2 9 C1.01 9 0.02 9 -1 9 C-1.33 9.99 -1.66 10.98 -2 12 C-2.66 12 -3.32 12 -4 12 C-3.52309796 10.37433394 -3.04340334 8.74948689 -2.5625 7.125 C-2.29566406 6.22007813 -2.02882813 5.31515625 -1.75390625 4.3828125 C-1 2 -1 2 0 0 Z " fill="#C9C8CA" transform="translate(99,104)"/>
<path d="M0 0 C0.66 0 1.32 0 2 0 C2.33 1.65 2.66 3.3 3 5 C4.32 5 5.64 5 7 5 C7.33 3.35 7.66 1.7 8 0 C9.125 3.75 9.125 3.75 8 6 C4.37 6 0.74 6 -3 6 C-2.34 5.67 -1.68 5.34 -1 5 C-0.34444881 2.47266765 -0.34444881 2.47266765 0 0 Z " fill="#C2C2C3" transform="translate(79,127)"/>
<path d="M0 0 C1 2 1 2 0.0625 5.125 C-0.288125 6.07375 -0.63875 7.0225 -1 8 C-3.31 8 -5.62 8 -8 8 C-5.33333333 5.33333333 -2.66666667 2.66666667 0 0 Z " fill="#F8F8F9" transform="translate(117,111)"/>
<path d="M0 0 C0.99 0 1.98 0 3 0 C2.66009167 5.37992836 2.31442207 9.53273547 -1 14 C-1.33 13.34 -1.66 12.68 -2 12 C-1.690625 11.278125 -1.38125 10.55625 -1.0625 9.8125 C0.22171408 6.4131098 0.14135045 3.60443644 0 0 Z " fill="#BBBABC" transform="translate(212,114)"/>
<path d="M0 0 C0.66 0.66 1.32 1.32 2 2 C1.01 4.64 0.02 7.28 -1 10 C-1.99 9.34 -2.98 8.68 -4 8 C-2.68 5.36 -1.36 2.72 0 0 Z " fill="#BFBEBF" transform="translate(177,98)"/>
<path d="M0 0 C1.98 0 3.96 0 6 0 C5.67 1.32 5.34 2.64 5 4 C3.02 4 1.04 4 -1 4 C-0.67 2.68 -0.34 1.36 0 0 Z " fill="#B5B5B6" transform="translate(93,126)"/>
<path d="M0 0 C1.95825873 -0.02694851 3.91662226 -0.04637218 5.875 -0.0625 C6.96554688 -0.07410156 8.05609375 -0.08570312 9.1796875 -0.09765625 C12 0 12 0 14 1 C13.34 2.32 12.68 3.64 12 5 C11.34 5 10.68 5 10 5 C10.33 3.68 10.66 2.36 11 1 C7.37 1 3.74 1 0 1 C0 0.67 0 0.34 0 0 Z " fill="#9F9EA0" transform="translate(119,99)"/>
<path d="M0 0 C1.65 0 3.3 0 5 0 C4.67 1.32 4.34 2.64 4 4 C3.67 3.34 3.34 2.68 3 2 C2.34 2 1.68 2 1 2 C0.67 3.65 0.34 5.3 0 7 C-0.66 7 -1.32 7 -2 7 C-1.34 4.69 -0.68 2.38 0 0 Z " fill="#1C1A1D" transform="translate(78,125)"/>
<path d="M0 0 C1.41687119 4.25061356 0.19320039 6.71851625 -1 11 C-1.33 11 -1.66 11 -2 11 C-3.125 4.375 -3.125 4.375 -2 1 C-1.34 0.67 -0.68 0.34 0 0 Z " fill="#B7B6B8" transform="translate(130,103)"/>
<path d="M0 0 C0.33 0 0.66 0 1 0 C1 1.65 1 3.3 1 5 C1.66 5 2.32 5 3 5 C3 5.66 3 6.32 3 7 C1.68 7 0.36 7 -1 7 C-1.04254356 5.00045254 -1.04080783 2.99958364 -1 1 C-0.67 0.67 -0.34 0.34 0 0 Z " fill="#D2D1D2" transform="translate(127,109)"/>
</svg>
