<?xml version="1.0" encoding="UTF-8"?>
<svg version="1.1" xmlns="http://www.w3.org/2000/svg" width="500" height="157">
<path d="M0 0 C1.48831242 0.00667405 2.97660807 0.01863442 4.46484375 0.03515625 C5.22345703 0.03966797 5.98207031 0.04417969 6.76367188 0.04882812 C8.64326246 0.06064945 10.52281274 0.07858547 12.40234375 0.09765625 C14.78863401 7.37447595 17.17285772 14.65197039 19.55566406 21.92993164 C20.36606343 24.40437047 21.1769311 26.87865597 21.98828125 29.3527832 C23.1561886 32.91447125 24.32239603 36.47671209 25.48828125 40.0390625 C25.84981293 41.14037003 26.2113446 42.24167755 26.58383179 43.37635803 C28.28940334 48.59306632 29.94674056 53.80545191 31.40234375 59.09765625 C31.73234375 59.09765625 32.06234375 59.09765625 32.40234375 59.09765625 C35.70234375 39.62765625 39.00234375 20.15765625 42.40234375 0.09765625 C47.68234375 0.09765625 52.96234375 0.09765625 58.40234375 0.09765625 C57.73248904 10.64733116 56.05578316 20.9151195 54.27734375 31.3203125 C53.9669183 33.15679329 53.65686617 34.99333722 53.34716797 36.8299408 C52.70132345 40.65367725 52.05217573 44.47683231 51.40039062 48.29956055 C50.56473165 53.20132893 49.73565323 58.10418187 48.90878296 63.00743961 C48.27076408 66.78835379 47.6302302 70.56883822 46.98883057 74.34918022 C46.68206301 76.15801868 46.3758666 77.9669541 46.07025146 79.77598763 C45.64431032 82.29386781 45.2152074 84.81118813 44.78515625 87.32836914 C44.59654022 88.44807854 44.59654022 88.44807854 44.40411377 89.59040833 C43.90029729 92.52254266 43.34499214 95.26971107 42.40234375 98.09765625 C37.12234375 98.09765625 31.84234375 98.09765625 26.40234375 98.09765625 C14.50282193 62.57494578 14.50282193 62.57494578 10.15234375 49.03515625 C9.86544678 48.1519873 9.5785498 47.26881836 9.28295898 46.35888672 C7.40234375 40.45450499 7.40234375 40.45450499 7.40234375 37.09765625 C6.74234375 37.09765625 6.08234375 37.09765625 5.40234375 37.09765625 C5.32560425 38.19452507 5.32560425 38.19452507 5.24731445 39.31355286 C4.70039172 46.52941022 3.79708459 53.60161072 2.58984375 60.734375 C2.32917114 62.30346367 2.32917114 62.30346367 2.06323242 63.9042511 C1.69914161 66.08849966 1.33266511 68.27235182 0.96386719 70.45581055 C0.39750537 73.81384361 -0.15914766 77.17339036 -0.71484375 80.53320312 C-1.0710438 82.66285596 -1.42779421 84.79241684 -1.78515625 86.921875 C-1.95184814 87.92901047 -2.11854004 88.93614594 -2.2902832 89.97380066 C-2.447146 90.89598892 -2.60400879 91.81817719 -2.765625 92.76831055 C-2.90250732 93.58261032 -3.03938965 94.3969101 -3.18041992 95.23588562 C-3.59765625 97.09765625 -3.59765625 97.09765625 -4.59765625 98.09765625 C-7.12815027 98.17079192 -9.63070462 98.19013152 -12.16015625 98.16015625 C-12.87107422 98.15564453 -13.58199219 98.15113281 -14.31445312 98.14648438 C-16.07555638 98.13466489 -17.83661661 98.11672888 -19.59765625 98.09765625 C-19.04066072 87.0773248 -17.30597519 76.35358462 -15.47265625 65.48828125 C-15.16221854 63.62601938 -14.85216666 61.76369315 -14.54248047 59.90130615 C-13.89714288 56.02799476 -13.24791756 52.15536233 -12.59570312 48.28320312 C-11.75840475 43.31089788 -10.9299044 38.33717418 -10.10409546 33.36294937 C-9.46720094 29.53132079 -8.82632049 25.70036766 -8.18414307 21.86962128 C-7.8768266 20.0341004 -7.57063095 18.19839151 -7.26556396 16.36249542 C-6.84117759 13.81291567 -6.41157929 11.26427044 -5.98046875 8.71582031 C-5.85472473 7.95437714 -5.72898071 7.19293396 -5.59942627 6.40841675 C-4.52601524 0.12285601 -4.52601524 0.12285601 0 0 Z " fill="#B22D30" transform="translate(98.59765625,15.90234375)"/>
<path d="M0 0 C19.47 0 38.94 0 59 0 C57 15 57 15 56 17 C42.47 17.33 28.94 17.66 15 18 C13.68 24.6 12.36 31.2 11 38 C24.2 38 37.4 38 51 38 C49 54 49 54 48 55 C45.04294679 55.08868299 42.10934944 55.11520296 39.15234375 55.09765625 C37.82270348 55.09553383 37.82270348 55.09553383 36.46620178 55.09336853 C33.62326746 55.08775215 30.78041069 55.07519691 27.9375 55.0625 C26.01497509 55.05748711 24.09244896 55.05292384 22.16992188 55.04882812 C17.44658451 55.03777741 12.72330542 55.02050183 8 55 C7.87882812 56.03898437 7.75765625 57.07796875 7.6328125 58.1484375 C7.46374704 59.55731633 7.2944644 60.9661691 7.125 62.375 C7.00705078 63.39400391 7.00705078 63.39400391 6.88671875 64.43359375 C6.20258477 70.06454265 5.12187062 75.3906469 4 81 C18.52 81 33.04 81 48 81 C47.48342589 86.68231526 46.93801913 92.37188525 46 98 C25.54 98 5.08 98 -16 98 C-13.70235905 79.61887243 -13.70235905 79.61887243 -12.48779297 72.65625 C-12.35095093 71.85412079 -12.21410889 71.05199158 -12.07312012 70.22555542 C-11.63285508 67.64977753 -11.18760409 65.07489154 -10.7421875 62.5 C-10.43084863 60.68446135 -10.11982965 58.86886782 -9.80911255 57.05322266 C-9.00017991 52.33136016 -8.18697625 47.61024348 -7.37280273 42.88928223 C-6.39160586 37.19434627 -5.41585436 31.49847497 -4.43916321 25.80276489 C-2.96355499 17.20112959 -1.48114435 8.60069199 0 0 Z " fill="#B22D30" transform="translate(335,16)"/>
<path d="M0 0 C5.94 0 11.88 0 18 0 C22.7061233 9.88285893 27.04793952 19.79412954 31 30 C33.71347657 27.40298794 35.962101 24.81287964 38.05859375 21.69921875 C38.60966797 20.88646484 39.16074219 20.07371094 39.72851562 19.23632812 C40.29248047 18.39521484 40.85644531 17.55410156 41.4375 16.6875 C43.10680566 14.21523719 44.77685 11.7450512 46.4753418 9.29272461 C48.00924666 7.06714503 48.00924666 7.06714503 49.14379883 4.84985352 C50.28722293 2.82844763 51.18342741 1.45342856 53 0 C56.64477293 -0.8351739 60.09861824 -0.6644733 63.8125 -0.4375 C64.79154297 -0.40591797 65.77058594 -0.37433594 66.77929688 -0.34179688 C69.18928203 -0.2595047 71.59308593 -0.1446501 74 0 C73.3818458 3.14768321 72.33474089 5.28295593 70.515625 7.9140625 C69.99887207 8.66623047 69.48211914 9.41839844 68.94970703 10.19335938 C68.38880371 10.99580078 67.82790039 11.79824219 67.25 12.625 C66.67233887 13.46095703 66.09467773 14.29691406 65.49951172 15.15820312 C60.95498738 21.7062539 56.3098695 28.18141352 51.57910156 34.59619141 C50.56711444 35.97793045 49.58085463 37.37885761 48.62036133 38.796875 C47 41 47 41 44.76049805 43.203125 C42.10113155 46.1977809 40.90408261 48.06816541 40 52 C41.29051848 59.75132292 45.23618456 66.95992733 48.5625 74 C49.90319587 76.95813096 51.23019262 79.92211318 52.55540466 82.88720703 C53.38334075 84.72579599 54.22321717 86.55906381 55.07606506 88.38623047 C55.45903244 89.2113916 55.84199982 90.03655273 56.23657227 90.88671875 C56.57745377 91.61076904 56.91833527 92.33481934 57.26954651 93.08081055 C58 95 58 95 58 98 C51.73 98 45.46 98 39 98 C38.46890625 96.73285156 37.9378125 95.46570313 37.390625 94.16015625 C36.67713226 92.46091696 35.96358782 90.76169937 35.25 89.0625 C34.90195312 88.23169922 34.55390625 87.40089844 34.1953125 86.54492188 C31.86463385 80.9987699 29.46546079 75.48755826 27 70 C26.60731934 70.56396484 26.21463867 71.12792969 25.81005859 71.70898438 C23.99984099 74.30701634 22.1874346 76.90351422 20.375 79.5 C19.75753906 80.386875 19.14007813 81.27375 18.50390625 82.1875 C17.26883927 83.95559588 16.02191146 85.71546662 14.76318359 87.46679688 C12.99076703 89.93744619 12.99076703 89.93744619 11.60009766 92.42382812 C9.58591145 95.70771653 8.31911898 97.67703362 4.47119141 98.61914062 C1.48008645 98.78811235 -1.38641043 98.70052472 -4.375 98.5 C-5.39722656 98.46390625 -6.41945313 98.4278125 -7.47265625 98.390625 C-9.98566323 98.29668081 -12.49086139 98.16553566 -15 98 C-13.66172714 95.19878257 -12.16904216 92.64801136 -10.41796875 90.0859375 C-9.64743164 88.95720215 -9.64743164 88.95720215 -8.86132812 87.80566406 C-8.30896484 87.00354492 -7.75660156 86.20142578 -7.1875 85.375 C-6.61580078 84.54194336 -6.04410156 83.70888672 -5.45507812 82.85058594 C-0.36977078 75.47272201 4.85154993 68.19727322 10.125 60.953125 C10.60324219 60.28732422 11.08148438 59.62152344 11.57421875 58.93554688 C12.52360203 57.64672656 13.5059496 56.38154489 14.51953125 55.14257812 C17.32759846 51.67644137 17.32759846 51.67644137 17.86743164 47.39648438 C16.70522809 42.84580162 14.98539607 38.62804922 13.18359375 34.296875 C12.80767593 33.37787415 12.43175812 32.45887329 12.04444885 31.51202393 C10.84797355 28.58891165 9.64335249 25.66925511 8.4375 22.75 C7.22903748 19.8160882 6.0223869 16.88147084 4.81983948 13.94512939 C4.0723263 12.12066118 3.32123247 10.29765521 2.56626892 8.47625732 C2.22914383 7.65490295 1.89201874 6.83354858 1.54467773 5.98730469 C1.24569077 5.26371765 0.9467038 4.54013062 0.63865662 3.7946167 C0 2 0 2 0 0 Z " fill="#B22D30" transform="translate(398,16)"/>
<path d="M0 0 C5.61 0 11.22 0 17 0 C16.2221807 4.95730168 15.44360314 9.91447458 14.66339111 14.87139893 C14.38819136 16.62129232 14.11340986 18.37125154 13.83905029 20.12127686 C11.16772718 37.157643 11.16772718 37.157643 9.7109375 45.4453125 C9.52499023 46.50943359 9.33904297 47.57355469 9.14746094 48.66992188 C8.81314828 50.56081929 8.47080841 52.45032607 8.11816406 54.33789062 C5.76243868 66.55159461 5.76243868 66.55159461 9 78 C13.51519216 81.01012811 17.30458154 81.26308217 22.625 80.4375 C27.29616228 78.44793088 29.80263253 75.76742052 31.78231812 71.19186401 C34.16277461 64.22607012 35.4068672 57.12296388 36.6640625 49.8828125 C36.90334762 48.53511113 37.14329895 47.1875279 37.38388062 45.84005737 C38.01068447 42.32091244 38.62982637 38.8004668 39.24688721 35.27960205 C40.23937436 29.62410749 41.24347192 23.97066468 42.24793625 18.31728745 C42.59658138 16.34844156 42.94158208 14.37895144 43.28652954 12.40945435 C43.49699921 11.21746429 43.70746887 10.02547424 43.92431641 8.79736328 C44.20053329 7.22258713 44.20053329 7.22258713 44.48233032 5.61599731 C45 3 45 3 46 0 C51.61 0 57.22 0 63 0 C61.49026112 12.27974775 59.45508152 24.43675191 57.27856445 36.61499023 C56.68955903 39.9259257 56.11522335 43.23920506 55.54101562 46.55273438 C49.40468115 81.34113828 49.40468115 81.34113828 37.6875 93.375 C27.95289029 99.26104308 18.35849244 100.69869766 7.09765625 98.41015625 C0.34785802 96.15328997 -4.12398626 91.89302809 -8 86 C-13.69810114 74.45031351 -10.92312293 60.59529028 -8.84765625 48.45703125 C-8.62503063 47.11290289 -8.40324021 45.76863597 -8.18223572 44.42424011 C-7.72197672 41.63743891 -7.25505109 38.85187648 -6.7824707 36.06713867 C-6.17662786 32.49662266 -5.58300483 28.92421169 -4.99364567 25.35094166 C-4.42838023 21.92726387 -3.85691756 18.50462906 -3.28515625 15.08203125 C-3.07157974 13.79883499 -2.85800323 12.51563873 -2.63795471 11.19355774 C-2.43782272 10.01440292 -2.23769073 8.83524811 -2.03149414 7.62036133 C-1.85606583 6.58035477 -1.68063751 5.54034821 -1.49989319 4.46882629 C-1 2 -1 2 0 0 Z " fill="#B22D30" transform="translate(16,16)"/>
<path d="M0 0 C18.15 0 36.3 0 55 0 C54 12 54 12 53 17 C40.13 17 27.26 17 14 17 C13.67 20.63 13.34 24.26 13 28 C12.34 31.96 11.68 35.92 11 40 C23.21 40 35.42 40 48 40 C46 54 46 54 45 57 C32.46 57 19.92 57 7 57 C6.67 60.96 6.34 64.92 6 69 C5.64275772 71.51120754 5.25134139 74.01807423 4.80859375 76.515625 C4.47504883 78.42021484 4.47504883 78.42021484 4.13476562 80.36328125 C3.90466797 81.64589844 3.67457031 82.92851563 3.4375 84.25 C3.20067957 85.59236116 2.96434872 86.93480878 2.72851562 88.27734375 C2.15713105 91.51907662 1.57924248 94.75966198 1 98 C-4.61 98 -10.22 98 -16 98 C-15.27364987 87.77056907 -13.57515836 77.75827587 -11.875 67.65625 C-11.56465692 65.79590518 -11.2546032 63.93551207 -10.94482422 62.07507324 C-10.29843498 58.19838264 -9.64930554 54.32216453 -8.99804688 50.44628906 C-8.16301641 45.47599625 -7.33378902 40.50475667 -6.50643921 35.53318024 C-5.86836423 31.70166558 -5.22783167 27.87056512 -4.58648682 24.03959656 C-4.27965686 22.20564742 -3.97346034 20.37159219 -3.66790771 18.53742981 C-3.24195805 15.98352534 -2.81284269 13.43017324 -2.3828125 10.87695312 C-2.25706848 10.11955841 -2.13132446 9.3621637 -2.00177002 8.58181763 C-1.50064298 5.62336762 -0.95073489 2.85220468 0 0 Z " fill="#B22D30" transform="translate(203,16)"/>
<path d="M0 0 C5.61 0 11.22 0 17 0 C16.33169442 8.80596434 15.02958586 17.41862588 13.53125 26.1171875 C13.2881049 27.54674477 13.04531369 28.97636228 12.80285645 30.40603638 C12.16915693 34.13647465 11.53031227 37.86601393 10.89044189 41.59539795 C10.3687488 44.64131249 9.85077701 47.68785437 9.33298492 50.73443413 C8.71280214 54.38306151 8.0910271 58.03141678 7.46875 61.6796875 C7.35112808 62.36943539 7.23350616 63.05918327 7.11231995 63.76983261 C6.7781982 65.72674499 6.44283598 67.68344544 6.10742188 69.64013672 C5.91724487 70.75057343 5.72706787 71.86101013 5.53112793 73.00509644 C5.05731623 75.67680746 4.53214144 78.3392928 4 81 C16.87 81 29.74 81 43 81 C42.48342589 86.68231526 41.93801913 92.37188525 41 98 C22.19 98 3.38 98 -16 98 C-13.70235905 79.61887243 -13.70235905 79.61887243 -12.48779297 72.65625 C-12.35095093 71.85412079 -12.21410889 71.05199158 -12.07312012 70.22555542 C-11.63285508 67.64977753 -11.18760409 65.07489154 -10.7421875 62.5 C-10.43084863 60.68446135 -10.11982965 58.86886782 -9.80911255 57.05322266 C-9.00017991 52.33136016 -8.18697625 47.61024348 -7.37280273 42.88928223 C-6.53886301 38.04903716 -5.70907258 33.20808092 -4.87890625 28.3671875 C-3.2566059 18.91076672 -1.62939714 9.45520055 0 0 Z " fill="#B22D30" transform="translate(269,16)"/>
<path d="M0 0 C5.61 0 11.22 0 17 0 C16.34208353 10.82253132 14.513817 21.3261315 12.62109375 31.984375 C12.28575321 33.89528367 11.95088664 35.80627556 11.61647034 37.71734619 C10.74166089 42.70917126 9.86048253 47.69985091 8.97790527 52.69030762 C8.07576977 57.7980615 7.17975579 62.90688877 6.28320312 68.015625 C4.52807406 78.01146999 2.76563936 88.00600617 1 98 C-4.61 98 -10.22 98 -16 98 C-15.34208353 87.17746868 -13.513817 76.6738685 -11.62109375 66.015625 C-11.28575321 64.10471633 -10.95088664 62.19372444 -10.61647034 60.28265381 C-9.74166089 55.29082874 -8.86048253 50.30014909 -7.97790527 45.30969238 C-7.07576977 40.2019385 -6.17975579 35.09311123 -5.28320312 29.984375 C-3.52807406 19.98853001 -1.76563936 9.99399383 0 0 Z " fill="#B22D30" transform="translate(171,16)"/>
<path d="M0 0 C3.89424671 1.65712626 5.42820585 3.13572006 7 7 C7.66934214 11.78657463 7.7052646 15.74619627 5.3125 20 C1.62029705 23.19325661 -1.15164578 24.23824378 -6 23.9375 C-10.2607693 23.27704049 -12.29408696 21.36189196 -15 18 C-16.7246216 14.5507568 -16.36610104 10.77868569 -16 7 C-12.89747684 -0.29092942 -7.2217005 -0.83823309 0 0 Z M-7.9375 2.8125 C-8.9584375 3.4003125 -8.9584375 3.4003125 -10 4 C-10 4.33 -10 4.66 -10 5 C-7.03 5.33 -4.06 5.66 -1 6 C0 10 0 10 -0.625 12.5625 C-0.74875 13.366875 -0.8725 14.17125 -1 15 C0.33378575 16.8354799 0.33378575 16.8354799 2 18 C4.44988842 15.55011158 4.7658669 14.43395207 5 11 C3.6308422 6.72138187 2.52084654 5.3086498 -1.375 3 C-4.88562261 1.69783863 -4.88562261 1.69783863 -7.9375 2.8125 Z M-11 5 C-13.46324069 8.69486103 -13.38991688 10.63293092 -13 15 C-12.01 15.99 -11.02 16.98 -10 18 C-10 13.71 -10 9.42 -10 5 C-10.33 5 -10.66 5 -11 5 Z M-7 8 C-7 8.99 -7 9.98 -7 11 C-5.68 10.67 -4.36 10.34 -3 10 C-3 9.34 -3 8.68 -3 8 C-4.32 8 -5.64 8 -7 8 Z M-7 13 C-7 14.98 -7 16.96 -7 19 C-7.99 19.495 -7.99 19.495 -9 20 C-5.59679066 20.67673447 -5.59679066 20.67673447 -2 21 C-1.34 20.34 -0.68 19.68 0 19 C-3.17539556 15.57421051 -3.17539556 15.57421051 -7 13 Z " fill="#B22D30" transform="translate(493,0)"/>
<path d="M0 0 C4.33333333 0 8.66666667 0 13 0 C14.155 -0.04125 15.31 -0.0825 16.5 -0.125 C20 0 20 0 23 2 C23 2.99 23 3.98 23 5 C20.69 5 18.38 5 16 5 C17.98 5.99 19.96 6.98 22 8 C21.74438677 10.3431213 21.40729228 12.67843403 21 15 C18.67313547 16.16343227 17.15278587 16.19895988 14.5625 16.25 C13.78003906 16.27578125 12.99757813 16.3015625 12.19140625 16.328125 C9.49198652 15.92393381 8.62540456 15.15326907 7 13 C7 12.34 7 11.68 7 11 C8.65 10.67 10.3 10.34 12 10 C11.67 9.67 11.34 9.34 11 9 C10.34 8.01 9.68 7.02 9 6 C7.68 6 6.36 6 5 6 C4.01 9.3 3.02 12.6 2 16 C0.35 16 -1.3 16 -3 16 C-2.88487847 14.27014758 -2.75744323 12.54111249 -2.625 10.8125 C-2.55539062 9.84957031 -2.48578125 8.88664063 -2.4140625 7.89453125 C-1.99784147 4.98491062 -1.20125904 2.67109226 0 0 Z M9 2 C10 4 10 4 10 4 Z " fill="#B22D30" transform="translate(424,141)"/>
<path d="M0 0 C1.9375 1.3125 1.9375 1.3125 3 3 C3 4.32 3 5.64 3 7 C1.35 7 -0.3 7 -2 7 C-2.33 6.34 -2.66 5.68 -3 5 C-5.02463255 4.34786708 -5.02463255 4.34786708 -7 4 C-7 4.99 -7 5.98 -7 7 C-6.071875 7.268125 -5.14375 7.53625 -4.1875 7.8125 C0.58823529 9.5916955 0.58823529 9.5916955 2 12 C1.875 15.5625 1.875 15.5625 1 19 C-2.19745142 21.13163428 -3.28757916 21.31975564 -7 21.375 C-7.86625 21.40335938 -8.7325 21.43171875 -9.625 21.4609375 C-12 21 -12 21 -13.8125 19.2265625 C-15 17 -15 17 -15 13 C-13.35 13 -11.7 13 -10 13 C-10 13.99 -10 14.98 -10 16 C-8.35 16 -6.7 16 -5 16 C-5 15.34 -5 14.68 -5 14 C-5.94875 13.401875 -6.8975 12.80375 -7.875 12.1875 C-11 10 -11 10 -12.5625 7.5625 C-13 5 -13 5 -11.8125 2.25 C-8.40673829 -1.97784213 -4.91768201 -1.053789 0 0 Z " fill="#B22D30" transform="translate(128,136)"/>
<path d="M0 0 C1.65 0 3.3 0 5 0 C4.67 5.28 4.34 10.56 4 16 C5.32 15.67 6.64 15.34 8 15 C9.32 10.05 10.64 5.1 12 0 C13.65 0 15.3 0 17 0 C16.6049005 6.52595383 15.98581674 13.07940612 13 19 C9.877998 21.08133467 9.06733011 21.2737822 5.5 21.25 C4.33984375 21.25773437 4.33984375 21.25773437 3.15625 21.265625 C1 21 1 21 -2 19 C-3.34876309 14.32338426 -2.75089402 10.78350457 -1.5625 6.125 C-1.27503906 4.97257813 -0.98757813 3.82015625 -0.69140625 2.6328125 C-0.46324219 1.76398438 -0.23507812 0.89515625 0 0 Z " fill="#B22D30" transform="translate(348,136)"/>
<path d="M0 0 C3.3 0 6.6 0 10 0 C10.66 2.31 11.32 4.62 12 7 C13.32 4.69 14.64 2.38 16 0 C17.98 0 19.96 0 22 0 C20.57085912 3.85093626 18.8102845 7.29649109 16.6875 10.8125 C16.11386719 11.78832031 15.54023438 12.76414063 14.94921875 13.76953125 C14.30597656 14.50558594 13.66273438 15.24164063 13 16 C11.35 16 9.7 16 8 16 C7.01 11.38 6.02 6.76 5 2 C4.01 6.62 3.02 11.24 2 16 C0.35 16 -1.3 16 -3 16 C-2.57910004 10.39538469 -2.08386889 5.27913453 0 0 Z " fill="#B22D30" transform="translate(385,141)"/>
<path d="M0 0 C1.2065625 0.0309375 1.2065625 0.0309375 2.4375 0.0625 C2.1075 1.7125 1.7775 3.3625 1.4375 5.0625 C2.860625 5.000625 2.860625 5.000625 4.3125 4.9375 C7.4375 5.0625 7.4375 5.0625 9.4375 7.0625 C10.9583761 11.49838862 10.06627161 14.74625523 8.4375 19.0625 C4.91070901 21.41369399 3.40870515 21.27693452 -0.75 21.1875 C-1.83667969 21.16945312 -2.92335938 21.15140625 -4.04296875 21.1328125 C-5.29013672 21.09800781 -5.29013672 21.09800781 -6.5625 21.0625 C-4.86917637 0.1187604 -4.86917637 0.1187604 0 0 Z M1.4375 9.0625 C-0.89641203 11.84364056 -0.89641203 11.84364056 -0.1875 14.75 C0.01875 15.513125 0.225 16.27625 0.4375 17.0625 C1.4275 17.0625 2.4175 17.0625 3.4375 17.0625 C4.0975 15.0825 4.7575 13.1025 5.4375 11.0625 C4.1175 10.4025 2.7975 9.7425 1.4375 9.0625 Z " fill="#B22D30" transform="translate(70.5625,135.9375)"/>
<path d="M0 0 C1.65 0 3.3 0 5 0 C5 1.65 5 3.3 5 5 C6.423125 4.938125 6.423125 4.938125 7.875 4.875 C11 5 11 5 13 7 C13.01171875 9.2421875 13.01171875 9.2421875 12.6875 11.875 C12.58824219 12.73867187 12.48898437 13.60234375 12.38671875 14.4921875 C12.04428665 16.71280777 11.5894344 18.83370263 11 21 C9.35 21 7.7 21 6 21 C6.33 17.37 6.66 13.74 7 10 C6.34 10 5.68 10 5 10 C4.79503906 10.71027344 4.59007812 11.42054688 4.37890625 12.15234375 C4.10949219 13.07144531 3.84007812 13.99054688 3.5625 14.9375 C3.29566406 15.85402344 3.02882813 16.77054688 2.75390625 17.71484375 C2 20 2 20 1 21 C-0.65 21 -2.3 21 -4 21 C-2.68 14.07 -1.36 7.14 0 0 Z " fill="#B22D30" transform="translate(307,136)"/>
<path d="M0 0 C1.39456452 0.00667256 2.78911118 0.01863093 4.18359375 0.03515625 C4.89451172 0.03966797 5.60542969 0.04417969 6.33789062 0.04882812 C8.09899388 0.06064761 9.86005411 0.07858362 11.62109375 0.09765625 C11.29109375 1.41765625 10.96109375 2.73765625 10.62109375 4.09765625 C7.32109375 4.09765625 4.02109375 4.09765625 0.62109375 4.09765625 C0.62109375 5.08765625 0.62109375 6.07765625 0.62109375 7.09765625 C3.59109375 7.42765625 6.56109375 7.75765625 9.62109375 8.09765625 C9.29109375 9.41765625 8.96109375 10.73765625 8.62109375 12.09765625 C5.32109375 12.09765625 2.02109375 12.09765625 -1.37890625 12.09765625 C-1.70890625 15.06765625 -2.03890625 18.03765625 -2.37890625 21.09765625 C-4.02890625 21.09765625 -5.67890625 21.09765625 -7.37890625 21.09765625 C-5.89247741 0.17030282 -5.89247741 0.17030282 0 0 Z " fill="#B22D30" transform="translate(7.37890625,135.90234375)"/>
<path d="M0 0 C1.9375 1.625 1.9375 1.625 3 4 C3.1875 7.25 3.1875 7.25 3 10 C-0.3 10 -3.6 10 -7 10 C-7 10.66 -7 11.32 -7 12 C-2.545 11.505 -2.545 11.505 2 11 C0 15 0 15 -1 16 C-8.08571429 16.45714286 -8.08571429 16.45714286 -11 15 C-12.64710001 11.70579998 -12.72204734 8.53459366 -12 5 C-8.64604046 0.12151339 -5.82995711 -0.97165952 0 0 Z M-5 4 C-5.33 4.99 -5.66 5.98 -6 7 C-4.68 7 -3.36 7 -2 7 C-2.33 6.01 -2.66 5.02 -3 4 C-3.66 4 -4.32 4 -5 4 Z " fill="#B22D30" transform="translate(460,141)"/>
<path d="M0 0 C2 1 2 1 3 3 C3.51089992 7.52511354 3.5262565 9.90172556 1.5625 14 C-1.71143768 16.55526843 -3.86264429 16.67171643 -7.93359375 16.41015625 C-10 16 -10 16 -12.125 14.5 C-13.42284094 10.79188302 -13.10404315 7.74147956 -12 4 C-8.89549276 -0.96721159 -5.37872781 -0.59763642 0 0 Z M-5 4 C-6.6483633 5.75244247 -6.6483633 5.75244247 -8 8 C-7.78282648 10.20800528 -7.78282648 10.20800528 -7 12 C-4.24358584 11.50243908 -4.24358584 11.50243908 -2 10 C-1.95936168 8.33382885 -1.957279 6.66611905 -2 5 C-2.99 4.67 -3.98 4.34 -5 4 Z " fill="#B22D30" transform="translate(204,141)"/>
<path d="M0 0 C1.65 0 3.3 0 5 0 C4.85831863 1.43791516 4.71148957 2.8753237 4.5625 4.3125 C4.48128906 5.11300781 4.40007812 5.91351563 4.31640625 6.73828125 C4 9 4 9 3 12 C3.99 11.67 4.98 11.34 6 11 C7.03038956 8.43957934 7.03038956 8.43957934 7.6875 5.4375 C7.93886719 4.42558594 8.19023437 3.41367188 8.44921875 2.37109375 C8.63097656 1.58863281 8.81273437 0.80617187 9 0 C10.65 0 12.3 0 14 0 C13.85764543 1.72945653 13.71095618 3.45855654 13.5625 5.1875 C13.48128906 6.15042969 13.40007812 7.11335937 13.31640625 8.10546875 C13.02333849 10.78649602 12.57296246 13.3662986 12 16 C9.85423363 16.02685938 7.70837355 16.04633088 5.5625 16.0625 C4.36753906 16.07410156 3.17257813 16.08570313 1.94140625 16.09765625 C-1 16 -1 16 -2 15 C-2.33228375 9.57269868 -1.4516516 5.17150883 0 0 Z " fill="#B22D30" transform="translate(159,141)"/>
<path d="M0 0 C3 2 3 2 3.875 5.8125 C4.23797024 9.72688499 3.54025024 11.8952497 1 15 C-2.19267515 16.59633757 -5.52693615 16.36932376 -9 16 C-11 15 -11 15 -12 13 C-12.63512789 8.07775886 -12.76733593 6.11612499 -9.9375 2 C-6.29704773 -0.4786058 -4.32351988 -0.56045628 0 0 Z M-5 4 C-7.33391203 6.78114056 -7.33391203 6.78114056 -6.625 9.6875 C-6.41875 10.450625 -6.2125 11.21375 -6 12 C-4.68 11.67 -3.36 11.34 -2 11 C-1.67 9.35 -1.34 7.7 -1 6 C-2.32 5.34 -3.64 4.68 -5 4 Z " fill="#B22D30" transform="translate(144,141)"/>
<path d="M0 0 C2.40229802 1.52145541 2.87439137 2.64249851 3.8125 5.3125 C4.04876808 8.69900913 3.37355402 10.90950345 2 14 C-1.13411302 16.08940868 -1.97450472 16.27364412 -5.5625 16.25 C-6.74005859 16.25773437 -6.74005859 16.25773437 -7.94140625 16.265625 C-10 16 -10 16 -12 14 C-13.15637647 9.66358825 -13.23509439 6.93802345 -11 3 C-7.71333075 -0.53012624 -4.66166325 -0.50854508 0 0 Z M-5 4 C-6.77195874 6.28643812 -6.77195874 6.28643812 -8 9 C-7.67 9.99 -7.34 10.98 -7 12 C-5.68 12 -4.36 12 -3 12 C-1.80161791 9.67145537 -1.80161791 9.67145537 -1 7 C-1.66 6.01 -2.32 5.02 -3 4 C-3.66 4 -4.32 4 -5 4 Z " fill="#B22D30" transform="translate(271,141)"/>
<path d="M0 0 C1.875 1.625 1.875 1.625 3 4 C3.1875 7.25 3.1875 7.25 3 10 C1.02 10.33 -0.96 10.66 -3 11 C-1.35 11 0.3 11 2 11 C1.625 12.9375 1.625 12.9375 1 15 C-2.202793 16.6013965 -5.52464075 16.48229475 -9 16 C-11.0625 14.5625 -11.0625 14.5625 -12 12 C-12.17713423 8.83443984 -11.93698391 6.03513807 -11 3 C-7.66162626 -0.14760953 -4.49386766 -0.68384943 0 0 Z M-5 4 C-5.33 4.99 -5.66 5.98 -6 7 C-4.68 7 -3.36 7 -2 7 C-2.33 6.01 -2.66 5.02 -3 4 C-3.66 4 -4.32 4 -5 4 Z " fill="#B22D30" transform="translate(333,141)"/>
<path d="M0 0 C1.875 1.0625 1.875 1.0625 3 3 C3.1875 6.6875 3.1875 6.6875 3 10 C1.02 10.33 -0.96 10.66 -3 11 C-1.35 11 0.3 11 2 11 C1.625 12.9375 1.625 12.9375 1 15 C-2.19405084 16.59702542 -5.53271429 16.50343003 -9 16 C-11.71604627 13.7932124 -11.95162422 12.46440748 -12.3125 9 C-12.00493726 6.04739767 -11.71418031 4.39985243 -10 2 C-6.78801186 -0.29427725 -3.86893019 -0.41158832 0 0 Z M-5 4 C-5.33 4.99 -5.66 5.98 -6 7 C-4.68 7 -3.36 7 -2 7 C-2.33 6.01 -2.66 5.02 -3 4 C-3.66 4 -4.32 4 -5 4 Z " fill="#B22D30" transform="translate(37,141)"/>
<path d="M0 0 C1.97909398 -0.02686553 3.95828971 -0.04633375 5.9375 -0.0625 C7.03964844 -0.07410156 8.14179688 -0.08570313 9.27734375 -0.09765625 C12 0 12 0 13 1 C13.2857653 6.52479577 12.74511597 10.76465209 11 16 C9.35 16 7.7 16 6 16 C6.66 12.04 7.32 8.08 8 4 C4.04346744 7.73280929 4.04346744 7.73280929 2.75 12.25 C2.5025 13.4875 2.255 14.725 2 16 C0.35 16 -1.3 16 -3 16 C-2.52013969 10.43109483 -1.70084819 5.32932432 0 0 Z " fill="#B22D30" transform="translate(211,141)"/>
<path d="M0 0 C1.875 1.0625 1.875 1.0625 3 3 C3.1875 6.6875 3.1875 6.6875 3 10 C1.02 10.33 -0.96 10.66 -3 11 C-1.02 11 0.96 11 3 11 C2.0625 13.5 2.0625 13.5 0 16 C-3.12549177 16.75663674 -5.8690587 16.71581 -9 16 C-11.125 13.9375 -11.125 13.9375 -12 11 C-12 6.74119188 -11.67800813 4.75549477 -8.8125 1.5625 C-5.51347538 -0.27029145 -3.71713859 -0.56565153 0 0 Z M-5 4 C-5.33 4.99 -5.66 5.98 -6 7 C-4.35 7 -2.7 7 -1 7 C-1.33 6.01 -1.66 5.02 -2 4 C-2.99 4 -3.98 4 -5 4 Z " fill="#B22D30" transform="translate(101,141)"/>
<path d="M0 0 C2.46809997 1.61703101 2.91941607 2.72467156 3.75 5.5625 C4 8 4 8 3 10 C0.03 10 -2.94 10 -6 10 C-6 10.66 -6 11.32 -6 12 C-1.545 11.505 -1.545 11.505 3 11 C1 15 1 15 0 16 C-7.08571429 16.45714286 -7.08571429 16.45714286 -10 15 C-11.64590311 11.70819377 -11.72840366 8.53207058 -11 5 C-7.85107955 0.55446525 -5.44419378 -0.94681631 0 0 Z M-4 4 C-4.99 5.485 -4.99 5.485 -6 7 C-4.35 7 -2.7 7 -1 7 C-1.33 6.01 -1.66 5.02 -2 4 C-2.66 4 -3.32 4 -4 4 Z " fill="#B22D30" transform="translate(417,141)"/>
<path d="M0 0 C9.1796875 -0.1953125 9.1796875 -0.1953125 12 0 C14 2 14 2 14.01171875 4.2421875 C13.90472656 5.11101562 13.79773438 5.97984375 13.6875 6.875 C13.58824219 7.73867187 13.48898437 8.60234375 13.38671875 9.4921875 C13.04428665 11.71280777 12.5894344 13.83370263 12 16 C10.35 16 8.7 16 7 16 C7.14168137 14.56208484 7.28851043 13.1246763 7.4375 11.6875 C7.51871094 10.88699219 7.59992188 10.08648437 7.68359375 9.26171875 C8 7 8 7 9 4 C8.01 4.33 7.02 4.66 6 5 C5.00906983 7.29671092 5.00906983 7.29671092 4.375 10 C3.07335907 14.92664093 3.07335907 14.92664093 2 16 C0.35 16 -1.3 16 -3 16 C-2.01 10.72 -1.02 5.44 0 0 Z " fill="#B22D30" transform="translate(367,141)"/>
<path d="M0 0 C0.99 0.66 1.98 1.32 3 2 C3 2.99 3 3.98 3 5 C0.69 5 -1.62 5 -4 5 C-2.02 5.99 -0.04 6.98 2 8 C2.125 10.875 2.125 10.875 2 14 C-0.49117578 16.49117578 -1.48855449 16.35140298 -4.9375 16.4375 C-7.64453125 16.40234375 -7.64453125 16.40234375 -10 16 C-12.125 13.5 -12.125 13.5 -13 11 C-11.35 10.67 -9.7 10.34 -8 10 C-8.33 9.67 -8.66 9.34 -9 9 C-10 8 -10 8 -10.25 5.0625 C-10.1675 4.051875 -10.085 3.04125 -10 2 C-6.31282562 -0.45811625 -4.35654296 -0.31118164 0 0 Z " fill="#B22D30" transform="translate(237,141)"/>
<path d="M0 0 C2.375 -0.1875 2.375 -0.1875 5 0 C5.66 0.99 6.32 1.98 7 3 C7.66 2.01 8.32 1.02 9 0 C12.125 -0.1875 12.125 -0.1875 15 0 C13.33027523 4.75229358 13.33027523 4.75229358 11.25 6.3125 C9.7588977 7.9177047 9.7588977 7.9177047 10.25390625 9.9609375 C10.7638113 11.99342615 11.37684013 13.99932885 12 16 C9.625 16.125 9.625 16.125 7 16 C6.34 15.34 5.68 14.68 5 14 C4.34 14.66 3.68 15.32 3 16 C-0.625 16.125 -0.625 16.125 -4 16 C-3.54367188 15.48050781 -3.08734375 14.96101562 -2.6171875 14.42578125 C-0.89811882 12.34054324 0.65649979 10.34676335 2 8 C1.53712479 5.17367074 1.53712479 5.17367074 0 3 C0 2.01 0 1.02 0 0 Z " fill="#B22D30" transform="translate(42,141)"/>
<path d="M0 0 C-0.99 2.97 -1.98 5.94 -3 9 C-3.99 9 -4.98 9 -6 9 C-6.06058594 9.61488281 -6.12117187 10.22976562 -6.18359375 10.86328125 C-6.26738281 11.67152344 -6.35117188 12.47976562 -6.4375 13.3125 C-6.51871094 14.11300781 -6.59992188 14.91351563 -6.68359375 15.73828125 C-7 18 -7 18 -8 21 C-9.65 21 -11.3 21 -13 21 C-12.85831863 19.56208484 -12.71148957 18.1246763 -12.5625 16.6875 C-12.48128906 15.88699219 -12.40007812 15.08648437 -12.31640625 14.26171875 C-12 12 -12 12 -11 9 C-11.66 9 -12.32 9 -13 9 C-12.67 7.68 -12.34 6.36 -12 5 C-11.34 5 -10.68 5 -10 5 C-9.71125 4.195625 -9.4225 3.39125 -9.125 2.5625 C-7.05707701 -2.14776903 -4.49406067 -0.87927274 0 0 Z " fill="#B22D30" transform="translate(262,136)"/>
<path d="M0 0 C-0.33 1.65 -0.66 3.3 -1 5 C-0.34 5 0.32 5 1 5 C1 6.32 1 7.64 1 9 C0.01 9 -0.98 9 -2 9 C-2.33 11.64 -2.66 14.28 -3 17 C-2.34 17 -1.68 17 -1 17 C-1 18.32 -1 19.64 -1 21 C-3.31 21 -5.62 21 -8 21 C-8.02712066 19.56260487 -8.04645067 18.12506137 -8.0625 16.6875 C-8.07410156 15.88699219 -8.08570313 15.08648437 -8.09765625 14.26171875 C-8 12 -8 12 -7 9 C-7.66 9 -8.32 9 -9 9 C-8.67 7.68 -8.34 6.36 -8 5 C-7.34 5 -6.68 5 -6 5 C-5.67 4.01 -5.34 3.02 -5 2 C-2 0 -2 0 0 0 Z " fill="#B22D30" transform="translate(183,136)"/>
<path d="M0 0 C0 1.65 0 3.3 0 5 C0.66 5 1.32 5 2 5 C1.625 6.9375 1.625 6.9375 1 9 C0.01 9.495 0.01 9.495 -1 10 C-1.73075648 12.3140622 -2.40138258 14.64828869 -3 17 C-2.01 17 -1.02 17 0 17 C-0.33 18.32 -0.66 19.64 -1 21 C-2.99954746 21.04254356 -5.00041636 21.04080783 -7 21 C-7.33 20.67 -7.66 20.34 -8 20 C-7.88239029 18.41226886 -7.70551909 16.82876031 -7.5 15.25 C-7.08543048 11.58709465 -6.92522963 8.58256791 -8 5 C-7.01 5 -6.02 5 -5 5 C-4.71125 4.360625 -4.4225 3.72125 -4.125 3.0625 C-3.04730781 1.08673098 -2.41677831 0 0 0 Z " fill="#B22D30" transform="translate(303,136)"/>
<path d="M0 0 C3.3 0 6.6 0 10 0 C9.67 1.65 9.34 3.3 9 5 C7.68 5 6.36 5 5 5 C4.01 8.63 3.02 12.26 2 16 C0.35 16 -1.3 16 -3 16 C-2.52013969 10.43109483 -1.70084819 5.32932432 0 0 Z " fill="#B22D30" transform="translate(278,141)"/>
<path d="M0 0 C1.65 0 3.3 0 5 0 C3.50462963 18.49537037 3.50462963 18.49537037 1 21 C-0.65 21 -2.3 21 -4 21 C-2.68 14.07 -1.36 7.14 0 0 Z " fill="#B22D30" transform="translate(152,136)"/>
<path d="M0 0 C1.65 0 3.3 0 5 0 C3.68 6.93 2.36 13.86 1 21 C-0.65 21 -2.3 21 -4 21 C-3.54034292 13.69303751 -2.11670277 7.00242552 0 0 Z " fill="#B22D30" transform="translate(21,136)"/>
<path d="M0 0 C1.65 0 3.3 0 5 0 C3.98208077 7.10377673 2.90094901 14.07511433 1 21 C-0.65 21 -2.3 21 -4 21 C-3.29843593 13.84404654 -1.69214979 6.98144819 0 0 Z " fill="#B22D30" transform="translate(85,136)"/>
<path d="M0 0 C1.65 0 3.3 0 5 0 C4.69075786 2.10464793 4.3774944 4.2087053 4.0625 6.3125 C3.88847656 7.48425781 3.71445312 8.65601563 3.53515625 9.86328125 C3 13 3 13 2 16 C0.35 16 -1.3 16 -3 16 C-2.52013969 10.43109483 -1.70084819 5.32932432 0 0 Z " fill="#B22D30" transform="translate(59,141)"/>
<path d="M0 0 C1.65 0 3.3 0 5 0 C4.01 5.28 3.02 10.56 2 16 C0.35 16 -1.3 16 -3 16 C-2.52013969 10.43109483 -1.70084819 5.32932432 0 0 Z " fill="#B22D30" transform="translate(186,141)"/>
<path d="M0 0 C1.65 0 3.3 0 5 0 C4.67 1.32 4.34 2.64 4 4 C2.35 4 0.7 4 -1 4 C-0.67 2.68 -0.34 1.36 0 0 Z " fill="#B22D30" transform="translate(386,136)"/>
<path d="M0 0 C1.65 0 3.3 0 5 0 C4.67 1.32 4.34 2.64 4 4 C2.35 4 0.7 4 -1 4 C-0.67 2.68 -0.34 1.36 0 0 Z " fill="#B22D30" transform="translate(187,136)"/>
<path d="M0 0 C1.65 0 3.3 0 5 0 C4.67 1.32 4.34 2.64 4 4 C2.35 4 0.7 4 -1 4 C-0.67 2.68 -0.34 1.36 0 0 Z " fill="#B22D30" transform="translate(60,136)"/>
</svg>
